<svg xmlns="http://www.w3.org/2000/svg" width="18.129" height="18.091" viewBox="0 0 18.129 18.091">
  <path id="Path_3068" data-name="Path 3068" d="M7.607,16.357a1.391,1.391,0,0,1-1.36-1.116L5.58,11.913H5.114A.51.51,0,0,1,4.6,11.4v-.432A2.293,2.293,0,0,1,4.6,6.5V6.065a.516.516,0,0,1,.515-.516H8.586L13.6,3.9a1.4,1.4,0,0,1,1.349-1.015h.173l0,.012a1.406,1.406,0,0,1,1.228,1.393v8.887a1.4,1.4,0,0,1-2.754.39L8.586,11.914H8.409L8.966,14.7a1.384,1.384,0,0,1-1.359,1.66Zm-.35-1.319a.355.355,0,0,0,.624.153.354.354,0,0,0,.075-.293l-.6-2.987H6.631ZM14.948,3.915a.377.377,0,0,0-.373.372v8.886a.373.373,0,0,0,.745,0V4.286A.373.373,0,0,0,14.948,3.915Zm-1.4,8.544V5L9.185,6.436v4.588ZM8.152,10.879V6.58H5.631v4.3ZM4.6,7.578a1.264,1.264,0,0,0,0,2.3Z" transform="translate(-2.916 2.649) rotate(-17)" fill="#f59b2b" stroke="rgba(0,0,0,0)" stroke-width="1"/>
</svg>
