<svg xmlns="http://www.w3.org/2000/svg" width="25.602" height="22.506" viewBox="0 0 25.602 22.506">
  <g id="_2135793_attention_news_speaker_statement_icon" data-name="2135793_attention_news_speaker_statement_icon" transform="translate(-6.284 -48.794)">
    <path id="XMLID_5_" d="M218.2,55.7v8.4l11.785,6.2a1.469,1.469,0,0,0,2.205-1.116V50.607a1.471,1.471,0,0,0-2.205-1.116Z" transform="translate(-203.033 0)" fill="none" stroke="#000" stroke-width="1"/>
    <path id="XMLID_4_" d="M21.851,173.206a2.454,2.454,0,0,0-2.451,2.451v4.451a2.454,2.454,0,0,0,2.451,2.451h8.317V173.2H21.851Z" transform="translate(-12.616 -117.956)" fill="none" stroke="#000" stroke-width="1"/>
    <path id="XMLID_3_" d="M467.9,184.1v8.1a4.8,4.8,0,0,0,0-8.1Z" transform="translate(-438.743 -128.222)" fill="none" stroke="#000" stroke-width="1"/>
    <path id="XMLID_1_" d="M85.914,318.516s-1.328,1.255,2.064,5.326a.579.579,0,0,1-.45.948H83.9a.746.746,0,0,1-.655-.386c-.667-1.217-1.312-2.373-.818-5.887" transform="translate(-71.922 -253.989)" fill="none" stroke="#000" stroke-width="1"/>
  </g>
</svg>
