<svg id="Calendar-4" xmlns="http://www.w3.org/2000/svg" width="14.282" height="15.71" viewBox="0 0 14.282 15.71">
  <g id="Line_200" data-name="Line 200" transform="translate(0.066 5.287)">
    <path id="Path_3997" data-name="Path 3997" d="M275.535,939.736H262.807a.714.714,0,1,1,0-1.428h12.728a.714.714,0,1,1,0,1.428Z" transform="translate(-262.093 -938.308)" fill="#f59b2b"/>
  </g>
  <g id="Line_201" data-name="Line 201" transform="translate(9.602 8.076)">
    <path id="Path_3998" data-name="Path 3998" d="M276.165,943.642a.714.714,0,1,1-.006-1.428h.006a.714.714,0,0,1,0,1.428Z" transform="translate(-275.447 -942.214)" fill="#f59b2b"/>
  </g>
  <g id="Line_202" data-name="Line 202" transform="translate(6.434 8.076)">
    <path id="Path_3999" data-name="Path 3999" d="M271.727,943.642a.714.714,0,0,1-.006-1.428h.006a.714.714,0,0,1,0,1.428Z" transform="translate(-271.01 -942.214)" fill="#f59b2b"/>
  </g>
  <g id="Line_203" data-name="Line 203" transform="translate(3.258 8.076)">
    <path id="Path_4000" data-name="Path 4000" d="M267.28,943.642a.714.714,0,1,1-.006-1.428h.006a.714.714,0,0,1,0,1.428Z" transform="translate(-266.562 -942.214)" fill="#f59b2b"/>
  </g>
  <g id="Line_204" data-name="Line 204" transform="translate(9.602 10.851)">
    <path id="Path_4001" data-name="Path 4001" d="M276.165,947.528a.714.714,0,1,1-.006-1.428h.006a.714.714,0,0,1,0,1.428Z" transform="translate(-275.447 -946.1)" fill="#f59b2b"/>
  </g>
  <g id="Line_205" data-name="Line 205" transform="translate(6.434 10.851)">
    <path id="Path_4002" data-name="Path 4002" d="M271.727,947.528a.714.714,0,0,1-.006-1.428h.006a.714.714,0,0,1,0,1.428Z" transform="translate(-271.01 -946.1)" fill="#f59b2b"/>
  </g>
  <g id="Line_206" data-name="Line 206" transform="translate(3.258 10.851)">
    <path id="Path_4003" data-name="Path 4003" d="M267.28,947.528a.714.714,0,1,1-.006-1.428h.006a.714.714,0,0,1,0,1.428Z" transform="translate(-266.562 -946.1)" fill="#f59b2b"/>
  </g>
  <g id="Line_207" data-name="Line 207" transform="translate(9.315)">
    <path id="Path_4004" data-name="Path 4004" d="M275.758,934.682a.714.714,0,0,1-.714-.714v-2.35a.714.714,0,0,1,1.428,0v2.35A.714.714,0,0,1,275.758,934.682Z" transform="translate(-275.044 -930.904)" fill="#f59b2b"/>
  </g>
  <g id="Line_208" data-name="Line 208" transform="translate(3.545)">
    <path id="Path_4005" data-name="Path 4005" d="M267.679,934.682a.714.714,0,0,1-.714-.714v-2.35a.714.714,0,0,1,1.428,0v2.35A.714.714,0,0,1,267.679,934.682Z" transform="translate(-266.965 -930.904)" fill="#f59b2b"/>
  </g>
  <g id="Path-15" transform="translate(0 1.128)">
    <path id="Path_4006" data-name="Path 4006" d="M272.161,947.065h-6.04a3.809,3.809,0,0,1-4.121-4.09v-6.463a3.782,3.782,0,0,1,4.121-4.03h6.046a4.182,4.182,0,0,1,3.045,1.109,4.007,4.007,0,0,1,1.07,2.923v6.515A3.785,3.785,0,0,1,272.161,947.065Zm-6.04-13.154a2.379,2.379,0,0,0-2.693,2.6v6.463a2.4,2.4,0,0,0,2.693,2.662h6.04a2.381,2.381,0,0,0,2.693-2.608v-6.517a2.6,2.6,0,0,0-.653-1.912,2.805,2.805,0,0,0-2.034-.689Z" transform="translate(-262 -932.483)" fill="#f59b2b"/>
  </g>
</svg>
