<svg xmlns="http://www.w3.org/2000/svg" width="20" height="18" viewBox="0 0 20 18">
  <g id="_1976059_camera_images_photo_picture_icon" data-name="1976059_camera_images_photo_picture_icon" transform="translate(-2 -3)">
    <path id="Path_3015" data-name="Path 3015" d="M19.6,6H17.276l-.714-2.015A1.519,1.519,0,0,0,15.017,3H8.983a1.519,1.519,0,0,0-1.545.985L6.724,6H4.4A2.493,2.493,0,0,0,2,8.743v9.77A2.28,2.28,0,0,0,4.4,21H19.6A2.28,2.28,0,0,0,22,18.513V8.743A2.493,2.493,0,0,0,19.6,6ZM21,18.513A1.334,1.334,0,0,1,19.6,20H4.4A1.334,1.334,0,0,1,3,18.513V8.743C3,7.846,3.5,7,4.4,7H7.115a.5.5,0,0,0,.515-.313l.838-2.415C8.542,4.05,8.749,4,8.983,4h6.034a.485.485,0,0,1,.515.3l.838,2.421c.074.221.281.278.515.278H19.6c.9,0,1.4.846,1.4,1.743Z" fill="#fff"/>
    <path id="Path_3016" data-name="Path 3016" d="M12,7.658a5.428,5.428,0,1,0,5.428,5.427A5.434,5.434,0,0,0,12,7.658Zm0,9.77a4.342,4.342,0,1,1,4.342-4.343A4.347,4.347,0,0,1,12,17.428Z" fill="#fff"/>
  </g>
</svg>
