<svg width="16" height="17" viewBox="0 0 16 17" fill="none" xmlns="http://www.w3.org/2000/svg">
<path d="M9.99968 15.6663H5.99968C2.37967 15.6663 0.833008 14.1197 0.833008 10.4997V6.49968C0.833008 2.87967 2.37967 1.33301 5.99968 1.33301H7.33301C7.60634 1.33301 7.83301 1.55967 7.83301 1.83301C7.83301 2.10634 7.60634 2.33301 7.33301 2.33301H5.99968C2.92634 2.33301 1.83301 3.42634 1.83301 6.49968V10.4997C1.83301 13.573 2.92634 14.6663 5.99968 14.6663H9.99968C13.073 14.6663 14.1663 13.573 14.1663 10.4997V9.16634C14.1663 8.89301 14.393 8.66634 14.6663 8.66634C14.9397 8.66634 15.1663 8.89301 15.1663 9.16634V10.4997C15.1663 14.1197 13.6197 15.6663 9.99968 15.6663Z" fill="white"/>
<path d="M5.66639 12.2934C5.25973 12.2934 4.88639 12.1467 4.61306 11.88C4.28639 11.5534 4.14639 11.08 4.21973 10.58L4.50639 8.57337C4.55973 8.18671 4.81306 7.68671 5.08639 7.41337L10.3397 2.16004C11.6664 0.833372 13.0131 0.833372 14.3397 2.16004C15.0664 2.88671 15.3931 3.62671 15.3264 4.36671C15.2664 4.96671 14.9464 5.55337 14.3397 6.15337L9.08639 11.4067C8.81306 11.68 8.31306 11.9334 7.92639 11.9867L5.91973 12.2734C5.83306 12.2934 5.74639 12.2934 5.66639 12.2934ZM11.0464 2.86671L5.79306 8.12004C5.66639 8.24671 5.51973 8.54004 5.49306 8.71337L5.20639 10.72C5.17973 10.9134 5.21973 11.0734 5.31973 11.1734C5.41973 11.2734 5.57973 11.3134 5.77306 11.2867L7.77973 11C7.95306 10.9734 8.25306 10.8267 8.37306 10.7L13.6264 5.44671C14.0597 5.01337 14.2864 4.62671 14.3197 4.26671C14.3597 3.83337 14.1331 3.37337 13.6264 2.86004C12.5597 1.79337 11.8264 2.09337 11.0464 2.86671Z" fill="white"/>
<path d="M13.2335 7.05319C13.1869 7.05319 13.1402 7.04652 13.1002 7.03319C11.3469 6.53986 9.95353 5.14652 9.4602 3.39319C9.38687 3.12652 9.5402 2.85319 9.80687 2.77319C10.0735 2.69986 10.3469 2.85319 10.4202 3.11986C10.8202 4.53986 11.9469 5.66652 13.3669 6.06652C13.6335 6.13986 13.7869 6.41985 13.7135 6.68652C13.6535 6.91319 13.4535 7.05319 13.2335 7.05319Z" fill="white"/>
</svg>
