<svg width="172" height="168" viewBox="0 0 172 168" fill="none" xmlns="http://www.w3.org/2000/svg">
<g clip-path="url(#clip0_80_614)">
<path d="M109.192 37.7594H62.8459C61.7897 37.7607 60.7772 38.1809 60.0304 38.9277C59.2836 39.6745 58.8635 40.687 58.8622 41.7432V144.749L58.331 144.911L46.9615 148.393C46.4226 148.557 45.8406 148.501 45.3432 148.236C44.8458 147.972 44.4736 147.521 44.3084 146.982L10.4892 36.5139C10.3246 35.975 10.3807 35.3929 10.6451 34.8954C10.9096 34.3979 11.3607 34.0257 11.8994 33.8607L29.4199 28.496L80.2123 12.9488L97.7326 7.58411C97.9992 7.50205 98.2794 7.47337 98.5572 7.49972C98.8349 7.52607 99.1047 7.60693 99.3511 7.73767C99.5976 7.86841 99.8158 8.04647 99.9934 8.26165C100.171 8.47683 100.304 8.7249 100.386 8.99169L109.03 37.2283L109.192 37.7594Z" fill="#F2F2F2"/>
<path d="M119.306 37.2273L108.888 3.19575C108.714 2.62872 108.431 2.1014 108.054 1.64393C107.677 1.18646 107.213 0.807808 106.689 0.5296C106.166 0.251393 105.592 0.079085 105.002 0.0225298C104.412 -0.0340253 103.816 0.0262803 103.249 0.199995L78.6167 7.73984L27.8271 23.2896L3.19441 30.8321C2.0501 31.1835 1.09196 31.9746 0.530296 33.0316C-0.0313711 34.0887 -0.150677 35.3255 0.198571 36.4704L35.8077 152.776C36.0914 153.701 36.6639 154.51 37.4411 155.085C38.2183 155.66 39.1593 155.97 40.1261 155.971C40.5736 155.972 41.0185 155.904 41.446 155.772L58.3317 150.604L58.8628 150.439V149.884L58.3317 150.046L41.2894 155.265C40.2793 155.573 39.1883 155.468 38.2558 154.972C37.3233 154.477 36.6253 153.632 36.315 152.622L0.708596 36.3137C0.554848 35.8136 0.501263 35.2881 0.550907 34.7672C0.600551 34.2464 0.752444 33.7404 0.9979 33.2784C1.24336 32.8163 1.57755 32.4072 1.98134 32.0745C2.38513 31.7418 2.85058 31.492 3.35105 31.3394L27.9837 23.7969L78.7735 8.24976L103.406 0.70726C103.786 0.591413 104.18 0.532345 104.577 0.531975C105.429 0.533888 106.258 0.808487 106.942 1.31555C107.627 1.82262 108.131 2.5355 108.38 3.34979L118.751 37.2273L118.916 37.7585H119.469L119.306 37.2273Z" fill="#3F3D56"/>
<path d="M32.5821 33.9464C32.0702 33.9461 31.5719 33.7817 31.1603 33.4774C30.7487 33.173 30.4455 32.7448 30.2951 32.2555L26.8743 21.0821C26.7824 20.7819 26.7505 20.4666 26.7804 20.1542C26.8104 19.8417 26.9016 19.5382 27.0489 19.261C27.1961 18.9838 27.3966 18.7383 27.6387 18.5385C27.8809 18.3388 28.16 18.1887 28.4601 18.0969L75.1862 3.79168C75.7924 3.60671 76.4472 3.66979 77.0069 3.96708C77.5666 4.26437 77.9854 4.77158 78.1716 5.37738L81.5923 16.551C81.7772 17.1571 81.7141 17.8119 81.4168 18.3715C81.1195 18.9312 80.6124 19.3501 80.0066 19.5363L33.2804 33.8415C33.0541 33.911 32.8188 33.9463 32.5821 33.9464Z" fill="#E9A01C"/>
<path d="M50.5011 11.9397C53.4346 11.9397 55.8127 9.56156 55.8127 6.62803C55.8127 3.6945 53.4346 1.31641 50.5011 1.31641C47.5675 1.31641 45.1895 3.6945 45.1895 6.62803C45.1895 9.56156 47.5675 11.9397 50.5011 11.9397Z" fill="#E9A01C"/>
<path d="M50.5012 9.99064C52.3588 9.99064 53.8647 8.48476 53.8647 6.62716C53.8647 4.76956 52.3588 3.26367 50.5012 3.26367C48.6436 3.26367 47.1377 4.76956 47.1377 6.62716C47.1377 8.48476 48.6436 9.99064 50.5012 9.99064Z" fill="white"/>
<path d="M160.049 154.614H70.2828C69.6843 154.614 69.1105 154.376 68.6873 153.952C68.2641 153.529 68.0261 152.955 68.0254 152.357V44.7965C68.0261 44.198 68.2641 43.6242 68.6873 43.201C69.1105 42.7778 69.6843 42.5397 70.2828 42.5391H160.049C160.648 42.5398 161.222 42.7778 161.645 43.201C162.068 43.6242 162.306 44.198 162.307 44.7965V152.357C162.306 152.955 162.068 153.529 161.645 153.952C161.222 154.376 160.648 154.614 160.049 154.614Z" fill="#E6E6E6"/>
<path d="M118.751 37.2266H62.8459C61.649 37.2283 60.5016 37.7045 59.6553 38.5508C58.809 39.3972 58.3327 40.5445 58.3311 41.7414V150.045L58.8622 149.883V41.7414C58.8635 40.6853 59.2836 39.6728 60.0304 38.9259C60.7773 38.1791 61.7898 37.759 62.8459 37.7577H118.915L118.751 37.2266ZM167.485 37.2266H62.8459C61.649 37.2283 60.5016 37.7045 59.6553 38.5508C58.809 39.3972 58.3327 40.5445 58.3311 41.7414V163.378C58.3327 164.575 58.809 165.722 59.6553 166.568C60.5016 167.415 61.649 167.891 62.8459 167.893H167.485C168.682 167.891 169.829 167.415 170.676 166.568C171.522 165.722 171.998 164.575 172 163.378V41.7414C171.998 40.5445 171.522 39.3972 170.676 38.5508C169.829 37.7045 168.682 37.2283 167.485 37.2266ZM171.469 163.378C171.467 164.434 171.047 165.446 170.3 166.193C169.554 166.94 168.541 167.36 167.485 167.361H62.8459C61.7898 167.36 60.7773 166.94 60.0304 166.193C59.2836 165.446 58.8635 164.434 58.8622 163.378V41.7414C58.8635 40.6853 59.2836 39.6728 60.0304 38.9259C60.7773 38.1791 61.7898 37.759 62.8459 37.7577H167.485C168.541 37.759 169.554 38.1791 170.3 38.9259C171.047 39.6728 171.467 40.6853 171.469 41.7414V163.378Z" fill="#3F3D56"/>
<path d="M139.599 48.9131H90.732C90.0983 48.9123 89.4908 48.6603 89.0427 48.2122C88.5946 47.7641 88.3425 47.1565 88.3418 46.5228V34.8373C88.3425 34.2035 88.5946 33.596 89.0427 33.1479C89.4908 32.6998 90.0983 32.4477 90.732 32.447H139.599C140.233 32.4477 140.84 32.6998 141.288 33.1479C141.736 33.596 141.988 34.2035 141.989 34.8373V46.5228C141.988 47.1565 141.736 47.7641 141.288 48.2122C140.84 48.6603 140.233 48.9123 139.599 48.9131Z" fill="#E9A01C"/>
<path d="M115.165 33.2443C118.099 33.2443 120.477 30.8662 120.477 27.9327C120.477 24.9992 118.099 22.6211 115.165 22.6211C112.232 22.6211 109.854 24.9992 109.854 27.9327C109.854 30.8662 112.232 33.2443 115.165 33.2443Z" fill="#E9A01C"/>
<path d="M115.166 31.1678C116.953 31.1678 118.401 29.7193 118.401 27.9325C118.401 26.1457 116.953 24.6973 115.166 24.6973C113.379 24.6973 111.931 26.1457 111.931 27.9325C111.931 29.7193 113.379 31.1678 115.166 31.1678Z" fill="white"/>
</g>
<defs>
<clipPath id="clip0_80_614">
<rect width="172" height="167.893" fill="white"/>
</clipPath>
</defs>
</svg>
