<svg width="18" height="18" viewBox="0 0 18 18" fill="none" xmlns="http://www.w3.org/2000/svg">
<path d="M1.95543 4.46139L7.00216 0.930427C8.37774 -0.0333576 10.4893 0.0192127 11.8123 1.04433L16.2019 4.47015C17.0781 5.15356 17.7703 6.55543 17.7703 7.6594V13.705C17.7703 15.9392 15.9566 17.7616 13.7224 17.7616H4.27727C2.04305 17.7616 0.229376 15.9479 0.229376 13.7137V7.7733C0.229376 6.59047 0.991642 5.13603 1.95543 4.46139ZM8.34269 14.2569C8.34269 14.6162 8.64059 14.9141 8.99982 14.9141C9.35905 14.9141 9.65695 14.6162 9.65695 14.2569V11.6284C9.65695 11.2692 9.35905 10.9713 8.99982 10.9713C8.64059 10.9713 8.34269 11.2692 8.34269 11.6284V14.2569Z" fill="white"/>
</svg>
