<svg xmlns="http://www.w3.org/2000/svg" width="19.123" height="20.243" viewBox="0 0 19.123 20.243">
  <path id="_1976053_home_home_page_homepage_homepages_icon" data-name="1976053_home_home page_homepage_homepages_icon" d="M21.146,8.576,13.6,2.441a2.543,2.543,0,0,0-3.192,0h0L2.855,8.575a1.119,1.119,0,0,0-.416.873V20.991a1.131,1.131,0,0,0,1.125,1.13H8.626a1.131,1.131,0,0,0,1.125-1.13V13.685h4.5v7.306a1.131,1.131,0,0,0,1.125,1.13h5.062a1.131,1.131,0,0,0,1.125-1.13V9.448A1.122,1.122,0,0,0,21.146,8.576ZM20.436,21H15.374V13.68a1.122,1.122,0,0,0-1.125-1.119H9.75A1.122,1.122,0,0,0,8.625,13.68V21H3.564V9.448l7.55-6.134a1.411,1.411,0,0,1,1.773,0l7.55,6.134V21Z" transform="translate(-2.439 -1.878)"/>
</svg>
