<svg width="22" height="21" viewBox="0 0 22 21" fill="none" xmlns="http://www.w3.org/2000/svg">
<path d="M21.625 10.2498C21.6236 8.95737 21.1095 7.71826 20.1955 6.80434C19.2816 5.89042 18.0425 5.37633 16.75 5.37484H13.03C12.7075 5.35515 8.09879 4.99984 3.70566 1.31547C3.43238 1.08603 3.09931 0.939336 2.74556 0.892611C2.39181 0.845886 2.03208 0.901071 1.7086 1.05169C1.38512 1.2023 1.11134 1.44209 0.919402 1.74289C0.727465 2.0437 0.625346 2.39302 0.625037 2.74984V17.7498C0.622781 18.1071 0.723657 18.4574 0.915559 18.7587C1.10746 19.06 1.38224 19.2996 1.70691 19.4486C2.0302 19.6012 2.39059 19.6575 2.74503 19.6108C3.09946 19.5641 3.43296 19.4163 3.70566 19.1852C5.9543 17.2949 8.62953 15.9807 11.5 15.3564V17.8127C11.5 18.1213 11.5761 18.4251 11.7217 18.6972C11.8672 18.9694 12.0777 19.2014 12.3344 19.3727C12.376 19.4007 12.4196 19.4258 12.4647 19.4477L13.8185 20.1095C14.0687 20.2593 14.3504 20.3487 14.6412 20.3705C14.932 20.3923 15.2239 20.346 15.4937 20.2352C15.7635 20.1245 16.0037 19.9523 16.1953 19.7324C16.3868 19.5125 16.5245 19.251 16.5972 18.9686L17.6369 15.048C18.7572 14.8394 19.7692 14.2455 20.4976 13.3692C21.2259 12.4929 21.6248 11.3894 21.625 10.2498ZM2.87504 16.9652V3.53734C6.26597 6.16891 9.64097 7.10922 11.5 7.44297V13.0623C9.64097 13.3923 6.26597 14.3327 2.87504 16.9652ZM14.5366 17.9561L13.75 17.5717V15.1248H15.2875L14.5366 17.9561ZM16.75 12.8748H13.75V7.62484H16.75C17.4462 7.62484 18.1139 7.9014 18.6062 8.39369C19.0985 8.88597 19.375 9.55365 19.375 10.2498C19.375 10.946 19.0985 11.6137 18.6062 12.106C18.1139 12.5983 17.4462 12.8748 16.75 12.8748Z" fill="#DAA427"/>
</svg>
