<svg width="20" height="19" viewBox="0 0 20 19" fill="none" xmlns="http://www.w3.org/2000/svg">
<path d="M18.25 3.25H14.5V2.5C14.5 1.90326 14.2629 1.33097 13.841 0.90901C13.419 0.487053 12.8467 0.25 12.25 0.25H7.75C7.15326 0.25 6.58097 0.487053 6.15901 0.90901C5.73705 1.33097 5.5 1.90326 5.5 2.5V3.25H1.75C1.35218 3.25 0.970644 3.40804 0.68934 3.68934C0.408035 3.97064 0.25 4.35218 0.25 4.75V16.75C0.25 17.1478 0.408035 17.5294 0.68934 17.8107C0.970644 18.092 1.35218 18.25 1.75 18.25H18.25C18.6478 18.25 19.0294 18.092 19.3107 17.8107C19.592 17.5294 19.75 17.1478 19.75 16.75V4.75C19.75 4.35218 19.592 3.97064 19.3107 3.68934C19.0294 3.40804 18.6478 3.25 18.25 3.25ZM12.25 11.5H10.75V13C10.75 13.1989 10.671 13.3897 10.5303 13.5303C10.3897 13.671 10.1989 13.75 10 13.75C9.80109 13.75 9.61032 13.671 9.46967 13.5303C9.32902 13.3897 9.25 13.1989 9.25 13V11.5H7.75C7.55109 11.5 7.36032 11.421 7.21967 11.2803C7.07902 11.1397 7 10.9489 7 10.75C7 10.5511 7.07902 10.3603 7.21967 10.2197C7.36032 10.079 7.55109 10 7.75 10H9.25V8.5C9.25 8.30109 9.32902 8.11032 9.46967 7.96967C9.61032 7.82902 9.80109 7.75 10 7.75C10.1989 7.75 10.3897 7.82902 10.5303 7.96967C10.671 8.11032 10.75 8.30109 10.75 8.5V10H12.25C12.4489 10 12.6397 10.079 12.7803 10.2197C12.921 10.3603 13 10.5511 13 10.75C13 10.9489 12.921 11.1397 12.7803 11.2803C12.6397 11.421 12.4489 11.5 12.25 11.5ZM13 3.25H7V2.5C7 2.30109 7.07902 2.11032 7.21967 1.96967C7.36032 1.82902 7.55109 1.75 7.75 1.75H12.25C12.4489 1.75 12.6397 1.82902 12.7803 1.96967C12.921 2.11032 13 2.30109 13 2.5V3.25Z" fill="#B4B4B4"/>
</svg>
