<svg width="28" height="28" viewBox="0 0 28 28" fill="none" xmlns="http://www.w3.org/2000/svg">
<circle cx="14" cy="14" r="14" fill="#262A56"/>
<g clip-path="url(#clip0_261_476)">
<path d="M14.0081 5.36761C14.5978 5.36761 15.0761 5.51402 15.4644 5.7354C16.2124 5.93894 17.097 6.25674 17.96 6.7388C17.3127 5.13551 15.7413 4 13.8966 4H13.4291C11.588 4 10.0166 5.13194 9.36938 6.72808C11.4298 5.57472 13.6305 5.3819 13.7564 5.37118C13.8499 5.36404 13.9326 5.36404 14.0117 5.36404L14.0081 5.36761Z" fill="white"/>
<path d="M13.5586 22.036C11.2536 21.9931 9.24351 20.4291 8.56029 18.1617L8.2942 17.0619L8.42365 15.1658C8.42365 15.1658 8.17553 11.4986 14.7129 10.131C14.8747 10.0953 15.0329 10.0381 15.1695 9.94887C15.5867 9.6882 16.2915 9.03475 16.0901 7.66356C16.0901 7.66356 15.7089 5.96387 13.8103 6.08884C13.8103 6.08884 9.85122 6.40307 7.75841 8.95262C7.75841 8.95262 5.47862 11.3415 6.11149 14.673C6.11149 14.673 6.49625 17.2083 7.84471 18.533C7.87708 18.5652 7.91303 18.5795 7.94899 18.5866C8.42005 19.9614 9.32262 21.0897 10.4733 21.8217V23.4822C10.4733 23.7678 10.707 23.9999 10.9947 23.9999H16.1584C16.4461 23.9999 16.6762 23.7678 16.6762 23.4822V21.9396C16.8596 21.8325 17.0394 21.7182 17.212 21.5932L16.7014 21.0826C15.7988 21.7075 14.7057 22.0574 13.5586 22.036Z" fill="white"/>
<path d="M16.7913 7.50648L16.8021 7.55647C17.0718 9.38829 16.0182 10.2631 15.5543 10.5524C15.3673 10.6702 15.1516 10.7559 14.925 10.8095C19.0747 12.4377 18.8949 15.1658 18.8949 15.1658L19.0423 17.319L18.8302 18.0582L19.4019 18.6259C19.4127 18.6045 19.4199 18.5795 19.4271 18.5581C19.4415 18.5509 19.4595 18.5474 19.4739 18.5331C20.8223 17.2083 21.2071 14.6731 21.2071 14.6731C21.8399 11.3415 19.5602 8.95265 19.5602 8.95265C18.7259 7.93498 17.5968 7.28152 16.5396 6.85303C16.6655 7.09227 16.7482 7.3208 16.7913 7.50648Z" fill="white"/>
<path d="M12.9113 15.5123C13.0299 15.3551 13.0012 15.1302 12.843 15.0123C12.6847 14.8945 12.4582 14.9231 12.3395 15.0802C12.1382 15.3444 11.8361 15.4944 11.5053 15.4944C11.1745 15.4944 10.8724 15.3444 10.671 15.0802C10.5524 14.9231 10.3258 14.8909 10.1676 15.0123C10.0094 15.1302 9.97703 15.3551 10.0993 15.5123C10.4373 15.955 10.9515 16.2086 11.5053 16.2086C12.059 16.2086 12.5769 15.955 12.9149 15.5123H12.9113Z" fill="white"/>
<path d="M17.2265 15.5123C17.3451 15.3551 17.3164 15.1302 17.1581 15.0123C16.9999 14.8945 16.7734 14.9231 16.6547 15.0802C16.4533 15.3444 16.1513 15.4944 15.8205 15.4944C15.4896 15.4944 15.1876 15.3444 14.9862 15.0802C14.8676 14.9231 14.641 14.8909 14.4828 15.0123C14.3246 15.1302 14.2922 15.3551 14.4145 15.5123C14.7525 15.955 15.2667 16.2086 15.8205 16.2086C16.3742 16.2086 16.892 15.955 17.2301 15.5123H17.2265Z" fill="white"/>
<path d="M13.6591 19.7436C14.1554 19.7436 14.6228 19.5829 14.9357 19.3008C15.0831 19.1687 15.0939 18.9437 14.9609 18.7973C14.8278 18.6509 14.6013 18.6402 14.4538 18.7723C14.274 18.9366 13.9756 19.033 13.6591 19.033C13.3427 19.033 13.0442 18.9366 12.8645 18.7723C12.717 18.6402 12.4905 18.6509 12.3574 18.7973C12.2244 18.9437 12.2352 19.1687 12.3826 19.3008C12.6954 19.5829 13.1629 19.7436 13.6591 19.7436Z" fill="white"/>
<path d="M17.0753 17.3262C17.0321 17.2798 16.9674 17.2977 16.9243 17.3405C15.378 18.7652 16.9998 20.3721 16.9998 20.3721L18.4777 21.8361C18.6647 22.0254 18.9703 22.0254 19.1573 21.8361L19.3875 21.6076L19.5744 21.7933L20.5741 20.8006L17.0753 17.3262Z" fill="white"/>
<path d="M22.7749 22.9822L21.0849 21.304L20.0852 22.3002L21.7717 23.9749C21.804 24.007 21.858 24.007 21.8903 23.9749L22.7749 23.1001C22.8073 23.0679 22.8073 23.0144 22.7749 22.9822Z" fill="white"/>
</g>
<defs>
<clipPath id="clip0_261_476">
<rect width="16.8" height="20" fill="white" transform="translate(6 4)"/>
</clipPath>
</defs>
</svg>
