<svg width="22" height="21" viewBox="0 0 22 21" fill="none" xmlns="http://www.w3.org/2000/svg">
<path d="M4.6716 21.0001C5.5866 21.0001 6.87191 20.6691 8.7966 19.5938C11.1371 18.2813 12.9474 17.0696 15.2752 14.7479C17.5196 12.5049 18.6118 11.0527 20.1403 8.27115C21.8672 5.13052 21.5728 3.48427 21.2438 2.78068C20.8519 1.93974 20.2735 1.43677 19.5258 0.937553C19.1012 0.65932 18.6517 0.420812 18.1833 0.225053C18.1364 0.204897 18.0928 0.185678 18.0539 0.168335C17.8219 0.0638034 17.4703 -0.0941654 17.025 0.0745846C16.7278 0.186147 16.4625 0.414428 16.0472 0.824585C15.1955 1.66458 14.0316 3.53537 13.6022 4.45412C13.3139 5.07333 13.1232 5.48208 13.1227 5.94052C13.1227 6.47724 13.3927 6.89115 13.7203 7.33787C13.7818 7.42177 13.8427 7.50193 13.9018 7.57974C14.2585 8.04849 14.3368 8.18396 14.2852 8.42583C14.1807 8.91193 13.4011 10.359 12.12 11.6372C10.8389 12.9155 9.43363 13.6458 8.94566 13.7499C8.69347 13.8038 8.55519 13.7222 8.07144 13.3529C8.00206 13.2999 7.93081 13.2451 7.85628 13.1902C7.3566 12.8185 6.96191 12.5555 6.43785 12.5555H6.43503C5.97894 12.5555 5.58847 12.7533 4.9416 13.0796C4.09785 13.5052 2.17081 14.6541 1.32566 15.5068C0.914564 15.9211 0.685347 16.1855 0.573315 16.4822C0.404564 16.929 0.563471 17.2791 0.667065 17.5135C0.684408 17.5524 0.703627 17.5951 0.723783 17.6424C0.921093 18.11 1.16101 18.5585 1.4405 18.9821C1.93878 19.7274 2.44363 20.3044 3.28644 20.6968C3.71922 20.9015 4.19286 21.0052 4.6716 21.0001Z" fill="#10B981"/>
</svg>
