<svg width="105" height="104" viewBox="0 0 105 104" fill="none" xmlns="http://www.w3.org/2000/svg">
<path fill-rule="evenodd" clip-rule="evenodd" d="M52.5202 6.52734C64.4451 6.74284 75.8089 11.6313 84.1659 20.1408C92.523 28.6502 97.2054 40.1004 97.2054 52.0273C97.2054 63.9543 92.523 75.4045 84.1659 83.9139C75.8089 92.4234 64.4451 97.3119 52.5202 97.5273C40.5952 97.3119 29.2314 92.4234 20.8744 83.9139C12.5173 75.4045 7.83496 63.9543 7.83496 52.0273C7.83496 40.1004 12.5173 28.6502 20.8744 20.1408C29.2314 11.6313 40.5952 6.74284 52.5202 6.52734ZM43.071 66.8077L31.9282 55.655C31.0161 54.7397 30.5039 53.5002 30.5039 52.2081C30.5039 50.916 31.0161 49.6765 31.9282 48.7612C32.8449 47.8501 34.0849 47.3386 35.3775 47.3386C36.67 47.3386 37.9101 47.8501 38.8268 48.7612L46.6764 56.6207L66.2135 37.0835C67.1288 36.1714 68.3682 35.6593 69.6604 35.6593C70.9525 35.6593 72.192 36.1714 73.1072 37.0835C74.0181 37.9994 74.5294 39.2387 74.5294 40.5304C74.5294 41.8221 74.0181 43.0614 73.1072 43.9773L50.1183 66.9662C49.6516 67.4305 49.0959 67.7957 48.4846 68.04C47.8734 68.2843 47.219 68.4026 46.5609 68.3878C45.9028 68.373 45.2544 68.2254 44.6547 67.9539C44.055 67.6824 43.5163 67.2925 43.071 66.8077Z" fill="#FFB727"/>
</svg>
