<svg width="20" height="18" viewBox="0 0 20 18" fill="none" xmlns="http://www.w3.org/2000/svg">
<path d="M19.7209 5.79469L18.3766 1.0875C18.2861 0.775232 18.0971 0.500591 17.8378 0.304588C17.5784 0.108585 17.2626 0.00173713 16.9375 0H3.0625C2.73741 0.00173713 2.4216 0.108585 2.16223 0.304588C1.90287 0.500591 1.71386 0.775232 1.62344 1.0875L0.279062 5.79469C0.259843 5.86143 0.250061 5.93054 0.25 6V7.5C0.25 8.08217 0.385544 8.65634 0.645898 9.17705C0.906252 9.69776 1.28426 10.1507 1.75 10.5V17.25C1.75 17.4489 1.82902 17.6397 1.96967 17.7803C2.11032 17.921 2.30109 18 2.5 18H17.5C17.6989 18 17.8897 17.921 18.0303 17.7803C18.171 17.6397 18.25 17.4489 18.25 17.25V10.5C18.7157 10.1507 19.0937 9.69776 19.3541 9.17705C19.6145 8.65634 19.75 8.08217 19.75 7.5V6C19.7499 5.93054 19.7402 5.86143 19.7209 5.79469ZM6.25 7.5C6.24986 7.88691 6.14996 8.26725 5.95993 8.60428C5.7699 8.94131 5.49617 9.22364 5.16518 9.42401C4.83419 9.62437 4.45713 9.736 4.07041 9.74811C3.68368 9.76022 3.30037 9.67239 2.9575 9.49312C2.90533 9.45251 2.84794 9.41909 2.78688 9.39375C2.46913 9.19034 2.20764 8.91029 2.02645 8.57937C1.84527 8.24845 1.7502 7.87728 1.75 7.5V6.75H6.25V7.5ZM12.25 7.5C12.25 8.09674 12.0129 8.66903 11.591 9.09099C11.169 9.51295 10.5967 9.75 10 9.75C9.40326 9.75 8.83097 9.51295 8.40901 9.09099C7.98705 8.66903 7.75 8.09674 7.75 7.5V6.75H12.25V7.5ZM18.25 7.5C18.2497 7.87736 18.1545 8.24859 17.9731 8.57952C17.7918 8.91045 17.5301 9.19044 17.2122 9.39375C17.1519 9.41914 17.0952 9.45223 17.0434 9.49219C16.7006 9.67164 16.3173 9.75964 15.9305 9.74769C15.5437 9.73574 15.1666 9.62423 14.8355 9.42395C14.5044 9.22367 14.2305 8.94138 14.0404 8.60436C13.8502 8.26733 13.7502 7.88696 13.75 7.5V6.75H18.25V7.5Z" fill="white"/>
</svg>
