<svg width="23" height="23" viewBox="0 0 23 23" fill="none" xmlns="http://www.w3.org/2000/svg">
<g clip-path="url(#clip0_79_883)">
<path d="M18.0957 0H4.90547C2.19625 0 0 2.19625 0 4.90547V18.0957C0 20.8049 2.19625 23.0011 4.90547 23.0011H18.0957C20.8049 23.0011 23.0011 20.8049 23.0011 18.0957V4.90547C23.0011 2.19625 20.8049 0 18.0957 0Z" fill="#3B63F0"/>
<path fill-rule="evenodd" clip-rule="evenodd" d="M16.4478 13.2149L14.4018 12.6407C14.1329 12.5654 13.8432 12.64 13.6472 12.8351L13.1471 13.3332C12.9359 13.5434 12.6159 13.6109 12.3368 13.5005C11.3689 13.1179 9.33282 11.3483 8.81329 10.4634C8.663 10.2082 8.68794 9.88935 8.87203 9.65605L9.30887 9.10395C9.47989 8.88758 9.51582 8.59686 9.40282 8.34674L8.54226 6.44368C8.33602 5.98822 7.74014 5.85542 7.35082 6.17714C6.78002 6.64942 6.10241 7.36629 6.02007 8.16101C5.87475 9.56216 6.48959 11.3284 8.814 13.4492C11.4998 15.8992 13.6504 16.223 15.0509 15.8913C15.8453 15.7035 16.4799 14.9498 16.8804 14.3326C17.1535 13.9112 16.9378 13.3525 16.4478 13.2149Z" fill="white"/>
</g>
<defs>
<clipPath id="clip0_79_883">
<rect width="23" height="23" fill="white"/>
</clipPath>
</defs>
</svg>
