<svg width="28" height="28" viewBox="0 0 28 28" fill="none" xmlns="http://www.w3.org/2000/svg">
<circle cx="14" cy="14" r="13" fill="#262A56" stroke="white" stroke-width="2"/>
<path d="M20.2075 10.5855L17.4144 7.79297C17.3215 7.70009 17.2113 7.62641 17.0899 7.57614C16.9686 7.52587 16.8385 7.5 16.7072 7.5C16.5759 7.5 16.4458 7.52587 16.3245 7.57614C16.2031 7.62641 16.0929 7.70009 16 7.79297L8.29313 15.4998C8.19987 15.5924 8.12593 15.7025 8.0756 15.8239C8.02528 15.9452 7.99959 16.0754 8.00001 16.2067V18.9999C8.00001 19.2651 8.10536 19.5194 8.2929 19.707C8.48043 19.8945 8.73479 19.9999 9.00001 19.9999H19.5C19.6326 19.9999 19.7598 19.9472 19.8536 19.8534C19.9473 19.7596 20 19.6325 20 19.4999C20 19.3672 19.9473 19.2401 19.8536 19.1463C19.7598 19.0525 19.6326 18.9999 19.5 18.9999H13.2075L20.2075 11.9998C20.3004 11.907 20.3741 11.7967 20.4243 11.6754C20.4746 11.5541 20.5005 11.424 20.5005 11.2927C20.5005 11.1613 20.4746 11.0313 20.4243 10.9099C20.3741 10.7886 20.3004 10.6783 20.2075 10.5855ZM11.7931 18.9999H9.00001V16.2067L14.5 10.7067L17.2931 13.4998L11.7931 18.9999ZM18 12.793L15.2075 9.99985L16.7075 8.49985L19.5 11.293L18 12.793Z" fill="white"/>
</svg>
