<svg width="24" height="24" viewBox="0 0 24 24" fill="none" xmlns="http://www.w3.org/2000/svg">
<circle cx="12" cy="12" r="12" fill="#EA3546"/>
<path d="M11.8699 8.27197L6.26571 13.8761C6.05921 14.083 5.9287 14.3536 5.89537 14.644L5.67207 16.6047C5.65752 16.7426 5.67221 16.8819 5.71519 17.0138C5.75817 17.1456 5.82847 17.2668 5.9215 17.3696C6.01453 17.4724 6.12819 17.5544 6.25508 17.6103C6.38196 17.6662 6.5192 17.6947 6.65784 17.6939H6.77221L8.73285 17.4706C9.0221 17.4372 9.29213 17.3089 9.50076 17.1057L15.1049 11.4961L11.8699 8.27197Z" fill="white"/>
<path d="M17.0002 7.79812L15.5787 6.37666C15.4598 6.25728 15.3185 6.16255 15.1629 6.09791C15.0073 6.03327 14.8404 6 14.6719 6C14.5034 6 14.3366 6.03327 14.181 6.09791C14.0254 6.16255 13.884 6.25728 13.7651 6.37666L12.4471 7.69465L15.6822 10.9297L17.0002 9.61171C17.1196 9.4928 17.2143 9.35149 17.2789 9.19587C17.3436 9.04026 17.3768 8.87342 17.3768 8.70492C17.3768 8.53642 17.3436 8.36957 17.2789 8.21396C17.2143 8.05835 17.1196 7.91704 17.0002 7.79812Z" fill="white"/>
</svg>
