<svg width="31" height="31" viewBox="0 0 31 31" fill="none" xmlns="http://www.w3.org/2000/svg">
<rect width="31" height="31" rx="4" fill="#F4F4F4" fill-opacity="0.79"/>
<path d="M15.499 16.0523L8.41944 10.7423H23.5805L16.501 16.0523L16.5007 16.0525C16.3816 16.1432 16.1942 16.2024 16.0002 16.2015L15.9997 16.2015C15.8058 16.2024 15.6184 16.1432 15.4992 16.0525L15.499 16.0523ZM23.7135 21.2577H8.28648L12.1541 16.4801L12.1541 16.4801C12.2916 16.31 12.2656 16.0607 12.0952 15.9228L12.0952 15.9228C11.9252 15.7853 11.6758 15.8113 11.5382 15.9814C11.5382 15.9814 11.5382 15.9815 11.5382 15.9815L7.7423 20.6705V11.225L15.0238 16.6861L15.0239 16.6862C15.3107 16.8998 15.6583 16.9929 15.9998 16.9938L16 16.9938C16.341 16.9931 16.6889 16.9 16.9759 16.6862L16.976 16.6861L24.2575 11.225V20.6705L20.4617 15.9815C20.3241 15.8114 20.0746 15.7852 19.9047 15.9228C19.7344 16.0604 19.7083 16.3101 19.8459 16.4801L19.8847 16.4486L19.8459 16.4801L23.7135 21.2577ZM24.0769 9.95H7.9231C7.38776 9.95 6.95 10.3878 6.95 10.9231V21.0769C6.95 21.6122 7.38775 22.05 7.9231 22.05H24.0769C24.6122 22.05 25.05 21.6122 25.05 21.0769V10.9231C25.05 10.3878 24.6122 9.95 24.0769 9.95Z" fill="#FE9C0F" stroke="#FE9C0F" stroke-width="0.1"/>
</svg>
