<svg width="46" height="46" viewBox="0 0 46 46" fill="none" xmlns="http://www.w3.org/2000/svg">
<rect width="46" height="46" rx="8" fill="#F8FAFC"/>
<path d="M27.5625 13C25.6791 13 24.0075 13.7434 22.875 15.0213C21.7425 13.7434 20.0709 13 18.1875 13C16.5471 13.002 14.9744 13.6545 13.8145 14.8145C12.6545 15.9744 12.002 17.5471 12 19.1875C12 25.9694 21.9197 31.3881 22.3416 31.6159C22.5055 31.7042 22.6888 31.7504 22.875 31.7504C23.0612 31.7504 23.2445 31.7042 23.4084 31.6159C23.8303 31.3881 33.75 25.9694 33.75 19.1875C33.748 17.5471 33.0955 15.9744 31.9355 14.8145C30.7756 13.6545 29.2029 13.002 27.5625 13ZM27.0478 26.3463C25.7421 27.4542 24.3464 28.4514 22.875 29.3275C21.4036 28.4514 20.0079 27.4542 18.7022 26.3463C16.6706 24.6034 14.25 21.9456 14.25 19.1875C14.25 18.1432 14.6648 17.1417 15.4033 16.4033C16.1417 15.6648 17.1432 15.25 18.1875 15.25C19.8562 15.25 21.2531 16.1313 21.8334 17.5506C21.9179 17.7575 22.0621 17.9346 22.2476 18.0592C22.4331 18.1839 22.6515 18.2505 22.875 18.2505C23.0985 18.2505 23.3169 18.1839 23.5024 18.0592C23.6879 17.9346 23.8321 17.7575 23.9166 17.5506C24.4969 16.1313 25.8938 15.25 27.5625 15.25C28.6068 15.25 29.6083 15.6648 30.3467 16.4033C31.0852 17.1417 31.5 18.1432 31.5 19.1875C31.5 21.9456 29.0794 24.6034 27.0478 26.3463Z" fill="#5AD4FF"/>
</svg>
