<svg width="18" height="18" viewBox="0 0 18 18" fill="none" xmlns="http://www.w3.org/2000/svg">
<path d="M16.7586 5.26797L12.732 1.24141C12.4969 1.0077 12.1792 0.876053 11.8477 0.875H6.15234C5.82083 0.876053 5.50309 1.0077 5.26797 1.24141L1.24141 5.26797C1.0077 5.50309 0.876053 5.82083 0.875 6.15234V11.8477C0.876053 12.1792 1.0077 12.4969 1.24141 12.732L5.26797 16.7586C5.50309 16.9923 5.82083 17.1239 6.15234 17.125H11.8477C12.1792 17.1239 12.4969 16.9923 12.732 16.7586L16.7586 12.732C16.9923 12.4969 17.1239 12.1792 17.125 11.8477V6.15234C17.1239 5.82083 16.9923 5.50309 16.7586 5.26797ZM8.375 5.25C8.375 5.08424 8.44085 4.92527 8.55806 4.80806C8.67527 4.69085 8.83424 4.625 9 4.625C9.16576 4.625 9.32473 4.69085 9.44194 4.80806C9.55915 4.92527 9.625 5.08424 9.625 5.25V9.625C9.625 9.79076 9.55915 9.94973 9.44194 10.0669C9.32473 10.1842 9.16576 10.25 9 10.25C8.83424 10.25 8.67527 10.1842 8.55806 10.0669C8.44085 9.94973 8.375 9.79076 8.375 9.625V5.25ZM9 13.375C8.81458 13.375 8.63332 13.32 8.47915 13.217C8.32498 13.114 8.20482 12.9676 8.13386 12.7963C8.06291 12.625 8.04434 12.4365 8.08051 12.2546C8.11669 12.0727 8.20598 11.9057 8.33709 11.7746C8.4682 11.6435 8.63525 11.5542 8.8171 11.518C8.99896 11.4818 9.18746 11.5004 9.35876 11.5714C9.53007 11.6423 9.67649 11.7625 9.7795 11.9167C9.88252 12.0708 9.9375 12.2521 9.9375 12.4375C9.9375 12.6861 9.83873 12.9246 9.66291 13.1004C9.4871 13.2762 9.24864 13.375 9 13.375Z" fill="#5AD4FF"/>
</svg>
