<svg width="43" height="40" viewBox="0 0 43 40" fill="none" xmlns="http://www.w3.org/2000/svg">
<path d="M11.1972 31.6464C8.32891 31.6464 5.7775 29.8098 4.85103 27.0757L4.78837 26.8697C4.56987 26.1456 4.47834 25.5367 4.47834 24.9275V12.7114L0.131728 27.2207C-0.427305 29.3548 0.846594 31.5673 2.98398 32.1568L30.6892 39.5765C31.035 39.6661 31.3808 39.709 31.7213 39.709C33.5057 39.709 35.1362 38.5247 35.5932 36.7794L37.2073 31.6464H11.1972Z" fill="#94A1B3"/>
<path d="M16.1244 12.8333C18.1007 12.8333 19.7076 11.2261 19.7076 9.24978C19.7076 7.27348 18.1007 5.66626 16.1244 5.66626C14.1481 5.66626 12.5409 7.27348 12.5409 9.24978C12.5409 11.2261 14.1481 12.8333 16.1244 12.8333Z" fill="#94A1B3"/>
<path d="M38.5205 0.29126H11.6449C9.17616 0.29126 7.16574 2.30168 7.16574 4.77074V24.4793C7.16574 26.9483 9.17616 28.9587 11.6449 28.9587H38.5205C40.9895 28.9587 42.9999 26.9483 42.9999 24.4793V4.77074C42.9999 2.30168 40.9895 0.29126 38.5205 0.29126ZM11.6449 3.87478H38.5205C39.0152 3.87478 39.4164 4.27601 39.4164 4.77074V17.49L33.7565 10.8857C33.1562 10.1816 32.2871 9.80531 31.3538 9.78399C30.4256 9.78924 29.5549 10.2013 28.9601 10.9145L22.3056 18.9017L20.1377 16.7391C18.9123 15.5137 16.918 15.5137 15.6943 16.7391L10.7493 21.6825V4.77074C10.7493 4.27601 11.1505 3.87478 11.6449 3.87478Z" fill="#94A1B3"/>
</svg>
