<svg width="26" height="26" viewBox="0 0 26 26" fill="none" xmlns="http://www.w3.org/2000/svg">
<path d="M13.2254 10.0524C11.4514 10.0524 10.0036 11.5002 10.0036 13.2742C10.0036 15.0483 11.4514 16.4961 13.2254 16.4961C14.9995 16.4961 16.4473 15.0483 16.4473 13.2742C16.4473 11.5002 14.9995 10.0524 13.2254 10.0524ZM22.8886 13.2742C22.8886 11.94 22.9006 10.618 22.8257 9.28619C22.7508 7.73932 22.3979 6.36647 21.2668 5.23531C20.1332 4.10174 18.7628 3.75128 17.2159 3.67635C15.8817 3.60143 14.5596 3.61351 13.2278 3.61351C11.8937 3.61351 10.5716 3.60143 9.23981 3.67635C7.69293 3.75128 6.32008 4.10416 5.18893 5.23531C4.05536 6.36888 3.70489 7.73932 3.62997 9.28619C3.55504 10.6204 3.56713 11.9425 3.56713 13.2742C3.56713 14.606 3.55504 15.9305 3.62997 17.2623C3.70489 18.8091 4.05777 20.182 5.18893 21.3131C6.3225 22.4467 7.69293 22.7972 9.23981 22.8721C10.574 22.947 11.8961 22.9349 13.2278 22.9349C14.562 22.9349 15.8841 22.947 17.2159 22.8721C18.7628 22.7972 20.1356 22.4443 21.2668 21.3131C22.4003 20.1796 22.7508 18.8091 22.8257 17.2623C22.9031 15.9305 22.8886 14.6084 22.8886 13.2742ZM13.2254 18.2315C10.4821 18.2315 8.26818 16.0175 8.26818 13.2742C8.26818 10.5309 10.4821 8.31698 13.2254 8.31698C15.9687 8.31698 18.1827 10.5309 18.1827 13.2742C18.1827 16.0175 15.9687 18.2315 13.2254 18.2315ZM18.3857 9.27169C17.7452 9.27169 17.228 8.75445 17.228 8.11395C17.228 7.47345 17.7452 6.95621 18.3857 6.95621C19.0262 6.95621 19.5434 7.47345 19.5434 8.11395C19.5436 8.26604 19.5138 8.41667 19.4557 8.55722C19.3976 8.69777 19.3123 8.82548 19.2048 8.93302C19.0972 9.04057 18.9695 9.12584 18.829 9.18395C18.6884 9.24207 18.5378 9.27188 18.3857 9.27169Z" fill="white"/>
</svg>
