<svg width="26" height="26" viewBox="0 0 26 26" fill="none" xmlns="http://www.w3.org/2000/svg">
<path opacity="0.2" d="M22.75 13C22.75 14.9284 22.1782 16.8134 21.1068 18.4168C20.0355 20.0202 18.5127 21.2699 16.7312 22.0078C14.9496 22.7458 12.9892 22.9389 11.0979 22.5627C9.20656 22.1864 7.46928 21.2579 6.10571 19.8943C4.74215 18.5307 3.81355 16.7934 3.43735 14.9021C3.06114 13.0108 3.25422 11.0504 3.99218 9.26884C4.73013 7.48726 5.97982 5.96451 7.5832 4.89317C9.18657 3.82183 11.0716 3.25 13 3.25C15.5859 3.25 18.0658 4.27723 19.8943 6.10571C21.7228 7.93419 22.75 10.4141 22.75 13Z" fill="#262A56"/>
<path d="M14.625 17.875C14.625 18.0905 14.5394 18.2972 14.387 18.4495C14.2347 18.6019 14.028 18.6875 13.8125 18.6875C13.3815 18.6875 12.9682 18.5163 12.6635 18.2115C12.3587 17.9068 12.1875 17.4935 12.1875 17.0625V13C11.972 13 11.7654 12.9144 11.613 12.762C11.4606 12.6097 11.375 12.403 11.375 12.1875C11.375 11.972 11.4606 11.7654 11.613 11.613C11.7654 11.4606 11.972 11.375 12.1875 11.375C12.6185 11.375 13.0318 11.5462 13.3366 11.851C13.6413 12.1557 13.8125 12.569 13.8125 13V17.0625C14.028 17.0625 14.2347 17.1481 14.387 17.3005C14.5394 17.4528 14.625 17.6595 14.625 17.875ZM23.5625 13C23.5625 15.0891 22.943 17.1312 21.7824 18.8682C20.6218 20.6052 18.9721 21.959 17.0421 22.7585C15.1121 23.5579 12.9883 23.7671 10.9394 23.3595C8.89044 22.952 7.00838 21.946 5.53119 20.4688C4.054 18.9916 3.04802 17.1096 2.64046 15.0606C2.2329 13.0117 2.44208 10.888 3.24153 8.95791C4.04098 7.02786 5.3948 5.37822 7.13179 4.2176C8.86879 3.05698 10.9109 2.4375 13 2.4375C15.8004 2.44046 18.4853 3.55424 20.4656 5.53445C22.4458 7.51466 23.5595 10.1996 23.5625 13ZM21.9375 13C21.9375 11.2323 21.4133 9.50436 20.4313 8.03459C19.4492 6.56483 18.0534 5.41929 16.4202 4.74283C14.7871 4.06637 12.9901 3.88938 11.2564 4.23423C9.52268 4.57909 7.93017 5.4303 6.68024 6.68023C5.43031 7.93017 4.57909 9.52268 4.23424 11.2564C3.88938 12.9901 4.06637 14.7871 4.74283 16.4202C5.41929 18.0533 6.56483 19.4492 8.0346 20.4313C9.50436 21.4133 11.2323 21.9375 13 21.9375C15.3696 21.9348 17.6413 20.9923 19.3168 19.3168C20.9923 17.6413 21.9348 15.3695 21.9375 13ZM12.5938 9.75C12.8348 9.75 13.0704 9.67852 13.2709 9.5446C13.4713 9.41069 13.6275 9.22034 13.7197 8.99765C13.812 8.77495 13.8361 8.5299 13.7891 8.29348C13.7421 8.05707 13.626 7.83991 13.4555 7.66946C13.2851 7.49902 13.0679 7.38294 12.8315 7.33592C12.5951 7.28889 12.3501 7.31303 12.1274 7.40527C11.9047 7.49752 11.7143 7.65373 11.5804 7.85415C11.4465 8.05457 11.375 8.2902 11.375 8.53125C11.375 8.85448 11.5034 9.16448 11.732 9.39304C11.9605 9.6216 12.2705 9.75 12.5938 9.75Z" fill="#262A56"/>
</svg>
