<svg width="24" height="25" viewBox="0 0 24 25" fill="none" xmlns="http://www.w3.org/2000/svg">
<path d="M15.24 22.77H15.11C10.67 22.77 8.53002 21.02 8.16002 17.1C8.12002 16.69 8.42002 16.32 8.84002 16.28C9.25002 16.24 9.62002 16.55 9.66002 16.96C9.95002 20.1 11.43 21.27 15.12 21.27H15.25C19.32 21.27 20.76 19.83 20.76 15.76V9.23998C20.76 5.16998 19.32 3.72998 15.25 3.72998H15.12C11.41 3.72998 9.93002 4.91998 9.66002 8.11998C9.61002 8.52998 9.27002 8.83998 8.84002 8.79998C8.42002 8.76998 8.12001 8.39998 8.15001 7.98998C8.49001 4.00998 10.64 2.22998 15.11 2.22998H15.24C20.15 2.22998 22.25 4.32998 22.25 9.23998V15.76C22.25 20.67 20.15 22.77 15.24 22.77Z" fill="#FF4D4D"/>
<path d="M14.88 13.25H2C1.59 13.25 1.25 12.91 1.25 12.5C1.25 12.09 1.59 11.75 2 11.75H14.88C15.29 11.75 15.63 12.09 15.63 12.5C15.63 12.91 15.3 13.25 14.88 13.25Z" fill="#FF4D4D"/>
<path d="M12.6501 16.5998C12.4601 16.5998 12.2701 16.5298 12.1201 16.3798C11.8301 16.0898 11.8301 15.6098 12.1201 15.3198L14.9401 12.4998L12.1201 9.67984C11.8301 9.38984 11.8301 8.90984 12.1201 8.61984C12.4101 8.32984 12.8901 8.32984 13.1801 8.61984L16.5301 11.9698C16.8201 12.2598 16.8201 12.7398 16.5301 13.0298L13.1801 16.3798C13.0301 16.5298 12.8401 16.5998 12.6501 16.5998Z" fill="#FF4D4D"/>
</svg>
