<svg width="24" height="25" viewBox="0 0 24 25" fill="none" xmlns="http://www.w3.org/2000/svg">
<rect width="24" height="25" fill="#F5F5F5"/>
<rect id="Rectangle 39951" x="-4822" y="-881" width="6552" height="2539" fill="#D9D9D9"/>
<g id="&#216;&#165;&#216;&#185;&#216;&#175;&#216;&#167;&#216;&#175;&#216;&#170; &#216;&#167;&#217;&#132;&#216;&#173;&#216;&#179;&#216;&#167;&#216;&#168;" clip-path="url(#clip0_0_1)">
<rect width="375" height="812" transform="translate(-323 -195)" fill="#191919"/>
<g id="Frame 1171276211">
<g id="Frame 1171275271">
<path d="M-307 -9C-307 -13.4183 -303.418 -17 -299 -17H28C32.4183 -17 36 -13.4183 36 -9V34C36 38.4183 32.4183 42 28 42H-299C-303.418 42 -307 38.4183 -307 34V-9Z" fill="#242424"/>
<g id="Frame 1171275259">
<g id="Frame 1171275257">
<g id="language-square">
<g id="vuesax/linear/language-square">
<g id="language-square_2">
<g id="Group">
<path id="Vector" d="M16.9897 9.45898H7.00977" stroke="white" stroke-width="1.5" stroke-linecap="round" stroke-linejoin="round"/>
<path id="Vector_2" d="M12 7.7793V9.45929" stroke="white" stroke-width="1.5" stroke-linecap="round" stroke-linejoin="round"/>
<path id="Vector_3" d="M14.5 9.43945C14.5 13.7395 11.14 17.2194 7 17.2194" stroke="white" stroke-width="1.5" stroke-linecap="round" stroke-linejoin="round"/>
<path id="Vector_4" d="M17.0002 17.22C15.2002 17.22 13.6002 16.26 12.4502 14.75" stroke="white" stroke-width="1.5" stroke-linecap="round" stroke-linejoin="round"/>
</g>
<path id="Vector_5" d="M9 22.5H15C20 22.5 22 20.5 22 15.5V9.5C22 4.5 20 2.5 15 2.5H9C4 2.5 2 4.5 2 9.5V15.5C2 20.5 4 22.5 9 22.5Z" stroke="white" stroke-width="1.5" stroke-linecap="round" stroke-linejoin="round"/>
</g>
</g>
</g>
</g>
</g>
</g>
</g>
</g>
<defs>
<clipPath id="clip0_0_1">
<rect width="375" height="812" fill="white" transform="translate(-323 -195)"/>
</clipPath>
</defs>
</svg>
