<svg width="26" height="26" viewBox="0 0 26 26" fill="none" xmlns="http://www.w3.org/2000/svg">
<path opacity="0.2" d="M22.75 18.6875H14.625L18.6875 10.5625L22.75 18.6875ZM9.75001 12.9553C10.7737 12.0416 11.5924 10.9217 12.1526 9.66912C12.7127 8.41653 13.0015 7.05962 13 5.6875H6.50001C6.49851 7.05962 6.78731 8.41653 7.34744 9.66912C7.90757 10.9217 8.72635 12.0416 9.75001 12.9553Z" fill="#262A56"/>
<path d="M25.1012 21.5739L19.4137 10.1989C19.3462 10.064 19.2425 9.95049 19.1141 9.87118C18.9858 9.79186 18.8379 9.74985 18.687 9.74985C18.5361 9.74985 18.3882 9.79186 18.2599 9.87118C18.1315 9.95049 18.0278 10.064 17.9603 10.1989L15.7554 14.6098C14.0271 14.5126 12.3642 13.9156 10.9688 12.8913C12.606 11.1429 13.5981 8.88835 13.781 6.5H16.25C16.4655 6.5 16.6722 6.4144 16.8245 6.26202C16.9769 6.10965 17.0625 5.90299 17.0625 5.6875C17.0625 5.47201 16.9769 5.26535 16.8245 5.11298C16.6722 4.9606 16.4655 4.875 16.25 4.875H10.5625V3.25C10.5625 3.03451 10.4769 2.82785 10.3245 2.67548C10.1722 2.5231 9.96549 2.4375 9.75 2.4375C9.53451 2.4375 9.32785 2.5231 9.17548 2.67548C9.0231 2.82785 8.9375 3.03451 8.9375 3.25V4.875H3.25C3.03451 4.875 2.82785 4.9606 2.67548 5.11298C2.5231 5.26535 2.4375 5.47201 2.4375 5.6875C2.4375 5.90299 2.5231 6.10965 2.67548 6.26202C2.82785 6.4144 3.03451 6.5 3.25 6.5H12.1499C11.9694 8.49141 11.1241 10.3642 9.75 11.8168C8.89399 10.9136 8.23665 9.84107 7.82031 8.66836C7.78608 8.56604 7.73181 8.47157 7.66067 8.39045C7.58953 8.30933 7.50295 8.24319 7.40598 8.1959C7.30901 8.1486 7.20359 8.12109 7.09587 8.11497C6.98815 8.10885 6.88029 8.12425 6.77858 8.16027C6.67688 8.19628 6.58337 8.25219 6.5035 8.32473C6.42364 8.39728 6.35902 8.485 6.31342 8.58278C6.26783 8.68057 6.24216 8.78645 6.23792 8.89426C6.23369 9.00207 6.25097 9.10964 6.28875 9.2107C6.77348 10.5817 7.53703 11.8373 8.53125 12.8984C7.00046 14.0233 5.14965 14.6284 3.25 14.625C3.03451 14.625 2.82785 14.7106 2.67548 14.863C2.5231 15.0154 2.4375 15.222 2.4375 15.4375C2.4375 15.653 2.5231 15.8597 2.67548 16.012C2.82785 16.1644 3.03451 16.25 3.25 16.25C5.60685 16.2526 7.89614 15.4628 9.75 14.0075C11.2629 15.1896 13.0688 15.9377 14.9744 16.1718L12.2728 21.5739C12.2251 21.6693 12.1966 21.7732 12.189 21.8797C12.1814 21.9861 12.1948 22.093 12.2286 22.1942C12.2966 22.3987 12.4432 22.5678 12.6359 22.6642C12.8286 22.7606 13.0518 22.7765 13.2562 22.7084C13.4607 22.6404 13.6297 22.4938 13.7262 22.3011L15.1267 19.5H22.2473L23.6478 22.3011C23.7154 22.4361 23.8192 22.5496 23.9476 22.6289C24.0761 22.7082 24.2241 22.7501 24.375 22.75C24.5135 22.7499 24.6496 22.7145 24.7706 22.647C24.8915 22.5795 24.9932 22.4822 25.0659 22.3644C25.1387 22.2465 25.1801 22.1121 25.1863 21.9737C25.1924 21.8354 25.1631 21.6978 25.1012 21.5739ZM15.9392 17.875L18.6875 12.3795L21.4348 17.875H15.9392Z" fill="#262A56"/>
</svg>
