<svg width="24" height="24" viewBox="0 0 24 24" fill="none" xmlns="http://www.w3.org/2000/svg">
<circle cx="12" cy="12" r="12" fill="#246BFD"/>
<g clip-path="url(#clip0_55_2747)">
<path d="M18.1681 13.2355C18.3722 11.0384 17.4339 9.04829 15.8775 7.78391C15.2708 7.29063 14.3636 7.71303 14.3636 8.49264C14.3636 8.77897 14.4997 9.04262 14.7208 9.22122C15.8236 10.1199 16.487 11.5374 16.3254 13.1022C16.1156 15.1406 14.4827 16.7905 12.4472 17.0173C9.7909 17.315 7.53429 15.2341 7.53429 12.6373C7.53429 11.2595 8.17215 10.0263 9.16721 9.21838C9.38834 9.03978 9.52158 8.77613 9.52158 8.49264C9.52158 7.72154 8.62857 7.28496 8.02757 7.7669C6.60443 8.91504 5.69158 10.6699 5.69158 12.6373C5.69158 16.2348 8.74764 19.135 12.4019 18.8713C15.4239 18.6587 17.8875 16.2519 18.1681 13.2355ZM11.9454 5C12.4557 5 12.8668 5.4139 12.8668 5.92135V10.1652C12.8668 10.6755 12.4529 11.0866 11.9454 11.0866C11.438 11.0866 11.0241 10.6727 11.0241 10.1652V5.92135C11.0241 5.4139 11.4352 5 11.9454 5Z" fill="white"/>
</g>
<defs>
<clipPath id="clip0_55_2747">
<rect width="13.888" height="13.888" fill="white" transform="matrix(-1 0 0 1 18.8877 5)"/>
</clipPath>
</defs>
</svg>
