<svg width="21" height="20" viewBox="0 0 21 20" fill="none" xmlns="http://www.w3.org/2000/svg">
<path d="M6.5 8.99991C6.5 8.7347 6.60536 8.48034 6.79289 8.29281C6.98043 8.10527 7.23478 7.99991 7.5 7.99991H13.5C13.7652 7.99991 14.0196 8.10527 14.2071 8.29281C14.3946 8.48034 14.5 8.7347 14.5 8.99991C14.5 9.26513 14.3946 9.51948 14.2071 9.70702C14.0196 9.89456 13.7652 9.99991 13.5 9.99991H7.5C7.23478 9.99991 6.98043 9.89456 6.79289 9.70702C6.60536 9.51948 6.5 9.26513 6.5 8.99991ZM7.5 11.9999C7.23478 11.9999 6.98043 12.1053 6.79289 12.2928C6.60536 12.4803 6.5 12.7347 6.5 12.9999C6.5 13.2651 6.60536 13.5195 6.79289 13.707C6.98043 13.8946 7.23478 13.9999 7.5 13.9999H11.5C11.7652 13.9999 12.0196 13.8946 12.2071 13.707C12.3946 13.5195 12.5 13.2651 12.5 12.9999C12.5 12.7347 12.3946 12.4803 12.2071 12.2928C12.0196 12.1053 11.7652 11.9999 11.5 11.9999H7.5ZM0.500001 9.99991C0.500503 7.80751 1.22148 5.67603 2.55199 3.93351C3.88249 2.19098 5.74877 0.933992 7.8636 0.355988C9.97844 -0.222016 12.2246 -0.0889992 14.2565 0.734567C16.2883 1.55813 17.9932 3.0266 19.1087 4.91398C20.2243 6.80136 20.6886 9.00303 20.4304 11.1802C20.1721 13.3573 19.2055 15.3892 17.6794 16.9633C16.1533 18.5373 14.1521 19.5661 11.984 19.8915C9.81588 20.2168 7.60092 19.8207 5.68 18.7639L1.792 19.9479C1.61858 20.0007 1.43407 20.0054 1.25819 19.9615C1.08231 19.9175 0.921685 19.8266 0.793496 19.6984C0.665308 19.5702 0.574377 19.4096 0.53043 19.2337C0.486484 19.0578 0.491175 18.8733 0.544001 18.6999L1.728 14.8059C0.92153 13.3325 0.499204 11.6796 0.500001 9.99991ZM10.5 1.99991C9.07988 1.99979 7.68532 2.3777 6.45956 3.09482C5.2338 3.81195 4.22102 4.84243 3.52526 6.08044C2.82949 7.31844 2.47581 8.71934 2.50054 10.1393C2.52528 11.5592 2.92754 12.9469 3.666 14.1599C3.73931 14.2804 3.78629 14.4151 3.80387 14.555C3.82145 14.6949 3.80923 14.837 3.768 14.9719L3.002 17.4899L5.516 16.7239C5.65132 16.6827 5.79384 16.6706 5.93416 16.6886C6.07448 16.7065 6.20939 16.754 6.33 16.8279C7.38436 17.4716 8.57347 17.8624 9.80414 17.9697C11.0348 18.077 12.2736 17.8978 13.4234 17.4461C14.5732 16.9945 15.6029 16.2828 16.4316 15.3666C17.2603 14.4505 17.8656 13.3549 18.2 12.1657C18.5344 10.9765 18.5889 9.726 18.3592 8.51221C18.1295 7.29842 17.6218 6.15433 16.8759 5.16959C16.13 4.18485 15.1662 3.38623 14.06 2.8363C12.9538 2.28638 11.7353 2.00011 10.5 1.99991Z" fill="white"/>
</svg>
