<svg width="24" height="29" viewBox="0 0 24 29" fill="none" xmlns="http://www.w3.org/2000/svg">
<path d="M22.2887 16.9683C20.5596 15.4535 19.3962 14.7294 18.5944 9.89558C17.86 5.46902 15.3291 4.26842 13.3343 3.81233C13.0694 3.75196 12.7971 3.55752 12.6794 3.31624C12.1675 2.2599 11.0868 1.43379 9.86585 1.63632C8.64495 1.83886 7.88832 2.97035 7.7484 4.13538C7.71536 4.40453 7.51985 4.67255 7.2886 4.81524C5.54584 5.8925 3.53946 7.84005 4.27451 12.2711C5.07358 17.1053 4.20628 18.1663 3.05894 20.1582C2.58354 20.9834 3.28642 21.9874 4.32867 21.8145L21.6274 18.9449C22.664 18.7729 23.0012 17.5929 22.2887 16.9683Z" stroke="#FFB727" stroke-width="2" stroke-linecap="round" stroke-linejoin="round"/>
<path d="M18.2888 20.2508L18.4896 21.4614C18.7027 22.7457 18.3604 24.0681 17.538 25.1376C16.7156 26.2072 15.4806 26.9363 14.1046 27.1645C12.7285 27.3928 11.3242 27.1015 10.2006 26.3548C9.07693 25.6081 8.32598 24.4671 8.11294 23.1828L7.91211 21.9722" stroke="#FFB727" stroke-width="2" stroke-linecap="round" stroke-linejoin="round"/>
</svg>
