<svg width="54" height="52" viewBox="0 0 54 52" fill="none" xmlns="http://www.w3.org/2000/svg">
<rect width="54" height="51.2" rx="25.6" fill="#FE9C0F"/>
<g clip-path="url(#clip0_702_135)">
<path d="M15.0671 16.9447L16.4809 19.4188C16.5286 19.5024 16.6085 19.5629 16.7018 19.5863L18.0209 19.9161L22.545 24.4402L23.0449 23.9405L18.4499 19.3457C18.4047 19.3003 18.348 19.2682 18.2859 19.2526L17.0185 18.9347L15.8147 16.8269L16.8468 15.7949L18.9554 16.9998L19.2735 18.2673C19.2889 18.3295 19.3212 18.3864 19.3664 18.4316L23.9613 23.0265L24.4611 22.5266L19.937 18.0025L19.6072 16.6842C19.5838 16.5907 19.5233 16.5107 19.4397 16.4629L16.9654 15.0491C16.8274 14.9706 16.6538 14.9939 16.5413 15.106L15.1276 16.5199C15.0138 16.6317 14.9891 16.8056 15.0671 16.9447Z" fill="white"/>
<path d="M20.6251 30.0171C20.5611 29.9107 20.4463 29.8457 20.3221 29.8457H18.2015C18.0774 29.8457 17.9624 29.9107 17.8986 30.0171L16.8382 31.7843C16.7709 31.8963 16.7709 32.0363 16.8382 32.1484L17.8986 33.9156C17.9624 34.0219 18.0774 34.087 18.2015 34.087H20.3221C20.4463 34.087 20.5611 34.0219 20.6251 33.9156L21.6854 32.1484C21.7527 32.0363 21.7527 31.8963 21.6854 31.7843L20.6251 30.0171ZM20.1222 33.3801H18.4015L17.5533 31.9664L18.4015 30.5525H20.1222L20.9705 31.9664L20.1222 33.3801Z" fill="white"/>
<path d="M31.986 23.4835C34.3204 23.4914 36.2193 21.6052 36.2271 19.2708C36.2283 18.9155 36.1847 18.5616 36.0973 18.2171C36.0502 18.0277 35.8584 17.9124 35.6689 17.9595C35.6067 17.975 35.55 18.0072 35.5046 18.0524L33.3045 20.2511L31.5588 19.6694L30.9766 17.9241L33.1768 15.7235C33.3148 15.5854 33.3146 15.3616 33.1765 15.2236C33.131 15.1781 33.0737 15.1458 33.011 15.1304C30.7472 14.5571 28.4474 15.9275 27.874 18.1912C27.787 18.5347 27.7435 18.8877 27.7446 19.242C27.7455 19.5203 27.7742 19.7978 27.8306 20.0702L20.0899 27.8108C19.8174 27.7545 19.54 27.7258 19.2619 27.7248C16.9193 27.7248 15.0204 29.6238 15.0204 31.9663C15.0204 34.3087 16.9193 36.2076 19.2619 36.2076C21.6042 36.2076 23.5032 34.3087 23.5032 31.9663C23.5023 31.688 23.4735 31.4106 23.4172 31.1381L25.2704 29.285L26.0808 30.0954C26.219 30.2334 26.4426 30.2334 26.5807 30.0954L26.7574 29.9186C26.9124 29.7646 27.1629 29.7646 27.3179 29.9186C27.4727 30.073 27.473 30.3237 27.3186 30.4786L27.3179 30.4793L27.1412 30.6559C27.0032 30.7939 27.0032 31.0177 27.1412 31.1557L31.3575 35.372C32.4665 36.4911 34.2727 36.4993 35.3918 35.3903C36.5108 34.2814 36.519 32.475 35.41 31.3561C35.404 31.3499 35.3979 31.3438 35.3918 31.3377L31.1755 27.1216C31.0375 26.9836 30.8137 26.9836 30.6758 27.1216L30.4991 27.2982C30.344 27.4523 30.0936 27.4523 29.9384 27.2982C29.7837 27.1438 29.7833 26.8931 29.9377 26.7384L29.9384 26.7377L30.1152 26.5609C30.2532 26.4229 30.2532 26.1991 30.1152 26.0612L29.3048 25.2507L31.1579 23.3976C31.4304 23.4538 31.7078 23.4826 31.986 23.4835ZM33.3747 35.5008C33.1179 35.5004 32.8633 35.454 32.623 35.3637L35.3834 32.6031C35.8 33.7112 35.2394 34.9471 34.1313 35.3637C33.8895 35.4546 33.6332 35.5011 33.3747 35.5008ZM29.3705 26.3146C28.9791 26.7815 29.0404 27.4774 29.5073 27.8686C29.9176 28.2125 30.5157 28.2122 30.9256 27.8676L34.8921 31.8376C34.9351 31.8808 34.9754 31.9263 35.0144 31.9725L31.9924 34.9945C31.946 34.9557 31.9005 34.9154 31.8573 34.8723L27.8877 30.9024C28.2791 30.4355 28.2178 29.7396 27.7509 29.3484C27.3406 29.0043 26.7424 29.0048 26.3325 29.3492L25.7671 28.7838L28.8049 25.7504L29.3705 26.3146ZM30.7978 22.7597L22.7797 30.7762C22.6917 30.864 22.6564 30.9915 22.6863 31.1121C23.1712 33.0164 22.0205 34.9532 20.1161 35.438C18.2118 35.9229 16.2749 34.7722 15.79 32.8678C15.3052 30.9635 16.4559 29.0266 18.3604 28.5417C18.9364 28.3951 19.54 28.3951 20.1161 28.5417C20.2366 28.5712 20.3638 28.5359 20.452 28.4485L28.4682 20.4318C28.556 20.344 28.5913 20.2165 28.5611 20.0961C28.0795 18.2141 29.2148 16.298 31.0968 15.8163C31.4525 15.7254 31.8204 15.6905 32.1868 15.7133L30.3223 17.5785C30.2276 17.673 30.1945 17.813 30.2368 17.94L30.9436 20.0608C30.9789 20.1662 31.0618 20.2491 31.1674 20.2841L33.2882 20.9911C33.415 21.0334 33.555 21.0004 33.6496 20.9059L35.5141 19.0414C35.5183 19.1089 35.5205 19.1756 35.5205 19.242C35.5304 21.1841 33.9641 22.7665 32.022 22.7766C31.7218 22.778 31.4225 22.7411 31.1317 22.6666C31.0112 22.6366 30.8837 22.6717 30.7959 22.7596L30.7978 22.7597Z" fill="white"/>
<path d="M30.7978 22.7597L22.7797 30.7762C22.6917 30.864 22.6564 30.9915 22.6863 31.1121C23.1712 33.0164 22.0205 34.9532 20.1161 35.438C18.2118 35.9229 16.2749 34.7722 15.79 32.8678C15.3052 30.9635 16.4559 29.0266 18.3604 28.5417C18.9364 28.3951 19.54 28.3951 20.1161 28.5417C20.2366 28.5712 20.3638 28.5359 20.452 28.4485L28.4682 20.4318C28.556 20.344 28.5913 20.2165 28.5611 20.0961C28.0795 18.2141 29.2148 16.298 31.0968 15.8163C31.4525 15.7254 31.8204 15.6905 32.1868 15.7133L30.3223 17.5785C30.2276 17.673 30.1945 17.813 30.2368 17.94L30.9436 20.0608C30.9789 20.1662 31.0618 20.2491 31.1674 20.2841L33.2882 20.9911C33.415 21.0334 33.555 21.0004 33.6496 20.9059L35.5141 19.0414C35.5183 19.1089 35.5205 19.1756 35.5205 19.242C35.5304 21.1841 33.9641 22.7665 32.022 22.7766C31.7218 22.778 31.4225 22.7411 31.1317 22.6666C31.0112 22.6366 30.8837 22.6717 30.7959 22.7596L30.7978 22.7597Z" fill="white"/>
<path d="M29.7617 21.966L21.9858 29.742L21.486 29.2421L29.262 21.4662L29.7617 21.966Z" fill="#FE9C0F"/>
<path d="M33.2966 32.7766L32.7967 33.2765L29.2623 29.7421L29.7621 29.2422L33.2966 32.7766Z" fill="white"/>
</g>
<defs>
<clipPath id="clip0_702_135">
<rect width="21.2" height="21.2" fill="white" transform="translate(15 15)"/>
</clipPath>
</defs>
</svg>
