<svg width="24" height="24" viewBox="0 0 24 24" fill="none" xmlns="http://www.w3.org/2000/svg">
<circle cx="12" cy="12" r="12" fill="#00A676"/>
<g clip-path="url(#clip0_55_2722)">
<path d="M12.0005 12.2487C13.8467 12.2487 15.3558 10.7396 15.3558 8.8934C15.3558 7.04724 13.8467 5.53809 12.0005 5.53809C10.1543 5.53809 8.6452 7.04724 8.6452 8.8934C8.6452 10.7396 10.1544 12.2487 12.0005 12.2487Z" fill="white"/>
<path d="M17.7588 14.9296C17.6708 14.7098 17.5536 14.5047 17.4218 14.3142C16.7478 13.3178 15.7075 12.6585 14.5353 12.4973C14.3888 12.4827 14.2277 12.512 14.1104 12.5999C13.495 13.0541 12.7625 13.2885 12.0005 13.2885C11.2386 13.2885 10.506 13.0541 9.89063 12.5999C9.7734 12.512 9.61223 12.468 9.46572 12.4973C8.29356 12.6585 7.23862 13.3178 6.57928 14.3142C6.44742 14.5047 6.33019 14.7245 6.2423 14.9296C6.19835 15.0175 6.21299 15.1201 6.25694 15.208C6.37416 15.4131 6.52067 15.6182 6.65254 15.7941C6.85766 16.0725 7.07745 16.3215 7.32654 16.556C7.53166 16.7611 7.76609 16.9516 8.00054 17.142C9.15804 18.0065 10.55 18.4607 11.9859 18.4607C13.4218 18.4607 14.8137 18.0065 15.9712 17.142C16.2057 16.9662 16.4401 16.7611 16.6452 16.556C16.8797 16.3215 17.1141 16.0724 17.3192 15.7941C17.4657 15.6036 17.5976 15.4131 17.7148 15.208C17.7881 15.1201 17.8027 15.0175 17.7588 14.9296Z" fill="white"/>
</g>
<defs>
<clipPath id="clip0_55_2722">
<rect width="12.9231" height="12.9231" fill="white" transform="translate(5.53809 5.53809)"/>
</clipPath>
</defs>
</svg>
