<svg width="24" height="24" viewBox="0 0 24 24" fill="none" xmlns="http://www.w3.org/2000/svg">
<circle cx="12" cy="12" r="12" fill="#1FD4AF"/>
<path fill-rule="evenodd" clip-rule="evenodd" d="M18.1656 10.1079C17.9753 9.91759 17.7613 9.72731 17.6899 9.46567C17.6186 9.20404 17.571 8.91862 17.5948 8.65698C17.6424 8.06236 17.4759 7.34881 17.0477 6.92068C16.5958 6.49255 15.9298 6.34984 15.3352 6.37363C15.0498 6.37363 14.7882 6.34984 14.5265 6.27849C14.2887 6.15956 14.0746 5.99307 13.8843 5.80279C13.3848 5.23195 12.6475 4.85139 11.8864 5.01788C11.5058 5.08924 11.1491 5.3033 10.8636 5.56494C10.602 5.80279 10.3404 6.20713 9.9598 6.30227C9.69817 6.37363 9.41275 6.4212 9.15111 6.39741C8.55649 6.34984 7.86672 6.51634 7.41481 6.94447C6.96289 7.39638 6.84397 8.06236 6.86775 8.68077C6.86775 8.96619 6.84397 9.22782 6.77261 9.48946C6.65369 9.72731 6.48719 9.94137 6.29691 10.1317C5.845 10.536 5.44065 11.1782 5.46444 11.7966C5.46444 11.9631 5.51201 12.1296 5.55958 12.2723C5.6785 12.6053 5.86878 12.9145 6.10663 13.1761C6.36827 13.4616 6.6299 13.6756 6.7964 14.0086C6.91532 14.2227 6.89154 14.5557 6.89154 14.7935C6.89154 15.1027 6.89154 15.3881 6.98668 15.6973C7.08182 16.0303 7.22453 16.3395 7.46238 16.5774C7.77158 16.8866 8.19971 17.0293 8.62784 17.0769C8.84191 17.1007 9.03219 17.1007 9.24625 17.1244C9.46032 17.1244 9.79331 17.1007 9.98359 17.2196C10.3879 17.4336 10.6734 17.8142 11.0539 18.0758C11.4345 18.3613 11.8626 18.5515 12.3383 18.5278C12.9805 18.4802 13.4562 18.0996 13.8843 17.6715C14.0746 17.4812 14.2887 17.3147 14.5265 17.1958C14.7882 17.1244 15.0736 17.0769 15.3352 17.1007C15.8823 17.1482 16.4769 17.0293 16.9288 16.6725C17.4759 16.2206 17.6661 15.5071 17.6186 14.8173C17.6186 14.5319 17.6424 14.2702 17.7137 14.0086C17.8326 13.7708 17.9991 13.5567 18.1894 13.3664C18.7602 12.8669 19.1408 12.1058 18.9505 11.3209C18.8554 10.9641 18.6651 10.6311 18.4035 10.3457C18.3321 10.2506 18.2608 10.1792 18.1656 10.1079ZM10.1263 14.5319C10.3641 14.5557 10.5306 14.3892 10.6734 14.2465C11.0301 13.8897 11.4107 13.5091 11.7675 13.1286L12.4334 12.4626C12.9091 11.9869 13.3611 11.5112 13.8368 11.0355C14.0984 10.7738 14.36 10.4884 14.6217 10.2506C14.8595 10.0127 15.1449 9.82245 15.0736 9.44189C15.026 9.18025 14.8119 8.96619 14.5503 8.91862C14.4076 8.89483 14.2649 8.91862 14.146 8.98997C14.0033 9.06133 13.9081 9.20404 13.7892 9.32296C13.2421 9.8938 12.6475 10.4646 12.0767 11.0355C11.5772 11.535 11.0539 12.0345 10.5544 12.5577C10.269 12.8431 9.98359 13.1286 9.69817 13.414L9.67438 13.4378C9.43653 13.6756 9.43653 14.08 9.67438 14.3416C9.81709 14.413 9.9598 14.5081 10.1263 14.5319ZM16.0488 13.8897C16.0488 14.6746 15.4066 15.3168 14.6217 15.3168C13.8368 15.3168 13.1946 14.6746 13.1946 13.8897C13.1946 13.1048 13.8368 12.4626 14.6217 12.4626C15.4066 12.4626 16.0488 13.1048 16.0488 13.8897ZM14.6217 14.3654C14.8833 14.3654 15.0974 14.1513 15.0974 13.8897C15.0974 13.628 14.8833 13.414 14.6217 13.414C14.36 13.414 14.146 13.628 14.146 13.8897C14.146 14.1513 14.36 14.3654 14.6217 14.3654ZM10.1025 11.0355C10.8874 11.0355 11.5296 10.3933 11.5296 9.60838C11.5296 8.82348 10.8874 8.18129 10.1025 8.18129C9.31761 8.18129 8.67541 8.82348 8.67541 9.60838C8.67541 10.3933 9.31761 11.0355 10.1025 11.0355Z" fill="white"/>
<path d="M10.5782 9.609C10.5782 9.87064 10.3641 10.0847 10.1025 10.0847C9.84083 10.0847 9.62677 9.87064 9.62677 9.609C9.62677 9.34737 9.84083 9.1333 10.1025 9.1333C10.3641 9.1333 10.5782 9.34737 10.5782 9.609Z" fill="white"/>
</svg>
