<svg width="31" height="31" viewBox="0 0 31 31" fill="none" xmlns="http://www.w3.org/2000/svg">
<rect width="31" height="31" rx="4" fill="#F4F4F4" fill-opacity="0.79"/>
<g clip-path="url(#clip0_76_618)">
<path d="M9.77436 19.1502C10.1429 18.7665 10.5873 18.5614 11.0584 18.5614C11.5257 18.5614 11.974 18.7627 12.3577 19.1464L13.5582 20.3431C13.657 20.2899 13.7557 20.2405 13.8507 20.1911C13.9875 20.1228 14.1166 20.0582 14.2268 19.9898C15.3513 19.2756 16.3733 18.3448 17.3534 17.1405C17.8283 16.5403 18.1474 16.035 18.3791 15.5221C18.0676 15.2372 17.7789 14.9409 17.4978 14.656C17.3914 14.5496 17.285 14.4394 17.1787 14.3331C16.3809 13.5353 16.3809 12.5019 17.1787 11.7041L18.2158 10.667C18.3336 10.5492 18.4551 10.4277 18.5691 10.3061C18.797 10.0706 19.0364 9.82741 19.2833 9.59947C19.6518 9.23477 20.0925 9.04102 20.556 9.04102C21.0195 9.04102 21.4677 9.23477 21.8477 9.59947C21.8515 9.60327 21.8515 9.60327 21.8552 9.60707L23.1469 10.9101C23.6332 11.3964 23.9105 11.9891 23.9713 12.6767C24.0625 13.786 23.7358 14.8193 23.485 15.4956C22.8696 17.1557 21.9502 18.6943 20.5788 20.3431C18.9148 22.33 16.9127 23.899 14.6257 25.0045C13.7519 25.4186 12.5856 25.9087 11.2826 25.9923C11.2028 25.9961 11.1192 25.9999 11.0432 25.9999C10.1657 25.9999 9.42864 25.6845 8.85119 25.0577C8.84739 25.0501 8.8398 25.0463 8.836 25.0387C8.63845 24.7994 8.41051 24.5828 8.17117 24.3511C8.00781 24.1953 7.84065 24.032 7.67729 23.861C7.30119 23.4697 7.10364 23.0138 7.10364 22.5465C7.10364 22.0755 7.30499 21.6234 7.68869 21.2435L9.77436 19.1502ZM8.4143 23.1506C8.4181 23.1506 8.4181 23.1544 8.4143 23.1506C8.56247 23.3101 8.71443 23.4545 8.87779 23.6141C9.12472 23.8496 9.37546 24.0965 9.611 24.3739C9.9947 24.7842 10.4468 24.9779 11.0394 24.9779C11.0964 24.9779 11.1572 24.9779 11.2142 24.9741C12.3425 24.9019 13.391 24.4613 14.1774 24.0851C16.3277 23.0442 18.2158 21.5664 19.7848 19.6935C21.0802 18.1321 21.9464 16.6884 22.5201 15.1384C22.8734 14.1925 23.0026 13.4555 22.9456 12.7603C22.9076 12.3158 22.7366 11.9473 22.4213 11.6319L21.1258 10.3365C20.9397 10.1617 20.7421 10.0668 20.5484 10.0668C20.309 10.0668 20.1153 10.2111 19.9937 10.3327C19.9899 10.3365 19.9861 10.3403 19.9823 10.3441C19.7506 10.5606 19.5302 10.7848 19.2985 11.0241C19.1807 11.1457 19.0592 11.2672 18.9376 11.3926L17.9005 12.4297C17.4978 12.8324 17.4978 13.2047 17.9005 13.6074C18.0106 13.7176 18.117 13.8278 18.2272 13.9342C18.5463 14.2609 18.8502 14.5648 19.1807 14.8611C19.1883 14.8687 19.1959 14.8725 19.1997 14.8801C19.5264 15.2068 19.4657 15.5259 19.3973 15.7425C19.3935 15.7539 19.3897 15.7653 19.3859 15.7767C19.1162 16.4301 18.7363 17.0456 18.1588 17.7788L18.155 17.7826C17.1065 19.0742 16.001 20.081 14.7815 20.8522C14.6257 20.951 14.4661 21.0307 14.3142 21.1067C14.1774 21.1751 14.0483 21.2397 13.9381 21.3081C13.9229 21.3157 13.9077 21.3271 13.8925 21.3347C13.7633 21.3992 13.6418 21.4296 13.5164 21.4296C13.2011 21.4296 13.0035 21.2321 12.9389 21.1675L11.6397 19.8682C11.5105 19.7391 11.3054 19.5833 11.066 19.5833C10.8305 19.5833 10.6367 19.7315 10.519 19.8606C10.5152 19.8644 10.5152 19.8644 10.5114 19.8682L8.4181 21.9615C8.0268 22.349 8.0268 22.7479 8.4143 23.1506Z" fill="#FE9C0F"/>
<path d="M14.2724 12.2821C13.2771 12.4492 12.3729 12.9203 11.6511 13.6421C10.9293 14.3639 10.462 15.2681 10.291 16.2634C10.2493 16.5142 10.0327 16.6889 9.78578 16.6889C9.75538 16.6889 9.72879 16.6851 9.6984 16.6813C9.41727 16.6357 9.23112 16.3698 9.27671 16.0887C9.48186 14.8844 10.0517 13.7865 10.9217 12.9165C11.7917 12.0465 12.8896 11.4767 14.0939 11.2715C14.375 11.2259 14.6371 11.4121 14.6865 11.6894C14.7359 11.9667 14.5536 12.2365 14.2724 12.2821Z" fill="#FE9C0F"/>
<path d="M6.02088 15.9402C6.35899 13.9571 7.29355 12.1526 8.72958 10.7165C10.1656 9.28049 11.9701 8.34593 13.9532 8.00782C14.2306 7.95843 14.4927 8.14838 14.5421 8.42571C14.5877 8.70684 14.4015 8.96897 14.1204 9.01836C12.3501 9.31848 10.7355 10.1581 9.4514 11.4383C8.16733 12.7224 7.33154 14.337 7.03142 16.1073C6.98963 16.3581 6.77309 16.5328 6.52615 16.5328C6.49576 16.5328 6.46916 16.529 6.43877 16.5252C6.16144 16.4834 5.97149 16.2175 6.02088 15.9402Z" fill="#FE9C0F"/>
</g>
<defs>
<clipPath id="clip0_76_618">
<rect width="18" height="18" fill="white" transform="matrix(-1 0 0 1 24 8)"/>
</clipPath>
</defs>
</svg>
