<svg width="24" height="24" viewBox="0 0 24 24" fill="none" xmlns="http://www.w3.org/2000/svg">
<circle cx="12" cy="12" r="12" fill="#2CB742"/>
<g clip-path="url(#clip0_205_214)">
<path d="M15.1769 17.9148V16.2H15.489C15.8895 16.1996 16.2734 16.0309 16.5566 15.7309C16.8398 15.4309 16.9991 15.0242 16.9995 14.6V6.6C16.9991 6.17578 16.8398 5.76906 16.5566 5.46909C16.2734 5.16913 15.8895 5.00042 15.489 5H8.51054C8.11004 5.00042 7.72606 5.16913 7.44286 5.46909C7.15967 5.76906 7.0004 6.17578 7 6.6V14.6C7.0004 15.0242 7.15967 15.4309 7.44286 15.7309C7.72606 16.0309 8.11004 16.1996 8.51054 16.2H8.8476C8.68331 17.2346 9.56716 18.6431 9.96515 19.2149L9.76541 20.3706C9.75209 20.4475 9.75489 20.5266 9.77363 20.6023C9.79237 20.6779 9.82658 20.7483 9.87384 20.8084C9.9211 20.8685 9.98026 20.9169 10.0471 20.9501C10.114 20.9833 10.1869 21.0005 10.2608 21.0005H14.33C14.4019 21.0006 14.4729 20.9844 14.5384 20.953C14.6039 20.9215 14.6622 20.8756 14.7095 20.8183C14.7569 20.7609 14.792 20.6935 14.8127 20.6206C14.8334 20.5477 14.839 20.4709 14.8293 20.3954L14.656 19.0504L14.7904 18.9081C14.9136 18.7778 15.0113 18.623 15.0776 18.4525C15.144 18.282 15.1777 18.0992 15.1769 17.9148ZM14.1697 17.9148C14.1693 18.004 14.1358 18.0896 14.0763 18.1528L13.7652 18.4823C13.7103 18.5404 13.6688 18.6112 13.644 18.6891C13.6192 18.767 13.6118 18.8499 13.6224 18.9314L13.7512 19.9337H10.864L10.9948 19.1752C11.0077 19.1006 11.0055 19.024 10.9883 18.9504C10.971 18.8768 10.9392 18.8079 10.8949 18.7484C10.3901 18.0687 9.70648 16.8342 9.8463 16.3444C9.88603 16.1803 9.95613 16.0262 10.0525 15.8911C10.0525 15.8879 10.0565 15.8858 10.0575 15.8832C10.1325 15.9052 10.2112 15.9084 10.2875 15.8928C10.3639 15.8771 10.4357 15.843 10.4975 15.793C10.5593 15.7429 10.6093 15.6785 10.6436 15.6045C10.6779 15.5306 10.6955 15.4493 10.6952 15.3669V12.4579C10.6952 12.3693 10.7284 12.2843 10.7876 12.2217C10.8467 12.159 10.9269 12.1238 11.0105 12.1238C11.0942 12.1238 11.1744 12.159 11.2335 12.2217C11.2927 12.2843 11.3259 12.3693 11.3259 12.4579V13.2301C11.3255 13.4939 11.3936 13.7528 11.5228 13.9784C11.652 14.204 11.8373 14.3875 12.0584 14.509L13.7502 15.4431C13.8774 15.5131 13.984 15.6188 14.0584 15.7487C14.1327 15.8785 14.1719 16.0275 14.1717 16.1794L14.1697 17.9148ZM14.2136 14.4974L12.5223 13.5633C12.4647 13.5317 12.4163 13.4839 12.3826 13.4251C12.3489 13.3663 12.331 13.2989 12.3311 13.2301V12.4579C12.3311 12.0861 12.1917 11.7296 11.9435 11.4667C11.6953 11.2039 11.3587 11.0562 11.0078 11.0562C10.6568 11.0562 10.3203 11.2039 10.0721 11.4667C9.82393 11.7296 9.68451 12.0861 9.68451 12.4579V14.9184C9.57105 14.9723 9.46651 15.0451 9.37491 15.1342H8.51054C8.44437 15.1341 8.37887 15.1203 8.31776 15.0934C8.25666 15.0665 8.20115 15.0271 8.15441 14.9775C8.10767 14.9279 8.07061 14.869 8.04535 14.8043C8.02009 14.7395 8.00713 14.6701 8.00719 14.6V6.6C8.00745 6.45868 8.06057 6.32324 8.15491 6.22331C8.24925 6.12338 8.37712 6.06712 8.51054 6.06684H15.489C15.6224 6.06712 15.7503 6.12338 15.8446 6.22331C15.9389 6.32324 15.992 6.45868 15.9923 6.6V14.6C15.9922 14.7414 15.9391 14.8769 15.8447 14.9768C15.7504 15.0768 15.6224 15.133 15.489 15.1332H14.8768C14.7102 14.8651 14.482 14.6463 14.2136 14.4974Z" fill="white"/>
<path d="M13.9555 7.13306H10.0441C9.91056 7.13306 9.78247 7.18925 9.68803 7.28929C9.59358 7.38933 9.54053 7.52501 9.54053 7.66648C9.54053 7.80795 9.59358 7.94363 9.68803 8.04366C9.78247 8.1437 9.91056 8.1999 10.0441 8.1999H13.955C14.0886 8.1999 14.2167 8.1437 14.3111 8.04366C14.4056 7.94363 14.4586 7.80795 14.4586 7.66648C14.4586 7.52501 14.4056 7.38933 14.3111 7.28929C14.2167 7.18925 14.0891 7.13306 13.9555 7.13306Z" fill="white"/>
<path d="M13.9555 9.09497H10.0441C9.91056 9.09497 9.78247 9.15117 9.68803 9.25121C9.59358 9.35124 9.54053 9.48692 9.54053 9.62839C9.54053 9.76986 9.59358 9.90554 9.68803 10.0056C9.78247 10.1056 9.91056 10.1618 10.0441 10.1618H13.955C14.0886 10.1618 14.2167 10.1056 14.3111 10.0056C14.4056 9.90554 14.4586 9.76986 14.4586 9.62839C14.4586 9.48692 14.4056 9.35124 14.3111 9.25121C14.2167 9.15117 14.0891 9.09497 13.9555 9.09497Z" fill="white"/>
</g>
<defs>
<clipPath id="clip0_205_214">
<rect width="10" height="16" fill="white" transform="translate(7 5)"/>
</clipPath>
</defs>
</svg>
