<svg width="33" height="32" viewBox="0 0 33 32" fill="none" xmlns="http://www.w3.org/2000/svg">
<g clip-path="url(#clip0_98_783)">
<path d="M16.5 32C25.3366 32 32.5 24.8366 32.5 16C32.5 7.16344 25.3366 0 16.5 0C7.66344 0 0.5 7.16344 0.5 16C0.5 24.8366 7.66344 32 16.5 32Z" fill="#FCD34D"/>
<path d="M16.498 6.87305H16.499C17.1357 6.87385 17.7668 6.98772 18.3623 7.20898L18.6152 7.31055C19.9291 7.87723 20.9769 8.92457 21.5439 10.2383V10.2393C21.7965 10.8269 21.9432 11.4545 21.9766 12.0918L21.9834 12.3652C21.9834 12.7545 21.984 13.1516 22.0068 13.5342L22.042 14.125L22.6191 13.9912L22.9316 13.918H22.9346C23.085 13.8821 23.2415 13.8801 23.3926 13.9131C23.5059 13.9378 23.6146 13.9815 23.7129 14.042L23.8076 14.1084L23.8105 14.1104C23.9756 14.2381 24.0975 14.4127 24.1602 14.6104L24.1826 14.6963L24.1836 14.6982C24.3076 15.2436 24.0347 15.7965 23.5391 16.0342L23.4375 16.0771L23.4287 16.0801L22.5 16.4434L22.0605 16.6152L22.2061 17.0645C22.5431 18.1001 23.0378 18.7545 23.585 19.1826C23.9884 19.4983 24.4029 19.6756 24.7471 19.7959L25.0645 19.9004L25.0742 19.9033C25.1564 19.9276 25.2382 19.9544 25.3184 19.9844L25.5547 20.083L25.5605 20.085C25.691 20.1424 25.8019 20.2371 25.8799 20.3564C25.9383 20.4459 25.9767 20.5465 25.9922 20.6514L26 20.7578C25.9978 20.8952 25.9636 21.0303 25.9004 21.1523C25.8522 21.2453 25.7878 21.3291 25.7109 21.3994L25.6299 21.4648L25.624 21.4688C25.4545 21.594 25.2665 21.6919 25.0664 21.7578C24.6915 21.8755 24.3087 21.9664 23.9209 22.0303L23.5508 22.0918L23.5059 22.4629C23.4911 22.5829 23.4667 22.7021 23.4336 22.8184L23.4297 22.832C23.3916 22.9817 23.3198 23.1207 23.2197 23.2383C23.1214 23.3538 22.9979 23.4444 22.8594 23.5059C22.6841 23.5718 22.4978 23.6041 22.3105 23.5986H22.2959C22.2155 23.5986 22.1297 23.595 22.0371 23.5898L21.7383 23.5703C21.5446 23.5568 21.2852 23.5364 21.0391 23.5352H21.0166C20.6807 23.5224 20.3455 23.5765 20.0312 23.6963L20.0146 23.7031L19.998 23.7109C19.8564 23.7768 19.7108 23.8528 19.5654 23.9336L19.1318 24.1826L19.1299 24.1836C18.3063 24.6685 17.5025 25.1367 16.5 25.1367C15.7476 25.1367 15.1076 24.8734 14.4863 24.5391L13.8682 24.1885L13.8672 24.1875C13.5834 24.0226 13.2852 23.8475 13.002 23.7158L12.9854 23.708L12.9688 23.7021L12.7236 23.623C12.4828 23.5587 12.2334 23.5315 11.9834 23.541V23.54C11.7309 23.54 11.4826 23.5579 11.2559 23.5762C11.0356 23.5939 10.8695 23.6035 10.7041 23.6035H10.6963L10.6895 23.6045C10.5008 23.6099 10.3132 23.5766 10.1367 23.5098C9.99966 23.4486 9.87767 23.3585 9.78027 23.2441C9.68022 23.1266 9.60813 22.9875 9.57031 22.8379L9.56836 22.8301L9.56641 22.8232L9.52344 22.6475C9.51146 22.5883 9.50151 22.5287 9.49414 22.4688L9.44922 22.0967L9.0791 22.0361L8.78906 21.9834C8.50161 21.9257 8.21738 21.8525 7.9375 21.7646H7.93848C7.78699 21.7152 7.64185 21.6484 7.50684 21.5645L7.375 21.4746L7.37012 21.4707L7.28906 21.4043C7.21189 21.3337 7.14688 21.2497 7.09863 21.1562C7.03494 21.0327 7.00126 20.8958 7 20.7568C7.00268 20.6167 7.04563 20.4802 7.12305 20.3633C7.18185 20.2746 7.25894 20.2003 7.34863 20.1445L7.44238 20.0947L7.44922 20.0918C7.52675 20.0564 7.60574 20.023 7.68555 19.9932L7.92871 19.9131L7.94043 19.9092C8.32587 19.7852 8.88537 19.6091 9.42285 19.1865C9.96947 18.7566 10.4609 18.0999 10.7939 17.0625L10.9375 16.6152L10.5 16.4434L9.57129 16.0801L9.56348 16.0771L9.46191 16.0342C9.00225 15.813 8.73478 15.3206 8.79883 14.8145L8.81738 14.7061V14.7051C8.86771 14.4736 8.99687 14.2661 9.18262 14.1191C9.36528 13.9781 9.58952 13.9014 9.82031 13.9004C9.85983 13.9005 9.8993 13.9026 9.93848 13.9072L10.0566 13.9287H10.0596L10.3721 14.002L10.9609 14.1387L10.9854 13.5352C11.0002 13.1646 11.0068 12.7744 11.0068 12.376C11.008 11.7364 11.1225 11.1025 11.3438 10.5039L11.4453 10.25V10.249C11.9709 9.01296 12.924 8.0109 14.125 7.42285L14.3691 7.31055C14.9572 7.05615 15.5861 6.90972 16.2246 6.87891L16.498 6.87305Z" fill="white" stroke="black"/>
</g>
<defs>
<clipPath id="clip0_98_783">
<rect width="32" height="32" fill="white" transform="translate(0.5)"/>
</clipPath>
</defs>
</svg>
