<svg width="24" height="28" viewBox="0 0 24 28" fill="none" xmlns="http://www.w3.org/2000/svg">
<path d="M12 27.0292C18.6274 27.0292 24 21.1299 24 13.8527C24 6.57558 18.6274 0.67627 12 0.67627C5.37258 0.67627 0 6.57558 0 13.8527C0 21.1299 5.37258 27.0292 12 27.0292Z" fill="#FCD34D"/>
<path d="M11.998 6.42432H11.999C12.4556 6.42495 12.9094 6.51464 13.3389 6.68994L13.5205 6.77002C14.4119 7.19207 15.1449 7.95618 15.5791 8.93115L15.6621 9.12842C15.8488 9.60554 15.9575 10.1158 15.9824 10.6353L15.9873 10.8589C15.9873 11.1792 15.9877 11.5072 16.0049 11.8237L16.0381 12.4321L16.6279 12.2817L16.8623 12.2212L16.8652 12.2202C16.9533 12.1971 17.0446 12.1962 17.1328 12.2173C17.1993 12.2332 17.2648 12.2627 17.3262 12.3042L17.3867 12.3491L17.3887 12.3521C17.4791 12.4289 17.5535 12.534 17.6006 12.6587L17.6387 12.7886V12.7905C17.7242 13.2036 17.5478 13.5886 17.2695 13.7729L17.1445 13.8384L17.1357 13.8423L16.4395 14.1421L16.0312 14.3179L16.1572 14.7437C16.4122 15.6041 16.7892 16.1597 17.2188 16.5288C17.5364 16.8017 17.8639 16.9541 18.1299 17.0562L18.3721 17.144L18.5547 17.2104L18.7227 17.2876L18.7285 17.2896C18.782 17.3154 18.834 17.3561 18.8779 17.4106L18.9189 17.4702C18.9572 17.5345 18.9834 17.6093 18.9941 17.689L19 17.77C18.9984 17.877 18.9739 17.9804 18.9307 18.0718C18.8977 18.1415 18.8554 18.2016 18.8066 18.2505L18.7568 18.2954L18.751 18.2993C18.6331 18.395 18.5035 18.4667 18.3682 18.5151C18.0958 18.6087 17.8182 18.6821 17.5371 18.7329L17.1709 18.7993L17.1289 19.1694C17.1235 19.2176 17.1171 19.2655 17.1084 19.313L17.0771 19.4546L17.0732 19.4673C17.053 19.5546 17.0201 19.6354 16.9766 19.7065L16.9307 19.7739C16.8677 19.8552 16.7914 19.9157 16.7109 19.9565C16.5984 20.0031 16.4808 20.0257 16.3633 20.022H16.3477L15.9404 19.9995C15.794 19.9883 15.5839 19.9692 15.3867 19.9692V19.9702C15.1134 19.9599 14.842 20.0088 14.5889 20.1147L14.5713 20.1216L14.5547 20.1304C14.4447 20.1865 14.3321 20.2518 14.2207 20.3198L13.8936 20.5259L13.8916 20.5269C13.2664 20.9311 12.699 21.2886 12 21.2886C11.4752 21.2886 11.0252 21.0876 10.5684 20.8179L10.1064 20.5298C9.89542 20.3951 9.6651 20.2464 9.44531 20.1343L9.42871 20.1265L9.41113 20.1187L9.21191 20.0483C9.07686 20.0087 8.93814 19.9837 8.79785 19.9751L8.6123 19.9741C8.51404 19.9741 8.41699 19.9772 8.32324 19.9829L8.05273 20.0044C7.88917 20.0189 7.76953 20.0259 7.65234 20.0259H7.64453L7.63672 20.0269C7.52024 20.0305 7.40366 20.008 7.29199 19.9624C7.23159 19.9324 7.1738 19.8914 7.12207 19.8384L7.06934 19.7788C7.0195 19.7145 6.97864 19.6396 6.9502 19.5571L6.92676 19.4722L6.92285 19.4585L6.8916 19.3179C6.88284 19.2704 6.87551 19.2225 6.87012 19.1743L6.8291 18.8032L6.46191 18.7378L6.25098 18.6948C6.11026 18.6638 5.97051 18.6274 5.83203 18.5854L5.62598 18.519C5.52631 18.4828 5.42975 18.4336 5.33887 18.3716L5.24902 18.3042L5.24316 18.2993L5.19238 18.2544C5.15998 18.2218 5.1304 18.1841 5.10449 18.1421L5.06836 18.0747C5.02569 17.9838 5.00165 17.881 5 17.7749C5.00087 17.6927 5.01766 17.6137 5.04785 17.5435L5.08203 17.4771C5.12044 17.4134 5.16903 17.3638 5.2207 17.3286L5.27246 17.2983L5.28027 17.2944C5.33537 17.2668 5.39169 17.2414 5.44824 17.2183L5.61914 17.1558L5.63184 17.1509C5.92224 17.0483 6.36417 16.8969 6.78711 16.5317C7.21638 16.1611 7.59172 15.6039 7.84375 14.7417L7.96777 14.3169L7.56152 14.1421L6.86426 13.8423L6.85645 13.8394L6.73145 13.7729C6.49472 13.6157 6.33167 13.313 6.3418 12.9712L6.3623 12.7964V12.7954C6.39823 12.614 6.48911 12.4612 6.6084 12.3579L6.60742 12.3569C6.72298 12.2596 6.85802 12.2123 6.99023 12.2114C7.01304 12.2115 7.03584 12.2133 7.05859 12.2163L7.12793 12.23H7.13086L7.36523 12.2905L7.96582 12.4438L7.98926 11.8237C8.00041 11.518 8.00585 11.1963 8.00586 10.8677C8.00677 10.3459 8.09118 9.82982 8.25488 9.34326L8.33008 9.13623V9.13525C8.71952 8.12965 9.42096 7.32656 10.291 6.85889L10.4668 6.77002H10.4678C10.8921 6.56848 11.3439 6.45348 11.8018 6.4292L11.998 6.42432Z" fill="white" stroke="black"/>
</svg>
