<svg width="26" height="26" viewBox="0 0 26 26" fill="none" xmlns="http://www.w3.org/2000/svg">
<path opacity="0.2" d="M20.3125 17.875H10.5625C10.5625 17.875 11.375 18.4844 11.375 19.5C11.375 20.1465 11.1182 20.7665 10.6611 21.2236C10.204 21.6807 9.58397 21.9375 8.9375 21.9375C8.29103 21.9375 7.67105 21.6807 7.21393 21.2236C6.75681 20.7665 6.5 20.1465 6.5 19.5V6.5C6.5 5.85353 6.24319 5.23355 5.78607 4.77643C5.32895 4.31931 4.70897 4.0625 4.0625 4.0625H17.875C18.5215 4.0625 19.1415 4.31931 19.5986 4.77643C20.0557 5.23355 20.3125 5.85353 20.3125 6.5V17.875Z" fill="#262A56"/>
<path d="M9.75 10.5625C9.75 10.347 9.8356 10.1403 9.98798 9.98798C10.1403 9.8356 10.347 9.75 10.5625 9.75H17.0625C17.278 9.75 17.4847 9.8356 17.637 9.98798C17.7894 10.1403 17.875 10.347 17.875 10.5625C17.875 10.778 17.7894 10.9847 17.637 11.137C17.4847 11.2894 17.278 11.375 17.0625 11.375H10.5625C10.347 11.375 10.1403 11.2894 9.98798 11.137C9.8356 10.9847 9.75 10.778 9.75 10.5625ZM10.5625 14.625H17.0625C17.278 14.625 17.4847 14.5394 17.637 14.387C17.7894 14.2347 17.875 14.028 17.875 13.8125C17.875 13.597 17.7894 13.3903 17.637 13.238C17.4847 13.0856 17.278 13 17.0625 13H10.5625C10.347 13 10.1403 13.0856 9.98798 13.238C9.8356 13.3903 9.75 13.597 9.75 13.8125C9.75 14.028 9.8356 14.2347 9.98798 14.387C10.1403 14.5394 10.347 14.625 10.5625 14.625ZM23.5625 19.5C23.5625 20.362 23.2201 21.1886 22.6106 21.7981C22.0011 22.4076 21.1745 22.75 20.3125 22.75H8.9375C8.07555 22.75 7.2489 22.4076 6.6394 21.7981C6.02991 21.1886 5.6875 20.362 5.6875 19.5V6.5C5.6875 6.06902 5.5163 5.6557 5.21155 5.35095C4.9068 5.0462 4.49348 4.875 4.0625 4.875C3.63152 4.875 3.2182 5.0462 2.91345 5.35095C2.6087 5.6557 2.4375 6.06902 2.4375 6.5C2.4375 7.08297 2.92805 7.47703 2.93313 7.48109C3.0676 7.58458 3.16629 7.72756 3.21537 7.88999C3.26445 8.05241 3.26145 8.22613 3.20678 8.38676C3.15212 8.54739 3.04854 8.68688 2.91057 8.78565C2.77261 8.88442 2.60718 8.93752 2.4375 8.9375C2.2618 8.9378 2.09087 8.88035 1.95102 8.77398C1.8332 8.68766 0.8125 7.88227 0.8125 6.5C0.8125 5.63805 1.15491 4.8114 1.7644 4.2019C2.3739 3.59241 3.20055 3.25 4.0625 3.25H17.875C18.737 3.25 19.5636 3.59241 20.1731 4.2019C20.7826 4.8114 21.125 5.63805 21.125 6.5V17.0625H21.9375C22.1133 17.0625 22.2844 17.1195 22.425 17.225C22.5469 17.3123 23.5625 18.1177 23.5625 19.5ZM9.77641 17.6191C9.83192 17.4552 9.93787 17.3131 10.0791 17.2131C10.2203 17.1132 10.3895 17.0604 10.5625 17.0625H19.5V6.5C19.5 6.06902 19.3288 5.6557 19.024 5.35095C18.7193 5.0462 18.306 4.875 17.875 4.875H6.87477C7.16213 5.36829 7.3132 5.92911 7.3125 6.5V19.5C7.3125 19.931 7.48371 20.3443 7.78845 20.649C8.0932 20.9538 8.50652 21.125 8.9375 21.125C9.36848 21.125 9.7818 20.9538 10.0865 20.649C10.3913 20.3443 10.5625 19.931 10.5625 19.5C10.5625 18.917 10.072 18.523 10.0669 18.5189C9.92841 18.4199 9.82544 18.2789 9.77314 18.1169C9.72084 17.9549 9.72198 17.7804 9.77641 17.6191ZM21.9375 19.5C21.9273 19.199 21.8112 18.9112 21.6095 18.6875H12.0626C12.1442 18.9506 12.1857 19.2245 12.1855 19.5C12.1862 20.0706 12.0359 20.6313 11.7498 21.125H20.3125C20.7435 21.125 21.1568 20.9538 21.4615 20.649C21.7663 20.3443 21.9375 19.931 21.9375 19.5Z" fill="#262A56"/>
</svg>
