<svg width="24" height="28" viewBox="0 0 24 28" fill="none" xmlns="http://www.w3.org/2000/svg">
<path d="M24.0006 13.8527C24.0006 21.1296 18.6278 27.0292 12 27.0292H11.9775C5.36041 27.0156 0 21.1199 0 13.8527C0 6.58558 5.36041 0.689257 11.9775 0.67627H12C18.6278 0.67627 24.0006 6.57389 24.0006 13.8527Z" fill="black"/>
<path d="M11.9775 0.67627V27.0292C5.36041 27.0156 0 21.1199 0 13.8527C0 6.58558 5.36041 0.689257 11.9775 0.67627Z" fill="#0C0C0C"/>
<path d="M18.5293 10.2055L18.5145 12.9049C18.0354 12.8985 17.5588 12.8283 17.0951 12.6958C16.3798 12.4906 15.7051 12.1421 15.1051 11.6678C15.1051 11.9438 15.1086 12.3555 15.1086 12.8562C15.1086 13.5225 15.1086 13.901 15.1051 14.303C15.0944 16.7862 15.1506 17.2668 14.9519 18.2486C14.9106 18.4854 14.854 18.7187 14.7828 18.9467C14.4007 20.1156 13.568 21.052 12.7194 21.55C12.4826 21.6883 12.234 21.8007 11.9772 21.8858C10.3733 22.4195 8.44596 21.9507 7.45124 20.6519L7.44473 20.6442L7.43704 20.6331C6.59194 19.5136 6.40742 17.7681 6.38968 17.3213C6.38968 17.2642 6.38613 17.2083 6.38613 17.2083C6.37312 16.598 6.45307 15.9896 6.62269 15.4082C6.7942 14.8069 7.35898 13.5517 8.62752 12.7893C9.41868 12.3213 10.3217 12.1316 11.2143 12.2458L11.1853 14.9777C11.135 14.9634 9.91972 14.6472 9.12193 15.5563C8.39924 16.3797 8.44596 17.7064 8.9587 18.4577C8.98591 18.498 9.01489 18.5369 9.04505 18.5733C9.33187 18.9246 9.69558 19.0564 9.94101 19.1486C10.2664 19.2664 10.608 19.3213 10.9505 19.311C11.3174 19.3047 11.6744 19.1788 11.976 18.9493C12.8099 18.3272 12.9222 17.2194 12.9264 17.1564C12.9161 13.59 12.9065 10.0236 12.8974 6.45726V6.45401L14.4605 6.42349H14.4859L14.7124 6.41895C14.8794 7.07894 15.1625 7.69664 15.5457 8.2372C15.6664 8.40627 15.7968 8.56677 15.936 8.71773C16.462 9.27989 17.0938 9.70858 17.787 9.97362H17.7918C18.0323 10.0701 18.2787 10.1476 18.5293 10.2055Z" fill="#FD2854"/>
<path d="M17.823 11.4268H17.8183C16.9765 11.5749 16.1148 11.5031 15.3031 11.2171C14.7363 11.0147 14.2042 10.7099 13.7288 10.3151C14.0138 12.2071 14.0138 14.1376 13.7288 16.0296C13.3911 18.2531 13.1794 19.6466 12.0492 20.5382C12.0256 20.5571 12.0013 20.5759 11.9771 20.5934C10.4164 21.7539 8.23591 21.1779 7.43694 20.6317L7.42511 20.6239L7.40264 20.6084C7.13928 20.4168 6.89225 20.1994 6.66458 19.959C6.25644 19.5243 5.93076 19.0051 5.70634 18.4314C5.48191 17.8578 5.36318 17.241 5.357 16.6167C5.34181 15.97 5.43958 15.3261 5.64501 14.7198C5.77808 14.3302 6.27248 12.9444 7.64984 12.1009C8.53182 11.5699 9.55095 11.3805 10.5429 11.5632C10.539 11.7797 10.5353 11.9961 10.5317 12.2126V12.2171L10.5086 13.5873C10.077 13.4756 9.63073 13.4484 9.19042 13.5068C8.83559 13.5548 8.48785 13.5997 8.11823 13.8549C7.64485 14.1894 7.3098 14.7145 7.185 15.3173C7.10603 15.6092 7.08983 15.9173 7.13769 16.2173C7.15189 16.303 7.25597 16.8985 7.6936 17.3258C7.84086 17.4693 7.90355 17.4751 8.11823 17.6953C8.30747 17.8901 8.35478 17.9836 8.52806 18.1453C8.52806 18.1453 8.57064 18.1849 8.64043 18.2407C8.64491 18.245 8.64965 18.2489 8.65462 18.2524C8.75005 18.3291 8.85024 18.3983 8.95446 18.4596C9.38795 18.7089 10.1639 18.7356 10.7328 18.4323C11.5199 18.0122 11.9493 17.0459 11.9475 16.4718C11.938 12.9042 11.9284 9.33672 11.9185 5.76949H11.9729L14.387 5.75391C14.3853 5.96067 14.4114 6.16658 14.4645 6.36497C14.4704 6.3864 14.4763 6.40653 14.4828 6.42991C14.4893 6.45328 14.4935 6.46432 14.4988 6.48056C14.5362 6.58847 14.5795 6.69386 14.6283 6.79615L14.662 6.87083V6.87668C14.6615 6.87836 14.6615 6.88019 14.662 6.88187L14.6673 6.89421L14.6727 6.9059C14.6759 6.91345 14.6794 6.92082 14.6833 6.92798C14.6869 6.93642 14.691 6.94486 14.6951 6.9533C14.7176 7.00071 14.7484 7.06305 14.7832 7.13318C14.8051 7.17669 14.8282 7.2202 14.8519 7.26305L14.8773 7.30916C14.8897 7.33254 14.9027 7.35591 14.9157 7.37864L14.963 7.46111C15.147 7.77996 15.4699 8.31699 15.9276 8.72285C16.571 9.293 17.3103 9.45405 17.7739 9.5021C17.7769 9.66185 17.7804 9.82159 17.7834 9.98134C17.8007 10.4636 17.814 10.9454 17.823 11.4268Z" fill="#24F6FA"/>
<path d="M17.8307 12.1898C16.6121 12.2389 15.4156 11.8229 14.4449 11.0125V16.727C14.4331 16.9458 14.2586 19.3596 12.2727 20.6882C12.1746 20.7531 12.0758 20.8135 11.977 20.8693C10.1088 21.9161 8.28319 21.096 8.10281 21.0109C7.92346 20.9465 7.75158 20.8594 7.59066 20.7512C7.54039 20.7167 7.49131 20.681 7.44459 20.644L7.4026 20.6096C6.18433 19.594 6.13406 17.5251 6.12637 17.2199C6.11335 16.6096 6.1933 16.0012 6.36293 15.4198C6.564 14.7152 7.16427 13.5275 8.36776 12.8009C9.03182 12.404 9.77811 12.2027 10.534 12.2164V12.221L10.5045 14.2801C10.3773 14.2425 9.59786 14.0269 8.83614 14.5535C8.36276 14.8881 8.02771 15.4131 7.90292 16.0159C7.82825 16.3085 7.81211 16.6153 7.85561 16.9153C7.92314 17.2858 8.08234 17.6286 8.31571 17.9062C8.41382 18.0303 8.52343 18.1428 8.64276 18.242C8.64723 18.2462 8.65198 18.2501 8.65695 18.2537C8.75065 18.333 8.85106 18.4024 8.95679 18.4608L8.96033 18.4641C9.17167 18.8145 9.47651 19.0846 9.83309 19.2373C10.1897 19.3901 10.5805 19.418 10.9522 19.3173C11.1253 19.2777 11.2935 19.2153 11.4531 19.1316C11.6464 19.0307 11.8235 18.896 11.9776 18.7329C12.5761 18.1011 12.6637 17.227 12.6678 17.1744L12.6418 6.46686L12.902 6.46101L14.465 6.42725H14.4875C14.5334 6.55107 14.5829 6.67321 14.636 6.79349L14.6697 6.86817V6.87402C14.6691 6.8757 14.6691 6.87753 14.6697 6.87921L14.675 6.89155L14.6803 6.90324C14.6835 6.91079 14.6871 6.91816 14.691 6.92532C14.6945 6.93376 14.6986 6.9422 14.7028 6.95064C14.73 7.00909 14.7619 7.06948 14.7909 7.13052C14.8128 7.17403 14.8358 7.21754 14.8595 7.26039L14.8849 7.3065L14.9234 7.37598L14.9707 7.45845C15.2412 7.92303 15.5654 8.34714 15.9352 8.72019C16.475 9.26276 17.1029 9.68883 17.7863 9.97608H17.791C17.7987 10.4573 17.8064 10.9398 17.8135 11.4209L17.8307 12.1898Z" fill="white"/>
<path d="M18.5296 10.2054L18.5148 12.9048C18.0357 12.8984 17.5592 12.8282 17.0955 12.6957C16.3801 12.4905 15.7055 12.142 15.1054 11.6678C15.1054 11.9437 15.109 12.3555 15.109 12.8561C15.109 13.5224 15.109 13.901 15.1054 14.3029C15.0948 16.7861 15.151 17.2667 14.9523 18.2485C14.9109 18.4853 14.8544 18.7186 14.7831 18.9466C14.4011 20.1155 13.5684 21.0519 12.7197 21.55C12.4829 21.6882 12.2343 21.8006 11.9775 21.8857V5.76949L14.3916 5.75391C14.3899 5.96067 14.416 6.16658 14.4691 6.36497C14.475 6.3864 14.4809 6.40653 14.4874 6.42991L14.7139 6.42536C14.8809 7.08535 15.164 7.70305 15.5472 8.24361C15.6679 8.41268 15.7983 8.57319 15.9375 8.72415C16.581 9.2943 17.3202 9.45534 17.7839 9.5034C17.7868 9.66314 17.7904 9.82289 17.7933 9.98264C18.0336 10.076 18.2797 10.1504 18.5296 10.2054Z" fill="black" fill-opacity="0.09"/>
</svg>
