<svg width="33" height="32" viewBox="0 0 33 32" fill="none" xmlns="http://www.w3.org/2000/svg">
<g clip-path="url(#clip0_98_768)">
<path d="M32.5008 16C32.5008 24.8362 25.337 32 16.5 32H16.47C7.64721 31.9834 0.5 24.8244 0.5 16C0.5 7.17559 7.64721 0.0157705 16.47 0H16.5C25.337 0 32.5008 7.1614 32.5008 16Z" fill="black"/>
<path d="M16.47 0V32C7.64721 31.9834 0.5 24.8244 0.5 16C0.5 7.17559 7.64721 0.0157705 16.47 0Z" fill="#0C0C0C"/>
<path d="M25.2063 11.5706L25.1866 14.8485C24.5478 14.8407 23.9124 14.7554 23.2941 14.5946C22.3404 14.3454 21.4408 13.9222 20.6407 13.3463C20.6407 13.6814 20.6455 14.1814 20.6455 14.7893C20.6455 15.5984 20.6455 16.0581 20.6407 16.5462C20.6266 19.5615 20.7015 20.145 20.4365 21.3373C20.3814 21.6248 20.306 21.908 20.211 22.1849C19.7016 23.6043 18.5914 24.7413 17.4598 25.3461C17.1441 25.514 16.8126 25.6505 16.4702 25.7538C14.3317 26.402 11.7619 25.8326 10.4356 24.2556L10.427 24.2461L10.4167 24.2327C9.2899 22.8733 9.04388 20.7537 9.02023 20.2112C9.02023 20.1418 9.0155 20.074 9.0155 20.074C8.99814 19.3329 9.10474 18.5942 9.33091 17.8882C9.55958 17.1581 10.3126 15.6338 12.004 14.7081C13.0589 14.1399 14.2629 13.9095 15.453 14.0481L15.4144 17.3654C15.3474 17.3481 13.7269 16.9641 12.6632 18.068C11.6996 19.0679 11.7619 20.6788 12.4456 21.5912C12.4819 21.64 12.5205 21.6874 12.5607 21.7315C12.9431 22.1581 13.4281 22.3182 13.7553 22.4301C14.1892 22.5731 14.6447 22.6398 15.1013 22.6273C15.5906 22.6196 16.0665 22.4668 16.4687 22.1881C17.5805 21.4327 17.7303 20.0874 17.7358 20.0109C17.7221 15.6804 17.7093 11.3498 17.6972 7.01918V7.01524L19.7813 6.97818H19.8152L20.1172 6.97266C20.3399 7.77408 20.7173 8.52414 21.2282 9.18053C21.3892 9.38584 21.563 9.58073 21.7486 9.76404C22.45 10.4467 23.2924 10.9672 24.2167 11.2891H24.223C24.5437 11.4062 24.8723 11.5003 25.2063 11.5706Z" fill="#FD2854"/>
<path d="M24.264 13.0546H24.2577C23.1354 13.2344 21.9864 13.1471 20.9041 12.7999C20.1484 12.5542 19.4389 12.184 18.8051 11.7046C19.1851 14.002 19.1851 16.3463 18.8051 18.6437C18.3548 21.3436 18.0725 23.0358 16.5656 24.1184C16.5341 24.1413 16.5018 24.1641 16.4694 24.1854C14.3885 25.5945 11.4812 24.8951 10.4159 24.232L10.4001 24.2225L10.3702 24.2036C10.019 23.9709 9.68967 23.707 9.3861 23.415C8.84192 22.8872 8.40769 22.2567 8.10845 21.5601C7.80921 20.8636 7.65091 20.1146 7.64267 19.3565C7.62242 18.5713 7.75277 17.7894 8.02668 17.0532C8.2041 16.5801 8.86331 14.8974 10.6998 13.8731C11.8758 13.2283 13.2346 12.9983 14.5573 13.2202C14.552 13.483 14.547 13.7459 14.5423 14.0087V14.0142L14.5115 15.678C13.936 15.5424 13.341 15.5093 12.7539 15.5802C12.2808 15.6386 11.8171 15.693 11.3243 16.0029C10.6931 16.4092 10.2464 17.0467 10.08 17.7787C9.97471 18.1332 9.95311 18.5073 10.0169 18.8715C10.0358 18.9756 10.1746 19.6987 10.7581 20.2176C10.9545 20.3918 11.0381 20.3989 11.3243 20.6662C11.5766 20.9028 11.6397 21.0163 11.8707 21.2127C11.8707 21.2127 11.9275 21.2608 12.0206 21.3286C12.0265 21.3338 12.0329 21.3385 12.0395 21.3428C12.1667 21.4359 12.3003 21.5199 12.4393 21.5943C13.0173 21.8971 14.0518 21.9295 14.8104 21.5612C15.8599 21.051 16.4324 19.8777 16.43 19.1807C16.4174 14.8485 16.4045 10.5166 16.3914 6.18494H16.4639L19.6827 6.16602C19.6804 6.41709 19.7152 6.66712 19.786 6.90802C19.7939 6.93404 19.8018 6.95848 19.8104 6.98687C19.8191 7.01526 19.8246 7.02866 19.8317 7.04838C19.8817 7.17942 19.9393 7.30738 20.0044 7.4316L20.0494 7.52228V7.52938C20.0486 7.53142 20.0486 7.53365 20.0494 7.53569L20.0564 7.55067L20.0635 7.56486C20.0678 7.57403 20.0726 7.58298 20.0777 7.59167C20.0825 7.60192 20.088 7.61217 20.0935 7.62242C20.1235 7.67999 20.1645 7.75569 20.211 7.84085C20.2402 7.89368 20.2709 7.94651 20.3025 7.99855L20.3364 8.05454C20.3529 8.08292 20.3703 8.11131 20.3876 8.13891L20.4507 8.23905C20.6959 8.62622 21.1265 9.27833 21.7368 9.77116C22.5947 10.4635 23.5804 10.659 24.1986 10.7174C24.2025 10.9114 24.2073 11.1053 24.2112 11.2993C24.2343 11.8849 24.2519 12.47 24.264 13.0546Z" fill="#24F6FA"/>
<path d="M24.2736 13.9798C22.6488 14.0394 21.0535 13.5342 19.7593 12.5502V19.4892C19.7435 19.755 19.5109 22.6859 16.863 24.2993C16.7321 24.3781 16.6004 24.4514 16.4687 24.5193C13.9778 25.7904 11.5436 24.7945 11.3031 24.6912C11.064 24.613 10.8348 24.5071 10.6202 24.3757C10.5532 24.334 10.4878 24.2906 10.4255 24.2456L10.3695 24.2038C8.74512 22.9706 8.67809 20.4583 8.66784 20.0877C8.65048 19.3467 8.75709 18.6079 8.98325 17.9019C9.25135 17.0464 10.0517 15.6042 11.6564 14.7218C12.5418 14.24 13.5368 13.9955 14.5447 14.0121V14.0177L14.5053 16.5181C14.3358 16.4723 13.2965 16.2106 12.2809 16.85C11.6497 17.2563 11.203 17.8939 11.0366 18.6258C10.937 18.981 10.9155 19.3536 10.9735 19.7179C11.0635 20.1678 11.2758 20.5841 11.587 20.9212C11.7178 21.0719 11.8639 21.2085 12.023 21.3289C12.029 21.334 12.0353 21.3388 12.0419 21.3431C12.1669 21.4395 12.3008 21.5237 12.4417 21.5946L12.4465 21.5986C12.7282 22.0241 13.1347 22.352 13.6101 22.5375C14.0856 22.723 14.6067 22.7569 15.1022 22.6347C15.3331 22.5865 15.5573 22.5108 15.7701 22.4092C16.0278 22.2866 16.264 22.1231 16.4695 21.925C17.2675 21.1578 17.3842 20.0964 17.3897 20.0325L17.355 7.03052L17.702 7.02343L19.7861 6.98242H19.816C19.8772 7.13277 19.9432 7.2811 20.014 7.42715L20.0589 7.51783V7.52493C20.0582 7.52697 20.0582 7.5292 20.0589 7.53124L20.066 7.54622L20.0731 7.56041C20.0774 7.56958 20.0821 7.57853 20.0873 7.58722C20.092 7.59747 20.0975 7.60772 20.1031 7.61797C20.1393 7.68894 20.1819 7.76228 20.2205 7.8364C20.2497 7.88923 20.2805 7.94206 20.312 7.9941L20.3459 8.05009L20.3972 8.13446L20.4603 8.2346C20.821 8.79873 21.2533 9.31372 21.7463 9.76671C22.466 10.4256 23.3033 10.9429 24.2144 11.2917H24.2207C24.231 11.876 24.2412 12.4619 24.2507 13.0462L24.2736 13.9798Z" fill="white"/>
<path d="M25.2058 11.5714L25.1861 14.8493C24.5473 14.8415 23.9119 14.7562 23.2936 14.5954C22.3399 14.3462 21.4403 13.923 20.6402 13.3471C20.6402 13.6823 20.645 14.1822 20.645 14.7901C20.645 15.5992 20.645 16.0589 20.6402 16.547C20.6261 19.5623 20.701 20.1458 20.436 21.3381C20.3809 21.6256 20.3055 21.9088 20.2105 22.1857C19.7011 23.6051 18.5909 24.7421 17.4593 25.3469C17.1436 25.5148 16.8121 25.6513 16.4697 25.7546V6.18494L19.6885 6.16602C19.6862 6.41709 19.721 6.66712 19.7918 6.90802C19.7997 6.93404 19.8076 6.95848 19.8162 6.98687L20.1182 6.98135C20.3409 7.78277 20.7184 8.53284 21.2293 9.18923C21.3902 9.39453 21.5641 9.58943 21.7497 9.77274C22.6076 10.4651 23.5933 10.6606 24.2115 10.719C24.2154 10.9129 24.2202 11.1069 24.2241 11.3009C24.5445 11.4143 24.8726 11.5046 25.2058 11.5714Z" fill="black" fill-opacity="0.09"/>
</g>
<defs>
<clipPath id="clip0_98_768">
<rect width="32" height="32" fill="white" transform="translate(0.5)"/>
</clipPath>
</defs>
</svg>
