<svg width="28" height="28" viewBox="0 0 28 28" fill="none" xmlns="http://www.w3.org/2000/svg">
<circle cx="14" cy="14" r="14" fill="#262A56"/>
<g clip-path="url(#clip0_261_475)">
<path d="M19.6247 8.375H18.4808C18.4923 8.49893 18.4997 8.62241 18.4997 8.74985C18.4997 11.2323 16.4822 13.2499 13.9998 13.2499C11.5173 13.2499 9.49984 11.2323 9.49984 8.74985C9.49984 8.62241 9.50731 8.49849 9.51873 8.375H8.37485C8.16875 8.375 8 8.54375 8 8.74985V22.6247C8 22.8308 8.16875 22.9996 8.37485 22.9996H11.7498V18.1247C11.7498 17.9186 11.9186 17.7499 12.1247 17.7499H15.8745C16.0806 17.7499 16.2493 17.9186 16.2493 18.1247V22.9996H19.6243C19.8304 22.9996 19.9991 22.8308 19.9991 22.6247V8.74985C19.9991 8.54375 19.8304 8.375 19.6243 8.375H19.6247ZM11.7498 15.8751C11.7498 16.0812 11.5811 16.25 11.375 16.25H9.87512C9.66902 16.25 9.50027 16.0812 9.50027 15.8751V14.3753C9.50027 14.1692 9.66902 14.0004 9.87512 14.0004H11.375C11.5811 14.0004 11.7498 14.1692 11.7498 14.3753V15.8751ZM15.1248 15.8751C15.1248 16.0812 14.956 16.25 14.7499 16.25H13.2501C13.044 16.25 12.8752 16.0812 12.8752 15.8751V14.3753C12.8752 14.1692 13.044 14.0004 13.2501 14.0004H14.7499C14.956 14.0004 15.1248 14.1692 15.1248 14.3753V15.8751ZM18.4997 15.8751C18.4997 16.0812 18.331 16.25 18.1249 16.25H16.625C16.4189 16.25 16.2502 16.0812 16.2502 15.8751V14.3753C16.2502 14.1692 16.4189 14.0004 16.625 14.0004H18.1249C18.331 14.0004 18.4997 14.1692 18.4997 14.3753V15.8751Z" fill="white"/>
<path d="M13.9998 12.5001C16.0661 12.5001 17.7496 10.8166 17.7496 8.75029C17.7496 6.68398 16.0661 5 13.9998 5C11.9335 5 10.25 6.68354 10.25 8.74985C10.25 10.8162 11.9335 12.4997 13.9998 12.4997V12.5001ZM12.3163 7.29878C12.4327 7.1375 12.6652 6.93491 13.0923 6.87866C13.2237 6.87119 13.3134 6.87866 13.4 6.89009C13.5314 6.9125 13.6588 6.95776 13.7937 7.03247C13.7977 7.03643 13.8425 7.04741 13.9963 7.05137C14.1501 7.04741 14.2024 7.03643 14.2099 7.03247C14.3413 6.95732 14.4687 6.9125 14.5997 6.89009C14.6858 6.87866 14.7759 6.87119 14.8734 6.87515C15.3349 6.93535 15.5673 7.1375 15.6833 7.29878C15.8521 7.53125 15.9123 7.82744 15.8521 8.15747C15.8182 8.36357 15.7396 8.56265 15.6609 8.76875C15.6271 8.85884 15.5897 8.95244 15.5559 9.05C15.526 9.13262 15.5146 9.22622 15.5185 9.32378C15.5335 9.79268 15.4473 10.1486 15.2487 10.4189C15.1701 10.5314 15.0426 10.6026 14.9038 10.6215C14.7649 10.6404 14.6186 10.5991 14.514 10.5129C14.3527 10.3815 14.2441 10.2018 14.1466 10.0405C14.0978 9.96187 14.049 9.87925 14.0002 9.81948C13.9515 9.87969 13.9027 9.96187 13.8539 10.0405C13.7564 10.2018 13.6478 10.382 13.4865 10.5129C13.3964 10.5841 13.2804 10.6254 13.164 10.6254C13.1416 10.6254 13.1192 10.6254 13.0963 10.6215C12.9574 10.6026 12.83 10.5314 12.7513 10.4189C12.5527 10.1491 12.4661 9.79268 12.4815 9.32378C12.4855 9.22622 12.474 9.13262 12.4442 9.05C12.4103 8.95244 12.373 8.85884 12.3391 8.76875C12.2605 8.56265 12.1818 8.36357 12.148 8.15395C12.0878 7.82788 12.148 7.53125 12.3167 7.29878H12.3163Z" fill="white"/>
</g>
<defs>
<clipPath id="clip0_261_475">
<rect width="12" height="18" fill="white" transform="translate(8 5)"/>
</clipPath>
</defs>
</svg>
