<svg width="23" height="23" viewBox="0 0 23 23" fill="none" xmlns="http://www.w3.org/2000/svg">
<g clip-path="url(#clip0_79_875)">
<path d="M18.0957 0H4.90547C2.19625 0 0 2.19625 0 4.90547V18.0957C0 20.8049 2.19625 23.0011 4.90547 23.0011H18.0957C20.8049 23.0011 23.0011 20.8049 23.0011 18.0957V4.90547C23.0011 2.19625 20.8049 0 18.0957 0Z" fill="#2CB742"/>
<path fill-rule="evenodd" clip-rule="evenodd" d="M11.1732 4.76951C7.61394 4.93878 4.80539 7.90298 4.81607 11.4661C4.81943 12.5512 5.08136 13.5757 5.54371 14.4809L4.83414 17.9253C4.79559 18.1117 4.96374 18.275 5.14882 18.2311L8.52396 17.4315C9.39101 17.8634 10.3652 18.1128 11.396 18.1287C15.0337 18.1841 18.067 15.2958 18.1806 11.6592C18.302 7.76112 15.0847 4.58306 11.1732 4.76951ZM15.2005 15.1461C14.2121 16.1346 12.8978 16.6789 11.5 16.6789C10.6815 16.6789 9.89773 16.4952 9.17054 16.1331L8.70083 15.8989L6.63128 16.3892L7.06673 14.2746L6.83528 13.8212C6.45777 13.082 6.26649 12.2826 6.26649 11.4454C6.26649 10.0473 6.81083 8.73328 7.79926 7.74461C8.77877 6.76512 10.1144 6.21187 11.5 6.21187C12.8978 6.21187 14.2121 6.7564 15.2005 7.74461C16.189 8.73305 16.7333 10.0473 16.7333 11.4452C16.7336 12.8307 16.1803 14.1664 15.2005 15.1461Z" fill="white"/>
<path fill-rule="evenodd" clip-rule="evenodd" d="M14.7437 12.8948L13.449 12.523C13.2789 12.4743 13.0956 12.5226 12.9715 12.6488L12.6551 12.9713C12.5214 13.1074 12.319 13.1511 12.1423 13.0796C11.5299 12.8319 10.2414 11.6862 9.91268 11.1134C9.81757 10.9482 9.83336 10.7417 9.94984 10.5907L10.2263 10.2332C10.3345 10.0931 10.3572 9.9049 10.2857 9.74297L9.74117 8.51089C9.61066 8.21601 9.2336 8.13003 8.98724 8.33832C8.62603 8.64409 8.19725 9.10821 8.14515 9.62273C8.05319 10.5299 8.44226 11.6734 9.91313 13.0465C11.6127 14.6326 12.9736 14.8423 13.8598 14.6275C14.3625 14.5059 14.764 14.0179 15.0175 13.6184C15.1903 13.3455 15.0538 12.9838 14.7437 12.8948Z" fill="white"/>
</g>
<defs>
<clipPath id="clip0_79_875">
<rect width="23" height="23" fill="white"/>
</clipPath>
</defs>
</svg>
