<svg width="24" height="25" viewBox="0 0 24 25" fill="none" xmlns="http://www.w3.org/2000/svg">
<g clip-path="url(#clip0_8749_3275)">
<path d="M12 0.5C5.37281 0.5 0 5.87281 0 12.5C0 19.1272 5.37281 24.5 12 24.5C18.6272 24.5 24 19.1272 24 12.5C24 5.87281 18.6272 0.5 12 0.5Z" fill="black"/>
<path d="M13.313 11.4138L18.45 5.44238H17.2327L12.7722 10.6273L9.20961 5.44238H5.10059L10.4879 13.2829L5.10059 19.5448H6.31797L11.0284 14.0694L14.7907 19.5448H18.8998L13.3127 11.4138H13.313ZM6.75661 6.35882H8.62643L17.2333 18.67H15.3634L6.75661 6.35882Z" fill="white"/>
</g>
<defs>
<clipPath id="clip0_8749_3275">
<rect width="24" height="24" fill="white" transform="translate(0 0.5)"/>
</clipPath>
</defs>
</svg>
