<svg width="33" height="32" viewBox="0 0 33 32" fill="none" xmlns="http://www.w3.org/2000/svg">
<g clip-path="url(#clip0_98_776)">
<path d="M16.5 32C7.6648 32 0.5 24.8352 0.5 16C0.5 7.1648 7.6648 0 16.5 0C25.3352 0 32.5 7.1648 32.5 16C32.5 24.8352 25.3352 32 16.5 32Z" fill="url(#paint0_linear_98_776)"/>
<path d="M16.5 7.04613C19.4152 7.04613 19.7608 7.05573 20.9128 7.11013C21.9784 7.15813 22.5576 7.33733 22.9416 7.48773C23.4504 7.68613 23.8152 7.92293 24.196 8.30373C24.5768 8.68453 24.8136 9.04933 25.012 9.55813C25.1624 9.94213 25.3384 10.5213 25.3896 11.5869C25.4408 12.7389 25.4536 13.0845 25.4536 15.9997C25.4536 18.9149 25.444 19.2605 25.3896 20.4125C25.3416 21.4781 25.1624 22.0573 25.012 22.4413C24.8136 22.9501 24.5768 23.3149 24.196 23.6957C23.8152 24.0765 23.4504 24.3133 22.9416 24.5117C22.5576 24.6621 21.9784 24.8381 20.9128 24.8893C19.7608 24.9405 19.4152 24.9533 16.5 24.9533C13.5848 24.9533 13.2392 24.9437 12.0872 24.8893C11.0216 24.8413 10.4424 24.6621 10.0584 24.5117C9.5496 24.3133 9.1848 24.0765 8.804 23.6957C8.4232 23.3149 8.1864 22.9501 7.988 22.4413C7.8376 22.0573 7.6616 21.4781 7.6104 20.4125C7.5592 19.2605 7.5464 18.9149 7.5464 15.9997C7.5464 13.0845 7.556 12.7389 7.6104 11.5869C7.6584 10.5213 7.8376 9.94213 7.988 9.55813C8.1864 9.04933 8.4232 8.68453 8.804 8.30373C9.1848 7.92293 9.5496 7.68613 10.0584 7.48773C10.4424 7.33733 11.0216 7.16133 12.0872 7.11013C13.2392 7.05573 13.5848 7.04613 16.5 7.04613ZM16.5 5.07812C13.5336 5.07812 13.1624 5.09093 11.9976 5.14533C10.836 5.19973 10.0424 5.38213 9.34479 5.65413C8.628 5.92933 8.0168 6.30373 7.412 6.91173C6.804 7.51973 6.4328 8.12773 6.1512 8.84773C5.8824 9.54213 5.6968 10.3357 5.6424 11.5005C5.588 12.6653 5.5752 13.0365 5.5752 16.0029C5.5752 18.9693 5.588 19.3405 5.6424 20.5053C5.6968 21.6669 5.8792 22.4605 6.1512 23.1581C6.4296 23.8717 6.804 24.4829 7.412 25.0877C8.02 25.6957 8.628 26.0669 9.348 26.3485C10.0424 26.6173 10.836 26.8029 12.0008 26.8573C13.1656 26.9117 13.5368 26.9245 16.5032 26.9245C19.4696 26.9245 19.8408 26.9117 21.0056 26.8573C22.1672 26.8029 22.9608 26.6205 23.6584 26.3485C24.372 26.0701 24.9832 25.6957 25.588 25.0877C26.196 24.4797 26.5672 23.8717 26.8488 23.1517C27.1176 22.4573 27.3032 21.6637 27.3576 20.4989C27.412 19.3341 27.4248 18.9629 27.4248 15.9965C27.4248 13.0301 27.412 12.6589 27.3576 11.4941C27.3032 10.3325 27.1208 9.53892 26.8488 8.84132C26.5704 8.12772 26.196 7.51653 25.588 6.91173C24.98 6.30373 24.372 5.93253 23.652 5.65093C22.9576 5.38213 22.164 5.19653 20.9992 5.14213C19.8376 5.09092 19.4664 5.07812 16.5 5.07812Z" fill="white"/>
<path d="M16.5002 10.3906C13.4026 10.3906 10.8906 12.9026 10.8906 16.0002C10.8906 19.0978 13.4026 21.6098 16.5002 21.6098C19.5978 21.6098 22.1098 19.0978 22.1098 16.0002C22.1098 12.9026 19.5978 10.3906 16.5002 10.3906ZM16.5002 19.6418C14.4906 19.6418 12.8586 18.013 12.8586 16.0002C12.8586 13.9874 14.4906 12.3586 16.5002 12.3586C18.5098 12.3586 20.1418 13.9874 20.1418 16.0002C20.1418 18.013 18.5098 19.6418 16.5002 19.6418Z" fill="white"/>
<path d="M22.3303 11.4814C23.0549 11.4814 23.6423 10.894 23.6423 10.1694C23.6423 9.44482 23.0549 8.85742 22.3303 8.85742C21.6057 8.85742 21.0183 9.44482 21.0183 10.1694C21.0183 10.894 21.6057 11.4814 22.3303 11.4814Z" fill="white"/>
</g>
<defs>
<linearGradient id="paint0_linear_98_776" x1="5.1863" y1="27.3137" x2="27.8137" y2="4.6863" gradientUnits="userSpaceOnUse">
<stop stop-color="#FFD521"/>
<stop offset="0.055" stop-color="#FFD020"/>
<stop offset="0.124" stop-color="#FEC01E"/>
<stop offset="0.2" stop-color="#FCA71B"/>
<stop offset="0.282" stop-color="#FA8316"/>
<stop offset="0.368" stop-color="#F85510"/>
<stop offset="0.456" stop-color="#F51E09"/>
<stop offset="0.5" stop-color="#F30005"/>
<stop offset="0.503" stop-color="#F20007"/>
<stop offset="0.597" stop-color="#E1003B"/>
<stop offset="0.688" stop-color="#D30067"/>
<stop offset="0.776" stop-color="#C70088"/>
<stop offset="0.859" stop-color="#BF00A0"/>
<stop offset="0.936" stop-color="#BB00AF"/>
<stop offset="1" stop-color="#B900B4"/>
</linearGradient>
<clipPath id="clip0_98_776">
<rect width="32" height="32" fill="white" transform="translate(0.5)"/>
</clipPath>
</defs>
</svg>
