<svg width="24" height="28" viewBox="0 0 24 28" fill="none" xmlns="http://www.w3.org/2000/svg">
<g clip-path="url(#clip0_8749_3294)">
<path d="M12 27.0292C5.3736 27.0292 0 21.1288 0 13.8527C0 6.57669 5.3736 0.67627 12 0.67627C18.6264 0.67627 24 6.57669 24 13.8527C24 21.1288 18.6264 27.0292 12 27.0292Z" fill="url(#paint0_linear_8749_3294)"/>
<path d="M12.0002 6.4791C14.1866 6.4791 14.4458 6.48701 15.3098 6.53181C16.109 6.57134 16.5434 6.71892 16.8314 6.84278C17.213 7.00616 17.4866 7.20117 17.7722 7.51478C18.0578 7.82838 18.2354 8.1288 18.3842 8.54781C18.497 8.86405 18.629 9.34103 18.6674 10.2186C18.7058 11.1673 18.7154 11.4519 18.7154 13.8527C18.7154 16.2534 18.7082 16.538 18.6674 17.4867C18.6314 18.3643 18.497 18.8413 18.3842 19.1575C18.2354 19.5765 18.0578 19.8769 17.7722 20.1905C17.4866 20.5041 17.213 20.6992 16.8314 20.8625C16.5434 20.9864 16.109 21.1313 15.3098 21.1735C14.4458 21.2157 14.1866 21.2262 12.0002 21.2262C9.81384 21.2262 9.55464 21.2183 8.69064 21.1735C7.89144 21.134 7.45704 20.9864 7.16904 20.8625C6.78744 20.6992 6.51384 20.5041 6.22824 20.1905C5.94264 19.8769 5.76504 19.5765 5.61624 19.1575C5.50344 18.8413 5.37144 18.3643 5.33304 17.4867C5.29464 16.538 5.28504 16.2534 5.28504 13.8527C5.28504 11.4519 5.29224 11.1673 5.33304 10.2186C5.36904 9.34103 5.50344 8.86405 5.61624 8.54781C5.76504 8.1288 5.94264 7.82838 6.22824 7.51478C6.51384 7.20117 6.78744 7.00616 7.16904 6.84278C7.45704 6.71892 7.89144 6.57397 8.69064 6.53181C9.55464 6.48701 9.81384 6.4791 12.0002 6.4791ZM12.0002 4.8584C9.77544 4.8584 9.49704 4.86894 8.62344 4.91374C7.75224 4.95854 7.15704 5.10875 6.63384 5.33275C6.09624 5.55939 5.63784 5.86772 5.18424 6.36842C4.72824 6.86913 4.44984 7.36983 4.23864 7.96277C4.03704 8.53463 3.89784 9.18819 3.85704 10.1474C3.81624 11.1067 3.80664 11.4124 3.80664 13.8553C3.80664 16.2982 3.81624 16.6039 3.85704 17.5632C3.89784 18.5198 4.03464 19.1733 4.23864 19.7478C4.44744 20.3355 4.72824 20.8388 5.18424 21.3369C5.64024 21.8376 6.09624 22.1433 6.63624 22.3752C7.15704 22.5966 7.75224 22.7494 8.62584 22.7942C9.49944 22.839 9.77784 22.8496 12.0026 22.8496C14.2274 22.8496 14.5058 22.839 15.3794 22.7942C16.2506 22.7494 16.8458 22.5992 17.369 22.3752C17.9042 22.1459 18.3626 21.8376 18.8162 21.3369C19.2722 20.8362 19.5506 20.3355 19.7618 19.7425C19.9634 19.1707 20.1026 18.5171 20.1434 17.5579C20.1842 16.5986 20.1938 16.2929 20.1938 13.85C20.1938 11.4071 20.1842 11.1014 20.1434 10.1422C20.1026 9.18555 19.9658 8.532 19.7618 7.9575C19.553 7.36983 19.2722 6.86649 18.8162 6.36842C18.3602 5.86772 17.9042 5.56202 17.3642 5.33012C16.8434 5.10875 16.2482 4.9559 15.3746 4.9111C14.5034 4.86894 14.225 4.8584 12.0002 4.8584Z" fill="white"/>
<path d="M12.0002 9.23291C9.67697 9.23291 7.79297 11.3016 7.79297 13.8526C7.79297 16.4035 9.67697 18.4723 12.0002 18.4723C14.3234 18.4723 16.2074 16.4035 16.2074 13.8526C16.2074 11.3016 14.3234 9.23291 12.0002 9.23291ZM12.0002 16.8515C10.493 16.8515 9.26897 15.5102 9.26897 13.8526C9.26897 12.195 10.493 10.8536 12.0002 10.8536C13.5074 10.8536 14.7314 12.195 14.7314 13.8526C14.7314 15.5102 13.5074 16.8515 12.0002 16.8515Z" fill="white"/>
<path d="M16.3727 10.1316C16.9161 10.1316 17.3567 9.6479 17.3567 9.05117C17.3567 8.45445 16.9161 7.9707 16.3727 7.9707C15.8292 7.9707 15.3887 8.45445 15.3887 9.05117C15.3887 9.6479 15.8292 10.1316 16.3727 10.1316Z" fill="white"/>
</g>
<defs>
<linearGradient id="paint0_linear_8749_3294" x1="3.51473" y1="23.1699" x2="22.0679" y2="6.27331" gradientUnits="userSpaceOnUse">
<stop stop-color="#FFD521"/>
<stop offset="0.055" stop-color="#FFD020"/>
<stop offset="0.124" stop-color="#FEC01E"/>
<stop offset="0.2" stop-color="#FCA71B"/>
<stop offset="0.282" stop-color="#FA8316"/>
<stop offset="0.368" stop-color="#F85510"/>
<stop offset="0.456" stop-color="#F51E09"/>
<stop offset="0.5" stop-color="#F30005"/>
<stop offset="0.503" stop-color="#F20007"/>
<stop offset="0.597" stop-color="#E1003B"/>
<stop offset="0.688" stop-color="#D30067"/>
<stop offset="0.776" stop-color="#C70088"/>
<stop offset="0.859" stop-color="#BF00A0"/>
<stop offset="0.936" stop-color="#BB00AF"/>
<stop offset="1" stop-color="#B900B4"/>
</linearGradient>
<clipPath id="clip0_8749_3294">
<rect width="24" height="26.3529" fill="white" transform="translate(0 0.67627)"/>
</clipPath>
</defs>
</svg>
