<svg width="235" height="239" viewBox="0 0 235 239" fill="none" xmlns="http://www.w3.org/2000/svg">
<path d="M220.285 38.1421C218.785 37.0421 216.985 36.3421 215.685 35.0421C191.385 25.7421 166.685 12.5421 142.185 4.04209C128.485 -0.657909 107.085 -0.757909 93.3846 4.04209C69.4846 12.3421 45.7846 25.3421 21.7846 33.9421C5.48464 42.7421 -1.91536 59.4421 1.08464 77.5421C6.28464 108.942 15.2846 140.642 21.1846 171.942C26.0846 186.442 36.0846 199.942 48.9846 208.142C61.5846 216.142 79.0846 226.142 92.3846 232.742C114.185 243.542 131.585 239.042 151.685 228.042C161.985 222.442 173.185 216.142 183.185 210.042C205.385 196.442 212.085 181.742 217.585 156.942C223.385 131.142 228.085 104.942 233.785 79.1421C236.285 63.4421 233.085 48.2421 220.185 38.1421H220.285Z" fill="black"/>
<path d="M136.749 161.05C139.139 161.198 141.556 161.329 143.998 161.418C140.286 161.865 138.701 162.041 137.881 162.096C137.408 162.128 138.429 162.156 137.257 162.037C137.125 161.797 136.971 161.493 136.749 161.05ZM96.9135 160.895C96.7047 161.264 96.5135 161.616 96.3392 161.954C95.4702 161.917 94.1946 161.824 92.5824 161.665C91.6347 161.572 90.6729 161.467 89.7504 161.364C92.1836 161.238 94.5786 161.071 96.9135 160.895ZM168.892 125.573C170.3 126.869 172.057 127.845 173.211 128.445C173.304 128.493 173.398 128.539 173.492 128.587C173.336 128.64 173.181 128.693 173.028 128.747C169.401 130.011 166.543 131.093 165.385 131.44C130.224 141.41 93.617 140.463 59.2582 128.691C59.5819 128.529 59.857 128.397 60.0892 128.29C60.8769 127.927 61.1444 127.862 61.1488 127.861C61.1705 127.855 61.1916 127.849 61.2338 127.837C61.2661 127.828 61.3371 127.807 61.4105 127.786C61.5255 127.752 61.8934 127.645 62.3226 127.469C63.172 127.119 63.981 126.617 64.6996 125.953C65.3469 126.751 66.0115 127.353 66.5121 127.765C67.9095 128.917 69.5285 129.821 71.0092 130.528C74.0129 131.963 77.7056 133.178 81.2406 134.133C84.83 135.102 88.5582 135.884 91.7679 136.384C94.6175 136.827 98.0673 137.22 100.545 136.866L101.015 130.759C114.697 131.51 128.405 131.485 142.318 130.422L142.319 130.423C149.526 129.908 157.232 128.747 163.748 127.992L164.742 127.877L165.27 127.665C165.318 127.652 165.371 127.641 165.425 127.626C165.761 127.53 166.507 127.299 167.343 126.798C167.845 126.497 168.382 126.095 168.892 125.573Z" stroke="#F5B037" stroke-width="15"/>
<mask id="path-3-inside-1_24_173" fill="white">
<path d="M56.9847 40.4417C57.2847 40.8417 54.6847 44.7417 54.1847 44.8417C53.2847 45.1417 50.8847 43.8417 49.2847 43.9417C43.9847 44.3417 41.3847 51.6417 45.2847 55.3417C49.1847 59.0417 56.1847 57.5417 55.9847 51.8417L51.2847 53.3417C50.4847 53.1417 48.9847 49.5417 49.4847 48.9417L60.3847 44.9417C65.7847 55.3417 55.6847 66.0417 44.8847 61.6417C29.0847 55.2417 41.8847 31.4417 56.8847 40.4417H56.9847Z"/>
</mask>
<path d="M56.9847 40.4417L61.7847 36.8417L59.9847 34.4417H56.9847V40.4417ZM54.1847 44.8417L53.008 38.9582L52.6418 39.0315L52.2874 39.1496L54.1847 44.8417ZM49.2847 43.9417L48.9105 37.9534L48.8718 37.9558L48.8332 37.9587L49.2847 43.9417ZM55.9847 51.8417L61.9811 51.6313L61.7034 43.7184L54.1605 46.1257L55.9847 51.8417ZM51.2847 53.3417L49.8295 59.1626L51.4842 59.5762L53.109 59.0577L51.2847 53.3417ZM49.4847 48.9417L47.4177 43.309L45.9062 43.8637L44.8754 45.1006L49.4847 48.9417ZM60.3847 44.9417L65.7097 42.1768L63.2759 37.4895L58.3177 39.309L60.3847 44.9417ZM44.8847 61.6417L47.1485 56.0851L47.1373 56.0806L44.8847 61.6417ZM56.8847 40.4417L53.7978 45.5867L55.2228 46.4417H56.8847V40.4417ZM56.9847 40.4417L52.1847 44.0417C51.529 43.1673 51.2476 42.2922 51.1235 41.678C51 41.0671 50.9996 40.5592 51.0167 40.2377C51.0494 39.621 51.1773 39.1741 51.2222 39.0238C51.3213 38.6923 51.4136 38.5276 51.3657 38.6244C51.2999 38.7576 51.1243 39.0689 50.8555 39.4821C50.5946 39.8831 50.3481 40.223 50.1939 40.4155C50.1063 40.5247 50.1278 40.4869 50.243 40.3731C50.2956 40.3211 50.4713 40.1494 50.7468 39.9469C50.8884 39.8427 51.1234 39.6805 51.4385 39.5144C51.7298 39.3607 52.2728 39.1053 53.008 38.9582L54.1847 44.8417L55.3614 50.7252C56.7237 50.4527 57.6349 49.7769 57.857 49.6135C58.2253 49.3426 58.5079 49.0765 58.6788 48.9075C59.0307 48.5597 59.335 48.1978 59.5569 47.9211C60.0214 47.3416 60.4999 46.6628 60.914 46.0263C61.3202 45.402 61.7696 44.6571 62.1225 43.9433C62.284 43.6167 62.5342 43.081 62.7199 42.4592C62.8082 42.1637 62.9617 41.592 62.9998 40.8742C63.0283 40.3381 63.0718 38.5577 61.7847 36.8417L56.9847 40.4417ZM54.1847 44.8417L52.2874 39.1496C53.1207 38.8718 53.7861 38.8797 54.0384 38.8906C54.1922 38.8972 54.307 38.9109 54.372 38.9201C54.4384 38.9294 54.4777 38.9375 54.4833 38.9387C54.486 38.9392 54.4312 38.9275 54.2838 38.8861C54.1358 38.8445 53.9701 38.7947 53.7285 38.7219C53.3094 38.5956 52.6181 38.3847 51.9004 38.2252C51.2117 38.0722 50.1289 37.8772 48.9105 37.9534L49.2847 43.9417L49.659 49.93C49.2406 49.9562 49.0577 49.8862 49.2972 49.9394C49.5077 49.9862 49.7726 50.0628 50.2659 50.2115C50.6416 50.3247 51.355 50.5452 52.0456 50.6885C52.411 50.7643 52.9295 50.854 53.5244 50.8795C54.0865 50.9036 55.0238 50.8866 56.0821 50.5338L54.1847 44.8417ZM49.2847 43.9417L48.8332 37.9587C43.292 38.3769 39.6045 42.3621 38.1768 46.4073C36.7456 50.4623 37.1234 55.8694 41.1552 59.6945L45.2847 55.3417L49.4143 50.9889C49.4107 50.9855 49.4206 50.9955 49.4292 51.0118C49.4359 51.0246 49.4285 51.0161 49.4209 50.9744C49.4026 50.8749 49.3999 50.6639 49.4927 50.4011C49.5856 50.1377 49.7189 49.9796 49.7883 49.9199C49.8286 49.8852 49.794 49.9203 49.7363 49.9247L49.2847 43.9417ZM45.2847 55.3417L41.1552 59.6945C44.6708 63.0298 49.595 64.0795 53.8033 62.8907C58.3592 61.6038 62.189 57.5589 61.9811 51.6313L55.9847 51.8417L49.9884 52.0521C49.9916 52.1415 49.9779 52.1118 50.0123 52.0011C50.0474 51.8879 50.1134 51.7533 50.2127 51.6259C50.4153 51.3659 50.595 51.3274 50.5412 51.3427C50.4786 51.3603 50.2936 51.3867 50.0406 51.3255C49.8034 51.2681 49.5873 51.1531 49.4143 50.9889L45.2847 55.3417ZM55.9847 51.8417L54.1605 46.1257L49.4605 47.6257L51.2847 53.3417L53.109 59.0577L57.809 57.5577L55.9847 51.8417ZM51.2847 53.3417L52.74 47.5208C53.5805 47.731 54.1806 48.085 54.5152 48.314C54.865 48.5533 55.1052 48.7804 55.2384 48.9161C55.495 49.1774 55.6156 49.3677 55.6168 49.3696C55.6303 49.3902 55.5487 49.2579 55.4439 49.0037C55.3359 48.7418 55.3157 48.624 55.3318 48.7067C55.3368 48.7321 55.3981 49.0303 55.3823 49.4972C55.3741 49.7399 55.3414 50.1595 55.2001 50.6748C55.0614 51.1805 54.7623 51.9809 54.0941 52.7828L49.4847 48.9417L44.8754 45.1006C43.5103 46.7387 43.408 48.5325 43.3891 49.0924C43.3628 49.8719 43.4655 50.5513 43.5533 51.0017C43.7351 51.9344 44.0461 52.8416 44.3506 53.5797C44.6583 54.3255 45.0705 55.1682 45.5746 55.9388C45.8211 56.3157 46.1862 56.8247 46.676 57.3236C47.034 57.6881 48.102 58.7307 49.8295 59.1626L51.2847 53.3417ZM49.4847 48.9417L51.5518 54.5744L62.4518 50.5744L60.3847 44.9417L58.3177 39.309L47.4177 43.309L49.4847 48.9417ZM60.3847 44.9417L55.0598 47.7066C57.7593 52.9057 53.0394 58.4851 47.1485 56.0851L44.8847 61.6417L42.621 67.1982C58.3301 73.5983 73.8102 57.7777 65.7097 42.1768L60.3847 44.9417ZM44.8847 61.6417L47.1373 56.0806C44.8029 55.135 44.0565 53.8592 43.787 52.8357C43.4593 51.5912 43.645 49.8767 44.5896 48.1627C45.5277 46.4604 46.9571 45.2371 48.4315 44.7241C49.7345 44.2707 51.4998 44.2078 53.7978 45.5867L56.8847 40.4417L59.9717 35.2967C54.7697 32.1756 49.31 31.7127 44.4879 33.3906C39.8374 35.0088 36.2418 38.448 34.0799 42.3707C31.9245 46.2817 30.9352 51.1546 32.1825 55.8914C33.488 60.8491 37.0666 64.9484 42.6322 67.2028L44.8847 61.6417ZM56.8847 40.4417V46.4417H56.9847V40.4417V34.4417H56.8847V40.4417Z" fill="#F5B037" mask="url(#path-3-inside-1_24_173)"/>
<path d="M165.74 46.0147C165.238 46.9016 164.605 47.6408 163.878 48.2383C164.029 47.8409 164.115 47.4019 164.108 46.9278C164.097 46.21 163.875 45.6106 163.632 45.1563L165.74 46.0147Z" stroke="#F5B037" stroke-width="6"/>
<path d="M95.351 32.6787L96.181 34.2002L97.7728 34.2373C97.5073 34.3584 97.2425 34.4942 96.9799 34.6465L95.6459 35.4189L95.1752 32.3281C95.2333 32.4523 95.2916 32.57 95.351 32.6787ZM105.113 32.8975C104.7 33.5372 104.393 34.2976 104.36 34.6729C104.364 34.761 104.375 34.8641 104.388 34.9688C103.873 34.5739 103.276 34.2079 102.596 33.9551C102.563 33.9426 102.528 33.9317 102.495 33.9199C103.356 33.7344 104.264 33.434 105.083 32.918C105.093 32.9117 105.103 32.9037 105.113 32.8975ZM109.075 32.2139C109.106 32.2353 109.136 32.2569 109.164 32.2783C109.138 32.259 109.106 32.2363 109.075 32.2139ZM108.603 31.9502C108.71 31.9972 108.809 32.0502 108.9 32.1035C108.81 32.0549 108.677 31.9868 108.541 31.9258C108.562 31.9341 108.583 31.9413 108.603 31.9502ZM106.807 31.7939C107.22 31.6907 107.677 31.6818 108.132 31.792C107.737 31.7446 107.01 31.787 106.366 31.9463C106.493 31.8884 106.64 31.8356 106.807 31.7939ZM94.9437 23.8867C94.5069 24.461 94.2771 25.0843 94.1537 25.6113L93.9174 24.0596C94.2602 24.0048 94.6031 23.9459 94.9437 23.8867Z" stroke="#F5B037" stroke-width="6"/>
<path d="M70.9847 46.77L73.2445 46.9028C73.2314 46.9117 73.2174 46.9203 73.2045 46.9292C73.0166 47.058 72.663 47.3056 72.3422 47.6401L72.2074 47.7896C71.1949 48.9708 71.1138 50.4215 71.0795 50.9028C71.0668 51.0806 71.0605 51.1916 71.056 51.2769C71.0329 51.2887 71.0095 51.3017 70.9847 51.314V46.77ZM85.9916 45.0737C85.9372 45.0983 85.8839 45.1226 85.8314 45.146C85.8133 45.1322 85.7942 45.1178 85.7748 45.103C85.2095 44.6734 83.9199 43.677 82.1459 43.5542L81.7845 43.5415C81.6246 43.5415 81.4627 43.5525 81.3002 43.5679L82.6244 42.2446L80.7094 40.1294L79.3119 38.5854L85.9916 45.0737ZM75.7006 35.0767L75.2211 34.9897L74.8295 34.9321C74.3595 34.8817 73.675 34.881 72.9652 35.1743C72.4129 35.4027 71.8972 35.788 71.516 36.3364C71.196 36.7968 71.0536 37.2578 70.9847 37.6099V33.1733L72.8627 32.3198L75.7006 35.0767Z" stroke="#F5B037" stroke-width="6"/>
<path d="M137.033 41.6396C136.98 41.6257 136.927 41.614 136.876 41.6005C136.864 41.5972 136.851 41.593 136.839 41.5898C136.811 41.4559 136.776 41.2908 136.729 41.1171C136.62 40.708 136.428 40.1331 136.034 39.5497L135.853 39.2997L135.662 39.0751C135.562 38.966 135.457 38.8682 135.354 38.7783L135.805 38.829L135.473 35.1699C135.469 35.1343 135.46 34.9728 135.447 34.7275L137.033 41.6396ZM125.142 32.9628C125.023 33.3367 124.888 33.8579 124.869 34.4326C124.859 34.7592 124.877 35.392 125.176 36.0624C124.413 36.1395 123.688 36.3619 123.022 36.7538C122.75 36.9146 122.51 37.0935 122.297 37.2753L125.232 32.6933C125.2 32.7834 125.17 32.8734 125.142 32.9628ZM132.919 23.7089L133.891 27.9443C133.688 27.6808 133.436 27.4115 133.119 27.1728C132.34 26.5853 131.318 26.2895 130.231 26.4931L129.63 26.6064L129.121 26.9453C128.975 27.0428 128.839 27.15 128.716 27.2558L131.111 23.5185L132.919 23.7089Z" stroke="#F5B037" stroke-width="6"/>
<path d="M175.776 56.9964C175.868 57.2952 175.994 57.5973 176.162 57.8987C176.162 57.8997 176.163 57.9007 176.164 57.9017L175.511 57.6487L175.776 56.9964ZM179.137 48.7278C179.165 48.8475 179.198 48.9684 179.239 49.0901L179.635 50.2767L179.77 50.3441L178.943 50.7581L178.152 51.1526L179.137 48.7278ZM182.772 42.3401C182.215 42.5263 181.764 42.8108 181.442 43.0599L181.894 41.9476L182.772 42.3401Z" stroke="#F5B037" stroke-width="6"/>
<path d="M127.485 192.442L122.585 198.242L123.485 205.442L116.785 202.442L109.985 205.442L110.885 198.342L105.985 192.442L112.985 191.242L116.785 184.942L120.485 191.142L127.485 192.442Z" fill="url(#paint0_linear_24_173)"/>
<path d="M93.4847 190.442C94.1847 194.842 96.4847 195.242 100.485 195.442C101.185 196.142 97.3847 198.842 97.0847 199.842C96.5847 201.442 99.0847 205.742 96.7847 205.442C94.4847 205.142 93.8847 203.142 92.6847 203.142C91.4847 203.142 87.8847 205.942 87.4847 205.442C87.0847 203.642 88.3847 201.542 87.8847 199.842C87.3847 198.142 84.4847 197.542 84.9847 195.442C85.1847 195.242 88.6847 195.042 89.4847 194.642C91.0847 193.842 90.8847 189.842 93.4847 190.442Z" fill="url(#paint1_linear_24_173)"/>
<path d="M148.985 195.442C149.685 196.142 145.885 198.842 145.585 199.842C145.085 201.542 146.385 203.642 145.985 205.442C145.785 205.742 142.285 203.542 141.185 203.442C139.085 203.342 137.885 205.242 135.985 205.442C135.585 203.642 136.885 201.542 136.385 199.842C135.885 198.142 132.285 196.142 132.985 195.442L138.385 194.842L140.685 190.442C142.285 190.042 142.585 194.042 143.885 194.642L148.885 195.442H148.985Z" fill="url(#paint2_linear_24_173)"/>
<path d="M75.4847 196.542C75.7847 196.742 76.5847 200.342 79.4847 199.542C77.4847 201.642 77.3847 202.742 77.9847 205.542C76.6847 205.742 75.7847 204.042 74.7847 204.042C73.7847 204.042 72.7847 205.742 71.5847 205.542C72.3847 202.742 71.9847 201.642 70.0847 199.542C70.7847 199.342 73.1847 199.242 73.4847 198.942C73.7847 198.642 73.6847 195.342 75.4847 196.542Z" fill="url(#paint3_linear_24_173)"/>
<path d="M159.485 196.442C159.685 198.742 161.385 199.342 163.485 199.442C163.685 200.842 161.785 201.242 161.585 202.342C161.385 203.442 162.085 204.442 161.985 205.442C160.785 205.542 160.285 204.142 159.185 204.042C158.085 203.942 155.685 206.542 155.685 204.442C155.685 202.342 156.285 201.742 153.985 199.442C156.985 199.742 157.385 197.242 159.485 196.442Z" fill="url(#paint4_linear_24_173)"/>
<path d="M95.9847 64.4417V76.4417H109.485C107.785 70.2417 109.785 64.3417 100.985 68.4417C98.9847 63.6417 107.285 63.7417 110.085 65.5417C114.185 68.1417 111.085 72.9417 113.485 75.7417C115.885 78.5417 115.585 76.2417 114.985 78.9417H92.1847L91.3847 78.1417V66.9417C85.2847 66.6417 86.5847 74.7417 86.3847 78.9417H73.1847C72.6847 78.9417 69.8847 77.7417 69.2847 77.3417C66.2847 75.3417 65.6847 71.5417 65.8847 68.2417L69.8847 66.9417C69.4847 69.5417 69.8847 76.4417 73.6847 76.4417H82.4847C81.0847 66.1417 86.5847 63.4417 95.9847 64.4417Z" fill="url(#paint5_linear_24_173)"/>
<path d="M138.485 68.9417L147.285 59.0417L151.485 59.2417L145.485 66.5417H155.685C156.585 66.5417 159.885 69.7417 159.885 70.7417V78.9417H133.685C133.385 78.9417 131.585 77.8417 131.485 77.9417C131.785 83.1417 128.285 85.2417 123.485 85.4417V83.2417C124.585 83.1417 127.485 82.0417 127.485 80.7417V64.5417H131.485V73.3417C131.485 74.2417 133.385 76.5417 134.285 76.5417H156.085L155.785 70.6417C155.585 70.1417 153.485 69.0417 153.385 69.0417H138.585L138.485 68.9417Z" fill="url(#paint6_linear_24_173)"/>
<path d="M117.485 78.9417V59.4417L120.985 59.6417L121.385 78.1417L120.685 78.8417L117.485 78.9417Z" fill="url(#paint7_linear_24_173)"/>
<path d="M74.0847 82.0417C75.5847 80.5417 78.2847 81.6417 77.9847 84.1417C77.4847 88.0417 71.5847 84.5417 74.0847 82.0417Z" fill="url(#paint8_linear_24_173)"/>
<path d="M79.0847 82.0417C80.3847 80.7417 83.0847 81.4417 82.9847 83.6417C82.6847 88.3417 76.4847 84.6417 79.0847 82.0417Z" fill="url(#paint9_linear_24_173)"/>
<path d="M109.385 81.5417C110.385 82.6417 109.785 85.7417 107.385 85.3417C102.985 84.6417 106.985 78.8417 109.385 81.5417Z" fill="url(#paint10_linear_24_173)"/>
<defs>
<linearGradient id="paint0_linear_24_173" x1="37.6847" y1="112.742" x2="195.485" y2="112.742" gradientUnits="userSpaceOnUse">
<stop stop-color="#F5B037"/>
<stop offset="1" stop-color="#D98E13"/>
</linearGradient>
<linearGradient id="paint1_linear_24_173" x1="37.6847" y1="112.742" x2="195.485" y2="112.742" gradientUnits="userSpaceOnUse">
<stop stop-color="#F5B037"/>
<stop offset="1" stop-color="#D98E13"/>
</linearGradient>
<linearGradient id="paint2_linear_24_173" x1="37.6847" y1="112.742" x2="195.485" y2="112.742" gradientUnits="userSpaceOnUse">
<stop stop-color="#F5B037"/>
<stop offset="1" stop-color="#D98E13"/>
</linearGradient>
<linearGradient id="paint3_linear_24_173" x1="37.6847" y1="112.742" x2="195.485" y2="112.742" gradientUnits="userSpaceOnUse">
<stop stop-color="#F5B037"/>
<stop offset="1" stop-color="#D98E13"/>
</linearGradient>
<linearGradient id="paint4_linear_24_173" x1="37.6847" y1="112.742" x2="195.485" y2="112.742" gradientUnits="userSpaceOnUse">
<stop stop-color="#F5B037"/>
<stop offset="1" stop-color="#D98E13"/>
</linearGradient>
<linearGradient id="paint5_linear_24_173" x1="37.6847" y1="112.742" x2="195.485" y2="112.742" gradientUnits="userSpaceOnUse">
<stop stop-color="#F5B037"/>
<stop offset="1" stop-color="#D98E13"/>
</linearGradient>
<linearGradient id="paint6_linear_24_173" x1="37.6847" y1="112.742" x2="195.485" y2="112.742" gradientUnits="userSpaceOnUse">
<stop stop-color="#F5B037"/>
<stop offset="1" stop-color="#D98E13"/>
</linearGradient>
<linearGradient id="paint7_linear_24_173" x1="37.6849" y1="112.742" x2="195.485" y2="112.742" gradientUnits="userSpaceOnUse">
<stop stop-color="#F5B037"/>
<stop offset="1" stop-color="#D98E13"/>
</linearGradient>
<linearGradient id="paint8_linear_24_173" x1="37.6847" y1="112.742" x2="195.485" y2="112.742" gradientUnits="userSpaceOnUse">
<stop stop-color="#F5B037"/>
<stop offset="1" stop-color="#D98E13"/>
</linearGradient>
<linearGradient id="paint9_linear_24_173" x1="37.6847" y1="112.742" x2="195.485" y2="112.742" gradientUnits="userSpaceOnUse">
<stop stop-color="#F5B037"/>
<stop offset="1" stop-color="#D98E13"/>
</linearGradient>
<linearGradient id="paint10_linear_24_173" x1="37.6847" y1="112.742" x2="195.485" y2="112.742" gradientUnits="userSpaceOnUse">
<stop stop-color="#F5B037"/>
<stop offset="1" stop-color="#D98E13"/>
</linearGradient>
</defs>
</svg>
