<svg width="167" height="170" viewBox="0 0 167 170" fill="none" xmlns="http://www.w3.org/2000/svg">
<path d="M156.002 27.3494C154.938 26.5688 153.661 26.0721 152.738 25.1497C135.496 18.5507 117.969 9.18429 100.585 3.15292C90.8634 -0.182069 75.6785 -0.253027 65.9574 3.15292C48.9986 9.04238 32.1817 18.2668 15.1519 24.3692C3.58591 30.6134 -1.66493 42.4633 0.463785 55.3065C4.15356 77.5871 10.5397 100.081 14.7262 122.29C18.2031 132.579 25.2988 142.158 34.4523 147.977C43.393 153.653 55.8105 160.749 65.2478 165.432C80.7165 173.096 93.0631 169.903 107.325 162.097C114.634 158.124 122.581 153.653 129.677 149.325C145.43 139.675 150.184 129.244 154.086 111.647C158.202 93.3396 161.537 74.7488 165.581 56.4419C167.355 45.3016 165.085 34.5161 155.931 27.3494H156.002Z" fill="black"/>
<path d="M98.5391 95.1631C89.5817 96.3444 80.5755 96.538 71.6396 95.749L71.6768 95.2656C80.5715 95.7393 89.4947 95.7524 98.5391 95.1631Z" stroke="#F5B037" stroke-width="15"/>
<mask id="path-3-inside-1_8748_7066" fill="white">
<path d="M40.1297 28.9804C40.3425 29.2643 38.4976 32.0316 38.1429 32.1026C37.5042 32.3154 35.8013 31.393 34.6659 31.4639C30.9052 31.7478 29.0603 36.9276 31.8277 39.5531C34.595 42.1785 39.562 41.1141 39.4201 37.0696L36.0851 38.1339C35.5174 37.992 34.4531 35.4375 34.8079 35.0118L42.5422 32.1735C46.3739 39.5531 39.2072 47.1455 31.5438 44.0234C20.3326 39.4821 29.4151 22.5943 40.0587 28.9804H40.1297Z"/>
</mask>
<path d="M40.1297 28.9804L44.9297 25.3804L43.1297 22.9804H40.1297V28.9804ZM38.1429 32.1026L36.9662 26.2191L36.5999 26.2923L36.2455 26.4105L38.1429 32.1026ZM34.6659 31.4639L34.2917 25.4756L34.253 25.478L34.2144 25.481L34.6659 31.4639ZM39.4201 37.0696L45.4164 36.8592L45.1388 28.9463L37.5959 31.3536L39.4201 37.0696ZM36.0851 38.1339L34.6299 43.9548L36.2845 44.3684L37.9093 43.8499L36.0851 38.1339ZM34.8079 35.0118L32.7408 29.3791L31.2293 29.9338L30.1985 31.1707L34.8079 35.0118ZM42.5422 32.1735L47.8672 29.4086L45.4334 24.7213L40.4752 26.5408L42.5422 32.1735ZM31.5438 44.0234L33.8076 38.4668L33.7964 38.4623L31.5438 44.0234ZM40.0587 28.9804L36.9717 34.1254L38.3968 34.9804H40.0587V28.9804ZM40.1297 28.9804L35.3297 32.5804C34.0747 30.9071 34.1309 29.1928 34.1548 28.7432C34.1883 28.1119 34.3199 27.6469 34.3711 27.4755C34.4354 27.2603 34.4969 27.1086 34.5242 27.0436C34.5552 26.97 34.5766 26.9264 34.5805 26.9186C34.5866 26.9063 34.5672 26.9457 34.5124 27.0393C34.461 27.1268 34.3954 27.2332 34.3199 27.3493C34.157 27.5995 34.0158 27.7915 33.9514 27.8719C33.9088 27.9251 33.9714 27.8402 34.1209 27.6924C34.1907 27.6235 34.3819 27.4381 34.6709 27.2256C34.8136 27.1206 35.6573 26.4808 36.9662 26.2191L38.1429 32.1026L39.3196 37.986C40.6727 37.7154 41.5724 37.0457 41.7811 36.8923C42.1359 36.6313 42.403 36.3789 42.5567 36.2269C42.8742 35.9131 43.1375 35.5982 43.3144 35.3775C43.689 34.9102 44.0623 34.3793 44.3784 33.8934C44.6865 33.4198 45.0452 32.8282 45.3373 32.2375C45.4684 31.9723 45.6956 31.4905 45.8688 30.9109C45.9508 30.6365 46.1005 30.0829 46.1379 29.3797C46.1656 28.8584 46.2112 27.0892 44.9297 25.3804L40.1297 28.9804ZM38.1429 32.1026L36.2455 26.4105C37.1115 26.1218 37.8164 26.1261 38.1137 26.1388C38.4438 26.153 38.6652 26.1987 38.7087 26.2077C38.7661 26.2196 38.7702 26.2231 38.6845 26.199C38.5983 26.1748 38.4973 26.1445 38.322 26.0917C38.0353 26.0053 37.4828 25.8361 36.9 25.7066C36.3461 25.5835 35.3939 25.4067 34.2917 25.4756L34.6659 31.4639L35.0402 37.4523C34.5056 37.4857 34.1921 37.3976 34.2968 37.4208C34.3725 37.4377 34.4985 37.4725 34.8594 37.5813C35.1025 37.6545 35.6897 37.8369 36.271 37.9575C36.5817 38.022 37.0497 38.1042 37.5997 38.1278C38.1168 38.15 39.0146 38.1365 40.0402 37.7947L38.1429 32.1026ZM34.6659 31.4639L34.2144 25.481C29.4428 25.8411 26.3289 29.2672 25.1408 32.6335C23.9493 36.0096 24.2326 40.6181 27.6981 43.9058L31.8277 39.5531L35.9572 35.2003C36.26 35.4875 36.4234 35.8501 36.4766 36.1401C36.5228 36.3923 36.4838 36.5507 36.4567 36.6273C36.4299 36.7034 36.3598 36.8548 36.1597 37.0269C35.9305 37.2241 35.56 37.4135 35.1175 37.4469L34.6659 31.4639ZM31.8277 39.5531L27.6981 43.9058C30.6474 46.7039 34.7802 47.5939 38.3459 46.5866C42.2592 45.4811 45.5953 41.9591 45.4164 36.8592L39.4201 37.0696L33.4238 37.28C33.4136 36.9904 33.5098 36.4101 33.9498 35.8454C34.3525 35.3286 34.8164 35.1141 35.0838 35.0385C35.5096 34.9182 35.7753 35.0277 35.9572 35.2003L31.8277 39.5531ZM39.4201 37.0696L37.5959 31.3536L34.2609 32.418L36.0851 38.1339L37.9093 43.8499L41.2443 42.7855L39.4201 37.0696ZM36.0851 38.1339L37.5403 32.3131C39.0969 32.7022 39.9752 33.6112 40.1339 33.7728C40.4244 34.0686 40.5804 34.3052 40.6172 34.3615C40.702 34.491 40.6922 34.5003 40.6472 34.3913C40.5991 34.2747 40.627 34.3056 40.6672 34.5118C40.6842 34.5989 40.7515 34.9525 40.7342 35.4648C40.7243 35.7576 40.6755 37.343 39.4172 38.8529L34.8079 35.0118L30.1985 31.1707C28.8516 32.787 28.7584 34.5454 28.741 35.06C28.7162 35.794 28.8129 36.4181 28.8887 36.8068C29.0464 37.6161 29.3094 38.3744 29.5539 38.9673C29.8017 39.5679 30.1422 40.269 30.5751 40.9307C30.786 41.2531 31.1155 41.7159 31.5715 42.1802C31.8956 42.5103 32.9313 43.5301 34.6299 43.9548L36.0851 38.1339ZM34.8079 35.0118L36.8749 40.6445L44.6093 37.8062L42.5422 32.1735L40.4752 26.5408L32.7408 29.3791L34.8079 35.0118ZM42.5422 32.1735L37.2172 34.9384C37.9114 36.2754 37.5812 37.2857 36.9695 37.9404C36.3341 38.6204 35.2499 39.0544 33.8076 38.4668L31.5438 44.0234L29.28 49.5799C41.8526 54.7021 54.3994 41.9891 47.8672 29.4086L42.5422 32.1735ZM31.5438 44.0234L33.7964 38.4623C32.6092 37.9814 32.4908 37.4861 32.45 37.3312C32.351 36.9552 32.3661 36.1973 32.8605 35.3001C33.3485 34.4146 34.0482 33.8684 34.6332 33.6649C35.0467 33.521 35.7628 33.4 36.9717 34.1254L40.0587 28.9804L43.1457 23.8355C39.0328 21.3677 34.6222 20.963 30.6896 22.3314C26.9285 23.6401 24.0626 26.4023 22.3509 29.5081C20.6456 32.6023 19.827 36.5187 20.8456 40.3869C21.9223 44.476 24.8728 47.7947 29.2912 49.5845L31.5438 44.0234ZM40.0587 28.9804V34.9804H40.1297V28.9804V22.9804H40.0587V28.9804Z" fill="#F5B037" mask="url(#path-3-inside-1_8748_7066)"/>
<mask id="path-5-inside-2_8748_7066" fill="white">
<path d="M120.311 28.2716L116.976 28.9102C115.841 27.4911 115.699 26.2139 113.854 25.3624C106.971 22.1693 104.204 34.374 112.009 34.303C115.912 34.303 113.286 32.2452 111.087 31.5357L112.364 28.6264L120.027 31.7485C117.828 40.7601 104.629 39.6248 103.352 30.8261C101.791 19.6148 118.253 17.4152 120.382 28.2007L120.311 28.2716Z"/>
</mask>
<path d="M120.311 28.2716L121.439 34.1646L123.25 33.8178L124.554 32.514L120.311 28.2716ZM116.976 28.9102L112.291 32.6584L114.551 35.4836L118.104 34.8032L116.976 28.9102ZM113.854 25.3624L111.329 30.8052L111.34 30.8101L113.854 25.3624ZM112.009 34.303V28.303H111.982L111.955 28.3032L112.009 34.303ZM111.087 31.5357L105.593 29.1237L102.922 35.2065L109.245 37.2459L111.087 31.5357ZM112.364 28.6264L114.628 23.0699L109.218 20.866L106.87 26.2145L112.364 28.6264ZM120.027 31.7485L125.856 33.1713L127.083 28.1443L122.291 26.192L120.027 31.7485ZM103.352 30.8261L97.4096 31.6536L97.412 31.6708L97.4145 31.688L103.352 30.8261ZM120.382 28.2007L124.625 32.4431L126.888 30.1794L126.268 27.0389L120.382 28.2007ZM120.311 28.2716L119.183 22.3787L115.848 23.0173L116.976 28.9102L118.104 34.8032L121.439 34.1646L120.311 28.2716ZM116.976 28.9102L121.661 25.1621C121.614 25.1029 121.547 25.0097 121.399 24.7648C121.313 24.6231 120.965 24.0267 120.651 23.5616C119.772 22.2622 118.491 20.8945 116.368 19.9146L113.854 25.3624L111.34 30.8101C111.288 30.7865 111.13 30.7012 110.945 30.5345C110.769 30.3757 110.687 30.2489 110.711 30.2853C110.73 30.3129 110.766 30.3687 110.841 30.4926C110.879 30.5549 110.917 30.6193 110.969 30.7057C111.017 30.7866 111.076 30.8856 111.139 30.989C111.394 31.4094 111.77 32.008 112.291 32.6584L116.976 28.9102ZM113.854 25.3624L116.379 19.9196C113.019 18.361 109.383 18.4515 106.374 20.3409C103.636 22.0601 102.119 24.8247 101.561 27.3832C101.003 29.9424 101.226 33.1176 103.061 35.8398C105.069 38.8205 108.385 40.3362 112.064 40.3028L112.009 34.303L111.955 28.3032C111.764 28.305 111.896 28.2695 112.194 28.4149C112.508 28.5678 112.803 28.8236 113.012 29.1341C113.206 29.4215 113.265 29.6618 113.282 29.7764C113.299 29.8874 113.286 29.9369 113.286 29.9406C113.285 29.9443 113.277 29.9855 113.225 30.0662C113.171 30.1489 113.033 30.3292 112.755 30.5036C112.454 30.6926 112.082 30.8137 111.712 30.8282C111.354 30.8421 111.208 30.7492 111.329 30.8052L113.854 25.3624ZM112.009 34.303V40.303C112.726 40.303 113.522 40.2585 114.322 40.1035C115.034 39.9655 116.27 39.6451 117.452 38.7466C118.873 37.6663 120.045 35.837 120.012 33.527C119.984 31.6197 119.133 30.26 118.67 29.6311C117.732 28.3549 116.493 27.536 115.764 27.1042C114.895 26.5901 113.912 26.1428 112.929 25.8254L111.087 31.5357L109.245 37.2459C109.361 37.2834 109.531 37.3593 109.651 37.4307C109.911 37.5842 109.497 37.4128 109.002 36.7398C108.762 36.4124 108.037 35.3432 108.013 33.702C107.983 31.6581 109.037 30.0705 110.189 29.1942C111.103 28.4997 111.921 28.3456 112.038 28.3228C112.243 28.2832 112.268 28.303 112.009 28.303V34.303ZM111.087 31.5357L116.58 33.9476L117.858 31.0384L112.364 28.6264L106.87 26.2145L105.593 29.1237L111.087 31.5357ZM112.364 28.6264L110.1 34.183L117.763 37.3051L120.027 31.7485L122.291 26.192L114.628 23.0699L112.364 28.6264ZM120.027 31.7485L114.198 30.3257C114.006 31.1138 113.67 31.4386 113.392 31.6202C113.038 31.8518 112.469 32.0294 111.756 31.9804C111.042 31.9312 110.425 31.6686 110.016 31.33C109.666 31.0397 109.388 30.6392 109.29 29.9642L103.352 30.8261L97.4145 31.688C98.5382 39.4291 104.969 43.5412 110.931 43.952C117.013 44.3709 123.937 41.0326 125.856 33.1713L120.027 31.7485ZM103.352 30.8261L109.295 29.9986C109.123 28.7672 109.455 28.2594 109.648 28.0303C109.932 27.6926 110.5 27.3241 111.339 27.2033C112.177 27.0825 112.93 27.2641 113.426 27.5736C113.814 27.8157 114.279 28.266 114.496 29.3625L120.382 28.2007L126.268 27.0389C124.465 17.9026 116.319 14.3619 109.628 15.3259C106.28 15.8082 102.893 17.4176 100.462 20.3085C97.9409 23.308 96.8005 27.2794 97.4096 31.6536L103.352 30.8261ZM120.382 28.2007L116.139 23.9583L116.068 24.0292L120.311 28.2716L124.554 32.514L124.625 32.4431L120.382 28.2007Z" fill="#F5B037" mask="url(#path-5-inside-2_8748_7066)"/>
<path d="M77.1055 22.1572C77.2229 22.2086 77.3298 22.2668 77.4277 22.3252C77.3274 22.2703 77.1639 22.1879 77.0049 22.1182C77.0382 22.1313 77.0724 22.1427 77.1055 22.1572ZM76.6826 22.0117C76.6756 22.0107 76.6684 22.0097 76.6611 22.0088C76.6615 22.0078 76.6618 22.0068 76.6621 22.0059C76.669 22.0076 76.6757 22.0099 76.6826 22.0117Z" stroke="#F5B037" stroke-width="6"/>
<path d="M51.3271 24.3652C51.2638 24.3869 51.1999 24.411 51.1357 24.4375C51.068 24.4655 51.001 24.4964 50.9346 24.5293V24.3838L51.2148 24.2559L51.3271 24.3652Z" stroke="#F5B037" stroke-width="6"/>
<path d="M93.2998 17.9092L93.3799 18.2588C93.2501 18.2281 93.1173 18.206 92.9824 18.1904L93.1719 17.8955L93.2998 17.9092Z" stroke="#F5B037" stroke-width="6"/>
<mask id="path-10-inside-3_8748_7066" fill="white">
<path d="M134.148 40.6889L127.62 38.2054L126.91 38.5602C126.555 39.1279 126.2 39.6955 126.555 40.3341C126.91 40.9727 132.587 43.1724 133.864 43.5272L132.587 46.7203L121.446 42.3919L127.62 27.207L138.405 32.0321L137.199 35.3671L130.316 32.316C129.535 32.245 128.684 33.8061 128.897 34.4447L135.07 37.4958L134.148 40.6889Z"/>
</mask>
<path d="M134.148 40.6889L132.014 46.2968L138.104 48.6135L139.912 42.3542L134.148 40.6889ZM127.62 38.2054L129.753 32.5975L127.292 31.6611L124.936 32.8389L127.62 38.2054ZM126.91 38.5602L124.227 33.1936L122.717 33.9486L121.822 35.3802L126.91 38.5602ZM133.864 43.5272L139.435 45.7555L141.922 39.5383L135.47 37.7461L133.864 43.5272ZM132.587 46.7203L130.414 52.313L135.951 54.4645L138.157 48.9486L132.587 46.7203ZM121.446 42.3919L115.888 40.1322L113.593 45.7776L119.273 47.9846L121.446 42.3919ZM127.62 27.207L130.07 21.7301L124.4 19.1938L122.061 24.9474L127.62 27.207ZM138.405 32.0321L144.047 34.0729L145.943 28.8314L140.855 26.5552L138.405 32.0321ZM137.199 35.3671L134.767 40.8523L140.652 43.4609L142.841 37.4079L137.199 35.3671ZM130.316 32.316L132.748 26.8308L131.844 26.4301L130.859 26.3406L130.316 32.316ZM128.897 34.4447L123.205 36.342L123.996 38.7152L126.238 39.8235L128.897 34.4447ZM135.07 37.4958L140.834 39.1611L142.227 34.3403L137.729 32.117L135.07 37.4958ZM134.148 40.6889L136.281 35.081L129.753 32.5975L127.62 38.2054L125.486 43.8133L132.014 46.2968L134.148 40.6889ZM127.62 38.2054L124.936 32.8389L124.227 33.1936L126.91 38.5602L129.593 43.9268L130.303 43.572L127.62 38.2054ZM126.91 38.5602L121.822 35.3802C121.747 35.5004 121.088 36.4804 120.724 37.6805C120.252 39.2377 120.208 41.2639 121.31 43.248L126.555 40.3341L131.8 37.4203C132.118 37.992 132.34 38.6785 132.395 39.4306C132.448 40.1588 132.331 40.7573 132.209 41.1606C132.093 41.542 131.96 41.7901 131.929 41.8487C131.903 41.8958 131.891 41.9115 131.998 41.7402L126.91 38.5602ZM126.555 40.3341L121.31 43.248C121.877 44.2683 122.606 44.8844 122.835 45.0759C123.167 45.3533 123.481 45.5642 123.698 45.7023C124.138 45.9825 124.6 46.2268 124.98 46.4172C125.765 46.8102 126.695 47.218 127.562 47.5783C129.211 48.2629 131.239 49.0252 132.258 49.3083L133.864 43.5272L135.47 37.7461C135.483 37.7497 135.387 37.722 135.143 37.6386C134.923 37.5631 134.644 37.4632 134.32 37.343C133.671 37.1023 132.902 36.8021 132.165 36.496C131.409 36.1821 130.774 35.898 130.354 35.688C130.133 35.5768 130.083 35.5417 130.14 35.578C130.165 35.5941 130.319 35.6919 130.529 35.8668C130.637 35.9573 130.81 36.1102 131.008 36.3242C131.193 36.5233 131.506 36.8907 131.8 37.4203L126.555 40.3341ZM133.864 43.5272L128.293 41.2989L127.016 44.492L132.587 46.7203L138.157 48.9486L139.435 45.7555L133.864 43.5272ZM132.587 46.7203L134.76 41.1276L123.619 36.7992L121.446 42.3919L119.273 47.9846L130.414 52.313L132.587 46.7203ZM121.446 42.3919L127.005 44.6516L133.178 29.4667L127.62 27.207L122.061 24.9474L115.888 40.1322L121.446 42.3919ZM127.62 27.207L125.169 32.6839L135.955 37.509L138.405 32.0321L140.855 26.5552L130.07 21.7301L127.62 27.207ZM138.405 32.0321L132.763 29.9913L131.557 33.3263L137.199 35.3671L142.841 37.4079L144.047 34.0729L138.405 32.0321ZM137.199 35.3671L139.63 29.8819L132.748 26.8308L130.316 32.316L127.884 37.8012L134.767 40.8523L137.199 35.3671ZM130.316 32.316L130.859 26.3406C128.549 26.1306 126.855 27.1613 126.028 27.8109C125.141 28.5082 124.527 29.315 124.124 29.9696C123.709 30.643 123.347 31.4348 123.118 32.3003C122.936 32.989 122.61 34.5582 123.205 36.342L128.897 34.4447L134.589 32.5473C135.077 34.0118 134.778 35.1465 134.72 35.365C134.616 35.7605 134.474 36.0466 134.344 36.2588C134.225 36.4522 133.957 36.8422 133.442 37.2467C132.988 37.6036 131.692 38.4658 129.773 38.2913L130.316 32.316ZM128.897 34.4447L126.238 39.8235L132.412 42.8747L135.07 37.4958L137.729 32.117L131.555 29.0658L128.897 34.4447ZM135.07 37.4958L129.306 35.8306L128.383 39.0237L134.148 40.6889L139.912 42.3542L140.834 39.1611L135.07 37.4958Z" fill="#F5B037" mask="url(#path-10-inside-3_8748_7066)"/>
<path d="M90.1543 136.835L86.6773 140.951L87.316 146.06L82.5618 143.931L77.7367 146.06L78.3753 141.022L74.8984 136.835L79.8654 135.984L82.5618 131.514L85.1872 135.913L90.1543 136.835Z" fill="url(#paint0_linear_8748_7066)"/>
<path d="M66.0293 135.416C66.526 138.538 68.1581 138.822 70.9964 138.964C71.4931 139.461 68.7967 141.377 68.5838 142.086C68.229 143.222 70.003 146.273 68.3709 146.06C66.7389 145.847 66.3132 144.428 65.4617 144.428C64.6102 144.428 62.0557 146.415 61.7719 146.06C61.4881 144.783 62.4105 143.293 62.0557 142.086C61.7009 140.88 59.6432 140.454 59.998 138.964C60.1399 138.822 62.6234 138.68 63.1911 138.397C64.3264 137.829 64.1845 134.991 66.0293 135.416Z" fill="url(#paint1_linear_8748_7066)"/>
<path d="M105.41 138.964C105.907 139.461 103.21 141.377 102.998 142.086C102.643 143.293 103.565 144.783 103.281 146.06C103.14 146.273 100.656 144.712 99.8755 144.641C98.3854 144.57 97.5339 145.918 96.1857 146.06C95.9019 144.783 96.8243 143.293 96.4695 142.086C96.1147 140.88 93.5603 139.461 94.057 138.964L97.8887 138.539L99.5207 135.416C100.656 135.133 100.869 137.971 101.791 138.397L105.339 138.964H105.41Z" fill="url(#paint2_linear_8748_7066)"/>
<path d="M53.2565 139.744C53.4694 139.886 54.037 142.441 56.0948 141.873C54.6756 143.363 54.6047 144.144 55.0304 146.13C54.108 146.272 53.4694 145.066 52.7598 145.066C52.0502 145.066 51.3407 146.272 50.4892 146.13C51.0568 144.144 50.773 143.363 49.4248 141.873C49.9215 141.731 51.6245 141.66 51.8374 141.447C52.0502 141.234 51.9793 138.893 53.2565 139.744Z" fill="url(#paint3_linear_8748_7066)"/>
<path d="M112.861 139.674C113.003 141.306 114.209 141.732 115.699 141.803C115.841 142.796 114.493 143.08 114.351 143.86C114.209 144.641 114.706 145.35 114.635 146.06C113.783 146.131 113.428 145.138 112.648 145.067C111.867 144.996 110.164 146.841 110.164 145.35C110.164 143.86 110.59 143.435 108.958 141.803C111.087 142.015 111.371 140.241 112.861 139.674Z" fill="url(#paint4_linear_8748_7066)"/>
<path d="M67.8028 46.0107V54.5256H77.382C76.1758 50.1262 77.5949 45.9397 71.3507 48.849C69.9315 45.443 75.821 45.514 77.8078 46.7912C80.717 48.6361 78.5174 52.0421 80.2203 54.0289C81.9233 56.0157 81.7104 54.3837 81.2847 56.2995H65.1064L64.5388 55.7318V47.7846C60.2104 47.5718 61.1328 53.3193 60.9909 56.2995H51.6245C51.2697 56.2995 49.2829 55.448 48.8572 55.1642C46.7285 53.745 46.3027 51.0487 46.4446 48.7071L49.2829 47.7846C48.9991 49.6295 49.2829 54.5256 51.9793 54.5256H58.2236C57.2302 47.217 61.1328 45.3011 67.8028 46.0107Z" fill="url(#paint5_linear_8748_7066)"/>
<path d="M97.96 49.2035L104.204 42.1787L107.184 42.3206L102.927 47.5005H110.165C110.803 47.5005 113.145 49.7711 113.145 50.4807V56.2992H94.554C94.3412 56.2992 93.0639 55.5187 92.993 55.5896C93.2059 59.2794 90.7224 60.7695 87.3164 60.9114V59.3504C88.0969 59.2794 90.1547 58.4989 90.1547 57.5764V46.0814H92.993V52.3256C92.993 52.9642 94.3412 54.5962 94.9798 54.5962H110.448L110.236 50.4098C110.094 50.055 108.604 49.2744 108.533 49.2744H98.031L97.96 49.2035Z" fill="url(#paint6_linear_8748_7066)"/>
<path d="M83.0586 56.2996V42.4629L85.5421 42.6048L85.8259 55.7319L85.3292 56.2286L83.0586 56.2996Z" fill="url(#paint7_linear_8748_7066)"/>
<path d="M52.2634 58.499C53.3277 57.4346 55.2436 58.2151 55.0307 59.9891C54.6759 62.7564 50.4894 60.2729 52.2634 58.499Z" fill="url(#paint8_linear_8748_7066)"/>
<path d="M55.8112 58.4988C56.7337 57.5764 58.6495 58.0731 58.5785 59.6341C58.3657 62.9691 53.9663 60.3437 55.8112 58.4988Z" fill="url(#paint9_linear_8748_7066)"/>
<path d="M77.3113 58.1438C78.0208 58.9244 77.5951 61.124 75.8921 60.8402C72.77 60.3435 75.6083 56.228 77.3113 58.1438Z" fill="url(#paint10_linear_8748_7066)"/>
<defs>
<linearGradient id="paint0_linear_8748_7066" x1="26.4346" y1="80.2825" x2="138.405" y2="80.2825" gradientUnits="userSpaceOnUse">
<stop stop-color="#F5B037"/>
<stop offset="1" stop-color="#D98E13"/>
</linearGradient>
<linearGradient id="paint1_linear_8748_7066" x1="26.4352" y1="80.2825" x2="138.406" y2="80.2825" gradientUnits="userSpaceOnUse">
<stop stop-color="#F5B037"/>
<stop offset="1" stop-color="#D98E13"/>
</linearGradient>
<linearGradient id="paint2_linear_8748_7066" x1="26.4347" y1="80.2826" x2="138.405" y2="80.2826" gradientUnits="userSpaceOnUse">
<stop stop-color="#F5B037"/>
<stop offset="1" stop-color="#D98E13"/>
</linearGradient>
<linearGradient id="paint3_linear_8748_7066" x1="26.4346" y1="80.282" x2="138.405" y2="80.282" gradientUnits="userSpaceOnUse">
<stop stop-color="#F5B037"/>
<stop offset="1" stop-color="#D98E13"/>
</linearGradient>
<linearGradient id="paint4_linear_8748_7066" x1="26.4347" y1="80.2826" x2="138.405" y2="80.2826" gradientUnits="userSpaceOnUse">
<stop stop-color="#F5B037"/>
<stop offset="1" stop-color="#D98E13"/>
</linearGradient>
<linearGradient id="paint5_linear_8748_7066" x1="26.4347" y1="80.2831" x2="138.405" y2="80.2831" gradientUnits="userSpaceOnUse">
<stop stop-color="#F5B037"/>
<stop offset="1" stop-color="#D98E13"/>
</linearGradient>
<linearGradient id="paint6_linear_8748_7066" x1="26.435" y1="80.2828" x2="138.406" y2="80.2828" gradientUnits="userSpaceOnUse">
<stop stop-color="#F5B037"/>
<stop offset="1" stop-color="#D98E13"/>
</linearGradient>
<linearGradient id="paint7_linear_8748_7066" x1="26.4348" y1="80.2831" x2="138.405" y2="80.2831" gradientUnits="userSpaceOnUse">
<stop stop-color="#F5B037"/>
<stop offset="1" stop-color="#D98E13"/>
</linearGradient>
<linearGradient id="paint8_linear_8748_7066" x1="26.4349" y1="80.2829" x2="138.406" y2="80.2829" gradientUnits="userSpaceOnUse">
<stop stop-color="#F5B037"/>
<stop offset="1" stop-color="#D98E13"/>
</linearGradient>
<linearGradient id="paint9_linear_8748_7066" x1="26.4349" y1="80.2827" x2="138.406" y2="80.2827" gradientUnits="userSpaceOnUse">
<stop stop-color="#F5B037"/>
<stop offset="1" stop-color="#D98E13"/>
</linearGradient>
<linearGradient id="paint10_linear_8748_7066" x1="26.4349" y1="80.2825" x2="138.405" y2="80.2825" gradientUnits="userSpaceOnUse">
<stop stop-color="#F5B037"/>
<stop offset="1" stop-color="#D98E13"/>
</linearGradient>
</defs>
</svg>
