<svg width="20" height="20" viewBox="0 0 20 20" fill="none" xmlns="http://www.w3.org/2000/svg">
<path d="M18.7489 10.0002L19.8529 8.09218C19.9856 7.86262 20.0217 7.58977 19.9532 7.33361C19.8848 7.07745 19.7174 6.85896 19.4879 6.72618L17.5779 5.62218V3.42218C17.5779 3.15696 17.4725 2.90261 17.285 2.71507C17.0975 2.52754 16.8431 2.42218 16.5779 2.42218H14.3789L13.2759 0.51318C13.1433 0.28351 12.925 0.115889 12.6689 0.0471795C12.542 0.0131811 12.4097 0.00451355 12.2794 0.0216718C12.1492 0.0388301 12.0236 0.0814782 11.9099 0.14718L9.99988 1.25118L8.08988 0.14618C7.86021 0.0135772 7.58726 -0.0223574 7.33109 0.0462805C7.07491 0.114918 6.8565 0.282507 6.72388 0.51218L5.61988 2.42218H3.42088C3.15567 2.42218 2.90131 2.52754 2.71378 2.71507C2.52624 2.90261 2.42088 3.15696 2.42088 3.42218V5.62118L0.510884 6.72518C0.397113 6.79093 0.297414 6.87845 0.217488 6.98275C0.137562 7.08705 0.0789756 7.20608 0.0450777 7.33303C0.0111797 7.45999 0.00263512 7.59238 0.0199322 7.72264C0.0372292 7.8529 0.0800286 7.97847 0.145884 8.09218L1.24988 10.0002L0.145884 11.9082C0.013873 12.138 -0.0219438 12.4106 0.0462426 12.6667C0.114429 12.9227 0.281088 13.1415 0.509884 13.2752L2.41988 14.3792V16.5782C2.41988 16.8434 2.52524 17.0977 2.71278 17.2853C2.90031 17.4728 3.15467 17.5782 3.41988 17.5782H5.61988L6.72388 19.4882C6.81242 19.6395 6.93882 19.7652 7.09066 19.8529C7.2425 19.9405 7.41455 19.9872 7.58988 19.9882C7.76388 19.9882 7.93688 19.9422 8.09088 19.8532L9.99888 18.7492L11.9089 19.8532C12.1384 19.9859 12.4113 20.022 12.6675 19.9535C12.9236 19.8851 13.1421 19.7177 13.2749 19.4882L14.3779 17.5782H16.5769C16.8421 17.5782 17.0965 17.4728 17.284 17.2853C17.4715 17.0977 17.5769 16.8434 17.5769 16.5782V14.3792L19.4869 13.2752C19.6007 13.2094 19.7004 13.1219 19.7803 13.0176C19.8602 12.9133 19.9188 12.7943 19.9527 12.6673C19.9866 12.5404 19.9951 12.408 19.9778 12.2777C19.9605 12.1475 19.9177 12.0219 19.8519 11.9082L18.7489 10.0002ZM7.49888 4.99018C7.89684 4.99031 8.27845 5.14853 8.55975 5.43002C8.84106 5.71151 8.99902 6.09322 8.99888 6.49118C8.99875 6.88914 8.84054 7.27074 8.55904 7.55205C8.27755 7.83335 7.89584 7.99131 7.49788 7.99118C7.09993 7.99105 6.71832 7.83283 6.43702 7.55134C6.15571 7.26985 5.99775 6.88814 5.99788 6.49018C5.99802 6.09222 6.15623 5.71062 6.43772 5.42931C6.71922 5.14801 7.10093 4.99005 7.49888 4.99018ZM7.79888 14.5902L6.19888 13.3912L12.1989 5.39118L13.7989 6.59018L7.79888 14.5902ZM12.4989 14.9902C12.3018 14.9901 12.1067 14.9512 11.9247 14.8758C11.7427 14.8003 11.5773 14.6897 11.438 14.5503C11.2987 14.411 11.1883 14.2455 11.1129 14.0634C11.0376 13.8814 10.9988 13.6862 10.9989 13.4892C10.999 13.2921 11.0378 13.097 11.1133 12.915C11.1888 12.733 11.2993 12.5676 11.4387 12.4283C11.5781 12.289 11.7436 12.1786 11.9256 12.1032C12.1077 12.0279 12.3028 11.9891 12.4999 11.9892C12.8978 11.9893 13.2794 12.1475 13.5608 12.429C13.8421 12.7105 14 13.0922 13.9999 13.4902C13.9998 13.8881 13.8415 14.2697 13.56 14.551C13.2786 14.8324 12.8968 14.9903 12.4989 14.9902Z" fill="#262A56"/>
</svg>
