<svg width="24" height="24" viewBox="0 0 24 24" fill="none" xmlns="http://www.w3.org/2000/svg">
<g clip-path="url(#clip0_2068_1370)">
<path d="M0 23.9969L5.74753 6.92871L17.0992 18.238L0 23.9969Z" fill="#FFEA84"/>
<path d="M0 23.9971L17.0992 18.2382L11.4185 12.5786L0 23.9971Z" fill="#FFDC40"/>
<path d="M16.035 18.4164C15.4172 18.4164 14.7142 18.2674 13.9489 17.9679C12.4165 17.3683 10.7534 16.2188 9.26579 14.7311C7.77817 13.2435 6.6287 11.5803 6.02907 10.048C5.35571 8.32736 5.44295 6.92172 6.27465 6.09006C7.10631 5.25836 8.51195 5.17117 10.2326 5.84448C11.765 6.44406 13.4281 7.59358 14.9158 9.08125C16.4034 10.5689 17.5529 12.232 18.1525 13.7643C18.8259 15.485 18.7386 16.8907 17.9069 17.7223C17.4452 18.1841 16.8064 18.4164 16.035 18.4164Z" fill="#FFDC40"/>
<path d="M14.9156 9.08105L9.26562 14.731C10.7532 16.2186 12.4164 17.3681 13.9487 17.9678C14.714 18.2672 15.4169 18.4163 16.0348 18.4163C16.8062 18.4163 17.445 18.184 17.9067 17.7222C18.7384 16.8906 18.8256 15.4849 18.1523 13.7642C17.5527 12.2318 16.4032 10.5686 14.9156 9.08105Z" fill="#FFAB15"/>
<path d="M8.14842 6.80566C7.76231 6.80566 7.45973 6.89927 7.27153 7.08748C6.87229 7.48671 6.89864 8.40152 7.34198 9.53454C7.87228 10.8897 8.90958 12.3813 10.2627 13.7344C11.6159 15.0876 13.1074 16.1248 14.4626 16.6551C15.5957 17.0985 16.5104 17.1248 16.9096 16.7255C17.3089 16.3263 17.2825 15.4115 16.8392 14.2785C16.3089 12.9233 15.2716 11.4318 13.9185 10.0786C12.5653 8.72543 11.0738 7.68818 9.71859 7.15793C9.11958 6.92351 8.5815 6.80566 8.14842 6.80566Z" fill="#FFAB15"/>
<path d="M16.8393 14.2785C16.309 12.9233 15.2717 11.4318 13.9186 10.0786L10.2627 13.7344C11.6159 15.0876 13.1074 16.1248 14.4626 16.6551C15.5957 17.0985 16.5104 17.1248 16.9097 16.7255C17.309 16.3264 17.2826 15.4116 16.8393 14.2785Z" fill="#FF9400"/>
<path d="M12.6499 12.3441L11.6528 11.3471C12.559 10.4409 13.4751 10.4113 14.2114 10.3876C14.8471 10.367 15.3066 10.3522 15.8184 9.8403C16.3303 9.32848 16.3451 8.8691 16.3656 8.23343C16.3893 7.49726 16.4189 6.58104 17.325 5.6749C18.2311 4.76876 19.1473 4.73918 19.8836 4.71546C20.5192 4.69498 20.9786 4.68016 21.4904 4.16834C22.0023 3.65646 22.0171 3.19713 22.0376 2.56141C22.0614 1.82524 22.0909 0.90907 22.9971 0.00292969L23.9941 0.999961C23.4823 1.51179 23.4674 1.97116 23.4469 2.60684C23.4232 3.34301 23.3936 4.25923 22.4875 5.16537C21.5814 6.07151 20.6652 6.10109 19.9289 6.1248C19.2933 6.14529 18.8339 6.1601 18.3221 6.67193C17.8102 7.1838 17.7954 7.64313 17.7749 8.27885C17.7512 9.01502 17.7216 9.93124 16.8155 10.8374C15.9093 11.7436 14.9931 11.7731 14.2568 11.7969C13.6211 11.8174 13.1618 11.8322 12.6499 12.3441Z" fill="#063E8B"/>
<path d="M10.3014 9.60335C10.1248 8.99229 9.99721 8.55082 10.3262 7.90601C10.6552 7.26124 11.0876 7.10548 11.6859 6.88985C12.3789 6.6402 13.2413 6.32946 13.8237 5.18801C14.4061 4.0466 14.1517 3.16591 13.9471 2.45829C13.7705 1.84727 13.6429 1.40576 13.9719 0.760992L12.7159 0.120117C12.1335 1.26157 12.388 2.14221 12.5925 2.84984C12.7691 3.46085 12.8967 3.90237 12.5677 4.54713C12.2388 5.1919 11.8064 5.34766 11.208 5.56329C10.515 5.81295 9.65268 6.12368 9.07026 7.26513C8.48779 8.40663 8.74228 9.28727 8.94684 9.99485C9.12342 10.6059 9.25101 11.0474 8.92204 11.6921C8.87073 11.7936 8.81111 11.8906 8.74378 11.9822C9.02067 12.355 9.32451 12.7263 9.65245 13.0909C9.85593 12.874 10.0303 12.6227 10.178 12.3331C10.7604 11.1916 10.5059 10.3109 10.3014 9.60335Z" fill="#86D6F2"/>
<path d="M17.5847 15.1837C18.1615 15.6417 18.8798 16.2119 20.1565 16.1069C21.4337 16.002 22.0488 15.3224 22.5431 14.7763C22.9699 14.3048 23.2783 13.964 23.9998 13.9048L23.8843 12.4995C22.6071 12.6044 21.9919 13.284 21.4977 13.8301C21.0709 14.3017 20.7625 14.6424 20.041 14.7017C19.3196 14.7609 18.9597 14.4751 18.4616 14.0795C17.8849 13.6215 17.1672 13.0512 15.8899 13.1563C14.6127 13.2612 13.9975 13.9408 13.5032 14.4869C13.0962 14.9365 12.796 15.2666 12.1436 15.3477C12.6417 15.7089 13.1416 16.0207 13.6316 16.275C14.0155 16.0216 14.2977 15.7102 14.5486 15.4331C14.9754 14.9615 15.2839 14.6208 16.0054 14.5615C16.7269 14.5022 17.0867 14.788 17.5847 15.1837Z" fill="#F4717A"/>
<path d="M9.3956 4.13543C9.91476 4.13543 10.3356 3.71457 10.3356 3.1954C10.3356 2.67624 9.91476 2.25537 9.3956 2.25537C8.87643 2.25537 8.45557 2.67624 8.45557 3.1954C8.45557 3.71457 8.87643 4.13543 9.3956 4.13543Z" fill="#063E8B"/>
<path d="M22.3048 18.7228C22.8239 18.7228 23.2448 18.302 23.2448 17.7828C23.2448 17.2636 22.8239 16.8428 22.3048 16.8428C21.7856 16.8428 21.3647 17.2636 21.3647 17.7828C21.3647 18.302 21.7856 18.7228 22.3048 18.7228Z" fill="#86D6F2"/>
<path d="M20.3936 11.4221C20.9128 11.4221 21.3337 11.0012 21.3337 10.482C21.3337 9.96286 20.9128 9.54199 20.3936 9.54199C19.8745 9.54199 19.4536 9.96286 19.4536 10.482C19.4536 11.0012 19.8745 11.4221 20.3936 11.4221Z" fill="#F4717A"/>
<path d="M18.2794 3.19549C18.7986 3.19549 19.2194 2.77463 19.2194 2.25546C19.2194 1.7363 18.7986 1.31543 18.2794 1.31543C17.7602 1.31543 17.3394 1.7363 17.3394 2.25546C17.3394 2.77463 17.7602 3.19549 18.2794 3.19549Z" fill="#F4717A"/>
</g>
<defs>
<clipPath id="clip0_2068_1370">
<rect width="24" height="24" fill="white"/>
</clipPath>
</defs>
</svg>
