<svg width="22" height="22" viewBox="0 0 22 22" fill="none" xmlns="http://www.w3.org/2000/svg">
<g clip-path="url(#clip0_160_1047)">
<path d="M0.0671264 1.94471L1.481 4.41884C1.52869 4.50244 1.60851 4.56293 1.70186 4.58634L3.02093 4.91611L7.54505 9.44023L8.04494 8.94049L3.45001 4.3457C3.40479 4.30034 3.34808 4.2682 3.28599 4.25264L2.01854 3.93465L0.814774 1.82694L1.84682 0.794885L3.95542 1.99982L4.27355 3.26727C4.28896 3.3295 4.32124 3.38635 4.36646 3.43157L8.9614 8.0265L9.46114 7.52662L4.93701 3.00249L4.60725 1.68415C4.58384 1.59066 4.52335 1.51069 4.43974 1.46285L1.96547 0.0491281C1.82749 -0.0293879 1.65388 -0.00612387 1.54134 0.10598L0.127613 1.51985C0.01391 1.63166 -0.010808 1.80556 0.0671264 1.94471Z" fill="white"/>
<path d="M5.62503 15.0171C5.56106 14.9107 5.44619 14.8457 5.32202 14.8457H3.20136C3.07733 14.8457 2.96232 14.9107 2.89849 15.0171L1.83809 16.7843C1.77077 16.8963 1.77077 17.0363 1.83809 17.1484L2.89849 18.9156C2.96232 19.0219 3.07733 19.087 3.20136 19.087H5.32202C5.44619 19.087 5.56106 19.0219 5.62503 18.9156L6.68529 17.1484C6.75261 17.0363 6.75261 16.8963 6.68529 16.7843L5.62503 15.0171ZM5.12209 18.3801H3.40143L2.55317 16.9664L3.40143 15.5525H5.12209L5.97036 16.9664L5.12209 18.3801Z" fill="white"/>
<path d="M16.9861 8.48351C19.3205 8.49136 21.2194 6.60523 21.2273 4.27083C21.2284 3.91547 21.1848 3.56157 21.0974 3.21711C21.0503 3.02766 20.8585 2.91236 20.6691 2.95947C20.6068 2.97502 20.5501 3.00716 20.5048 3.05238L18.3046 5.25112L16.5589 4.66937L15.9767 2.92413L18.1769 0.723503C18.3149 0.585373 18.3148 0.361602 18.1766 0.223617C18.1311 0.178107 18.0738 0.145828 18.0112 0.130416C15.7473 -0.442897 13.4475 0.927499 12.8742 3.19123C12.7871 3.53467 12.7436 3.8877 12.7448 4.24204C12.7456 4.52034 12.7743 4.79776 12.8307 5.07024L5.09003 12.8108C4.81755 12.7545 4.54013 12.7258 4.26197 12.7248C1.91943 12.7248 0.0205078 14.6238 0.0205078 16.9663C0.0205078 19.3087 1.91943 21.2076 4.26197 21.2076C6.60437 21.2076 8.5033 19.3087 8.5033 16.9663C8.50242 16.688 8.47363 16.4106 8.41737 16.1381L10.2705 14.285L11.0809 15.0954C11.2191 15.2334 11.4427 15.2334 11.5808 15.0954L11.7575 14.9186C11.9125 14.7646 12.163 14.7646 12.318 14.9186C12.4729 15.073 12.4732 15.3237 12.3187 15.4786L12.318 15.4793L12.1414 15.6559C12.0034 15.7939 12.0034 16.0177 12.1414 16.1557L16.3577 20.372C17.4666 21.4911 19.2728 21.4993 20.3919 20.3903C21.5109 19.2814 21.5191 17.475 20.4101 16.3561C20.4042 16.3499 20.398 16.3438 20.3919 16.3377L16.1756 12.1216C16.0376 11.9836 15.8139 11.9836 15.6759 12.1216L15.4992 12.2982C15.3441 12.4523 15.0937 12.4523 14.9386 12.2982C14.7839 12.1438 14.7834 11.8931 14.9378 11.7384L14.9386 11.7377L15.1154 11.5609C15.2534 11.4229 15.2534 11.1991 15.1154 11.0612L14.3049 10.2507L16.158 8.39758C16.4305 8.45385 16.7079 8.48263 16.9861 8.48351ZM18.3748 20.5008C18.118 20.5004 17.8634 20.454 17.6231 20.3637L20.3835 17.6031C20.8001 18.7112 20.2396 19.9471 19.1315 20.3637C18.8897 20.4546 18.6333 20.5011 18.3748 20.5008ZM14.3706 11.3146C13.9792 11.7815 14.0406 12.4774 14.5074 12.8686C14.9178 13.2125 15.5158 13.2122 15.9257 12.8676L19.8922 16.8376C19.9352 16.8808 19.9755 16.9263 20.0145 16.9725L16.9925 19.9945C16.9461 19.9557 16.9006 19.9154 16.8574 19.8723L12.8878 15.9024C13.2793 15.4355 13.2179 14.7396 12.751 14.3484C12.3407 14.0044 11.7425 14.0048 11.3326 14.3492L10.7672 13.7838L13.805 10.7504L14.3706 11.3146ZM15.7979 7.75971L7.77979 15.7762C7.69182 15.864 7.65649 15.9915 7.68644 16.1121C8.17135 18.0164 7.02065 19.9532 5.1162 20.438C3.2119 20.9229 1.27502 19.7722 0.790111 17.8678C0.305347 15.9635 1.45604 14.0266 3.36049 13.5417C3.93657 13.3951 4.54013 13.3951 5.1162 13.5417C5.23674 13.5712 5.36396 13.5359 5.45207 13.4485L13.4683 5.43185C13.5561 5.34403 13.5914 5.21651 13.5612 5.09612C13.0796 3.21406 14.2149 1.29798 16.097 0.816268C16.4526 0.725393 16.8205 0.690497 17.1869 0.713325L15.3224 2.57852C15.2278 2.67303 15.1946 2.81305 15.2369 2.93998L15.9437 5.06079C15.979 5.1662 16.0619 5.24908 16.1675 5.28412L18.2883 5.99106C18.4151 6.03337 18.5551 6.00036 18.6498 5.90585L20.5142 4.04139C20.5184 4.10885 20.5206 4.17559 20.5206 4.24204C20.5305 6.18415 18.9643 7.76654 17.0221 7.77657C16.7219 7.77803 16.4227 7.74109 16.1319 7.66665C16.0113 7.63655 15.8838 7.67174 15.796 7.75956L15.7979 7.75971Z" fill="white"/>
<path d="M15.7979 7.75971L7.77979 15.7762C7.69182 15.864 7.65649 15.9915 7.68644 16.1121C8.17135 18.0164 7.02065 19.9532 5.1162 20.438C3.2119 20.9229 1.27502 19.7722 0.790111 17.8678C0.305347 15.9635 1.45604 14.0266 3.36049 13.5417C3.93657 13.3951 4.54013 13.3951 5.1162 13.5417C5.23674 13.5712 5.36396 13.5359 5.45207 13.4485L13.4683 5.43185C13.5561 5.34403 13.5914 5.21651 13.5612 5.09612C13.0796 3.21406 14.2149 1.29798 16.097 0.816268C16.4526 0.725393 16.8205 0.690497 17.1869 0.713325L15.3224 2.57852C15.2278 2.67303 15.1946 2.81305 15.2369 2.93998L15.9437 5.06079C15.979 5.1662 16.0619 5.24908 16.1675 5.28412L18.2883 5.99106C18.4151 6.03337 18.5551 6.00036 18.6498 5.90585L20.5142 4.04139C20.5184 4.10885 20.5206 4.17559 20.5206 4.24204C20.5305 6.18415 18.9643 7.76654 17.0221 7.77657C16.7219 7.77803 16.4227 7.74109 16.1319 7.66665C16.0113 7.63655 15.8838 7.67174 15.796 7.75956L15.7979 7.75971Z" fill="white"/>
<path d="M14.7618 6.96596L6.98597 14.742L6.48608 14.2421L14.2621 6.46622L14.7618 6.96596Z" fill="#FE9C0F"/>
<path d="M18.2967 17.7766L17.7968 18.2765L14.2625 14.7421L14.7622 14.2422L18.2967 17.7766Z" fill="white"/>
</g>
<defs>
<clipPath id="clip0_160_1047">
<rect width="21.2" height="21.2" fill="white"/>
</clipPath>
</defs>
</svg>
