<svg width="23" height="22" viewBox="0 0 23 22" fill="none" xmlns="http://www.w3.org/2000/svg">
<g clip-path="url(#clip0_159_725)">
<path d="M0.967029 2.74476L2.3809 5.21889C2.42859 5.30249 2.50842 5.36298 2.60176 5.38639L3.92083 5.71615L8.44496 10.2403L8.94484 9.74054L4.34991 5.14575C4.30469 5.10039 4.24798 5.06825 4.1859 5.05269L2.91844 4.7347L1.71468 2.62698L2.74673 1.59493L4.85532 2.79986L5.17345 4.06732C5.18887 4.12955 5.22115 4.1864 5.26636 4.23162L9.8613 8.82655L10.361 8.32667L5.83691 3.80254L5.50715 2.4842C5.48374 2.39071 5.42325 2.31074 5.33965 2.2629L2.86537 0.849177C2.72739 0.770661 2.55378 0.793925 2.44124 0.906028L1.02752 2.3199C0.913812 2.43171 0.889094 2.60561 0.967029 2.74476Z" fill="#9DB2CE"/>
<path d="M15.6617 7.7661L7.88587 15.5421L7.38599 15.0422L15.162 7.26636L15.6617 7.7661Z" fill="#9DB2CE"/>
<path d="M6.52494 15.8172C6.46096 15.7107 6.34609 15.6458 6.22192 15.6458H4.10126C3.97724 15.6458 3.86222 15.7107 3.79839 15.8172L2.73799 17.5844C2.67067 17.6963 2.67067 17.8364 2.73799 17.9485L3.79839 19.7156C3.86222 19.8219 3.97724 19.8871 4.10126 19.8871H6.22192C6.34609 19.8871 6.46096 19.8219 6.52494 19.7156L7.58519 17.9485C7.65251 17.8364 7.65251 17.6963 7.58519 17.5844L6.52494 15.8172ZM6.022 19.1801H4.30133L3.45307 17.7664L4.30133 16.3525H6.022L6.87026 17.7664L6.022 19.1801Z" fill="#9DB2CE"/>
<path d="M17.886 9.28356C20.2204 9.29141 22.1193 7.40528 22.1272 5.07088C22.1283 4.71552 22.0847 4.36162 21.9973 4.01716C21.9502 3.82771 21.7584 3.7124 21.569 3.75951C21.5067 3.77507 21.45 3.80721 21.4047 3.85243L19.2045 6.05117L17.4588 5.46942L16.8766 3.72418L19.0768 1.52355C19.2148 1.38542 19.2147 1.16165 19.0765 1.02367C19.031 0.978156 18.9737 0.945877 18.9111 0.930465C16.6472 0.357152 14.3474 1.72755 13.7741 3.99128C13.687 4.33472 13.6435 4.68775 13.6447 5.04209C13.6455 5.32038 13.6742 5.59781 13.7306 5.87029L5.98993 13.6108C5.71745 13.5545 5.44003 13.5259 5.16188 13.5249C2.81934 13.5249 0.92041 15.4238 0.92041 17.7663C0.92041 20.1087 2.81934 22.0077 5.16188 22.0077C7.50427 22.0077 9.4032 20.1087 9.4032 17.7663C9.40233 17.488 9.37354 17.2106 9.31727 16.9381L11.1704 15.085L11.9809 15.8955C12.119 16.0335 12.3426 16.0335 12.4807 15.8955L12.6574 15.7187C12.8124 15.5647 13.0629 15.5647 13.2179 15.7187C13.3728 15.8731 13.3731 16.1238 13.2186 16.2786C13.2185 16.2788 13.2182 16.279 13.2179 16.2793L13.0413 16.456C12.9033 16.594 12.9033 16.8178 13.0413 16.9557L17.2576 21.1721C18.3665 22.2912 20.1727 22.2993 21.2918 21.1904C22.4108 20.0814 22.419 18.2751 21.31 17.1561C21.3041 17.15 21.2979 17.1439 21.2918 17.1378L17.0755 12.9216C16.9375 12.7836 16.7138 12.7836 16.5758 12.9216L16.3991 13.0983C16.244 13.2524 15.9936 13.2524 15.8385 13.0983C15.6838 12.9439 15.6833 12.6932 15.8377 12.5385C15.838 12.5382 15.8383 12.538 15.8385 12.5378L16.0153 12.3609C16.1533 12.223 16.1533 11.9992 16.0153 11.8612L15.2048 11.0507L17.0579 9.19762C17.3304 9.25389 17.6078 9.28268 17.886 9.28356ZM19.2747 21.3009C19.0179 21.3004 18.7633 21.2541 18.523 21.1638L21.2834 18.4032C21.7 19.5113 21.1395 20.7472 20.0314 21.1638C19.7896 21.2546 19.5332 21.3012 19.2747 21.3009ZM15.2705 12.1146C14.8791 12.5815 14.9405 13.2774 15.4073 13.6687C15.8177 14.0125 16.4157 14.0123 16.8256 13.6677L20.7921 17.6377C20.8351 17.6808 20.8754 17.7264 20.9144 17.7726L17.8924 20.7946C17.846 20.7558 17.8005 20.7155 17.7573 20.6723L13.7877 16.7025C14.1792 16.2356 14.1178 15.5397 13.6509 15.1484C13.2406 14.8044 12.6424 14.8048 12.2325 15.1493L11.6671 14.5838L14.7049 11.5505L15.2705 12.1146ZM16.6978 8.55975L8.67969 16.5762C8.59172 16.6641 8.55639 16.7916 8.58634 16.9121C9.07125 18.8164 7.92055 20.7533 6.0161 21.2381C4.1118 21.723 2.17492 20.5723 1.69001 18.6678C1.20525 16.7635 2.35595 14.8266 4.2604 14.3417C4.83647 14.1952 5.44003 14.1952 6.0161 14.3417C6.13664 14.3713 6.26386 14.3359 6.35198 14.2485L14.3682 6.2319C14.456 6.14408 14.4913 6.01656 14.4611 5.89617C13.9795 4.01411 15.1148 2.09803 16.9969 1.61632C17.3525 1.52544 17.7204 1.49055 18.0868 1.51337L16.2223 3.37857C16.1277 3.47308 16.0945 3.6131 16.1368 3.74003L16.8436 5.86084C16.8789 5.96625 16.9618 6.04913 17.0674 6.08417L19.1882 6.79111C19.315 6.83342 19.455 6.80041 19.5497 6.7059L21.4141 4.84144C21.4183 4.9089 21.4205 4.97564 21.4205 5.04209C21.4304 6.9842 19.8642 8.56659 17.922 8.57662C17.6218 8.57807 17.3226 8.54114 17.0318 8.4667C16.9112 8.4366 16.7837 8.47179 16.6959 8.55961H16.6978V8.55975Z" fill="#9DB2CE"/>
<path d="M19.1966 18.5766L18.6967 19.0765L15.1624 15.5421L15.6621 15.0422L19.1966 18.5766Z" fill="#9DB2CE"/>
</g>
<defs>
<clipPath id="clip0_159_725">
<rect width="21.2" height="21.2" fill="white" transform="translate(0.899902 0.800049)"/>
</clipPath>
</defs>
</svg>
