<svg xmlns="http://www.w3.org/2000/svg" width="19.7" height="19.702" viewBox="0 0 19.7 19.702">
  <g id="_1976051_config_configuration_settings_icon" data-name="1976051_config_configuration_settings_icon" transform="translate(-2.15 -2.275)">
    <path id="Path_3011" data-name="Path 3011" d="M21.485,10.5l.365-.98L20.808,7l-.951-.434-1.1.367-.275-.086a8.319,8.319,0,0,0-1.206-1.2l-.086-.277.367-1.1-.434-.951L14.607,2.275l-.979.366-.52,1.039-.256.134a8.3,8.3,0,0,0-1.7,0l-.256-.133-.519-1.037-.979-.367L6.878,3.317l-.434.951.367,1.1-.087.276A8.269,8.269,0,0,0,5.52,6.85l-.276.086-1.1-.367L3.192,7,2.15,9.519l.365.98,1.039.52.134.256a8.366,8.366,0,0,0,0,1.7l-.133.256-1.037.519-.365.98,1.042,2.515.951.434,1.1-.366.275.086a8.319,8.319,0,0,0,1.206,1.2l.086.275-.367,1.1.435.951,2.515,1.042.98-.366.519-1.038.256-.134a8.3,8.3,0,0,0,1.7,0l.255.134.519,1.037.979.365,2.515-1.042.434-.951-.366-1.1.086-.275a8.319,8.319,0,0,0,1.2-1.206l.275-.086,1.1.367.951-.434,1.042-2.516-.365-.98-1.039-.52-.134-.255a8.375,8.375,0,0,0,0-1.7l.133-.256Zm-1.719-.175-.4.772.017.142a7.389,7.389,0,0,1,0,1.771l-.017.143.4.773.98.49.111.3-.764,1.843-.289.132-1.04-.346-.832.261-.089.113a7.385,7.385,0,0,1-1.251,1.254l-.113.088-.261.832.346,1.039-.132.289-1.843.764-.3-.111-.49-.979-.772-.4-.142.017a7.4,7.4,0,0,1-1.772,0l-.142-.017-.773.4-.49.981-.3.111-1.843-.763-.132-.289.346-1.04-.261-.832-.113-.089a7.391,7.391,0,0,1-1.254-1.252L6.066,16.6l-.831-.261L4.2,16.69l-.289-.132-.764-1.843.111-.3.846-.424.151-.1.386-.738-.017-.142a7.389,7.389,0,0,1,0-1.771l.017-.143-.4-.773-.98-.49-.112-.3.764-1.843L4.2,7.562l1.04.346.832-.261.089-.113A7.385,7.385,0,0,1,7.408,6.28l.113-.089.26-.832L7.436,4.322l.132-.289,1.843-.764.3.111.49.979.772.4.142-.017a7.389,7.389,0,0,1,1.771,0l.143.017.773-.4.491-.981.3-.111,1.843.764.132.289-.346,1.04.26.832.113.089a7.391,7.391,0,0,1,1.254,1.252l.088.113.832.261L19.8,7.562l.289.132.764,1.843-.111.3Z"/>
    <path id="Path_3012" data-name="Path 3012" d="M11.994,7a5.077,5.077,0,1,0,5.085,5.077A5.086,5.086,0,0,0,11.994,7Zm0,9.23a4.153,4.153,0,1,1,4.16-4.153A4.161,4.161,0,0,1,11.994,16.228Z"/>
  </g>
</svg>
