<svg width="25" height="24" viewBox="0 0 25 24" fill="none" xmlns="http://www.w3.org/2000/svg">
<path d="M13.62 24H11.38C10.623 24 9.984 23.433 9.894 22.68L9.655 20.804C9.178 20.649 8.718 20.458 8.281 20.235L6.787 21.396C6.181 21.865 5.328 21.811 4.802 21.27L3.227 19.695C2.69 19.174 2.636 18.321 3.105 17.716L4.266 16.221C4.042 15.784 3.851 15.324 3.697 14.847L1.817 14.608C1.067 14.516 0.5 13.877 0.5 13.12V10.88C0.5 10.123 1.067 9.484 1.82 9.394L3.696 9.155C3.851 8.678 4.042 8.218 4.265 7.781L3.105 6.287C2.635 5.681 2.69 4.827 3.232 4.301L4.807 2.726C5.328 2.189 6.182 2.136 6.786 2.604L8.28 3.766C8.717 3.543 9.177 3.352 9.655 3.197L9.894 1.317C9.984 0.567 10.623 0 11.38 0H13.62C14.377 0 15.016 0.567 15.106 1.32L15.345 3.196C15.823 3.351 16.283 3.542 16.72 3.765L18.214 2.604C18.821 2.135 19.673 2.189 20.199 2.731L21.774 4.306C22.311 4.827 22.365 5.68 21.896 6.285L20.735 7.78C20.959 8.217 21.15 8.677 21.304 9.154L23.184 9.393C23.933 9.484 24.5 10.123 24.5 10.88V13.12C24.5 13.877 23.933 14.516 23.18 14.606L21.304 14.845C21.149 15.322 20.958 15.782 20.735 16.219L21.896 17.713C22.366 18.319 22.311 19.172 21.769 19.698L20.194 21.273C19.673 21.81 18.819 21.865 18.215 21.395L16.72 20.234C16.283 20.458 15.823 20.649 15.346 20.803L15.107 22.683C15.016 23.433 14.377 24 13.62 24ZM8.23 19.14C8.313 19.14 8.398 19.161 8.474 19.203C9.025 19.511 9.622 19.759 10.248 19.939C10.44 19.994 10.581 20.158 10.606 20.356L10.886 22.556C10.916 22.807 11.133 23 11.38 23H13.62C13.867 23 14.084 22.807 14.113 22.561L14.394 20.357C14.419 20.159 14.56 19.995 14.752 19.94C15.378 19.76 15.975 19.512 16.526 19.204C16.701 19.106 16.919 19.123 17.076 19.246L18.826 20.606C19.027 20.762 19.309 20.749 19.481 20.572L21.066 18.987C21.247 18.811 21.261 18.529 21.105 18.327L19.745 16.577C19.622 16.419 19.605 16.202 19.703 16.027C20.011 15.476 20.259 14.879 20.439 14.253C20.494 14.061 20.658 13.92 20.856 13.895L23.056 13.615C23.307 13.584 23.5 13.367 23.5 13.12V10.88C23.5 10.633 23.307 10.416 23.061 10.387L20.857 10.106C20.659 10.081 20.495 9.94 20.44 9.748C20.26 9.122 20.012 8.525 19.704 7.974C19.606 7.799 19.622 7.582 19.746 7.424L21.106 5.674C21.263 5.472 21.249 5.19 21.073 5.02L19.488 3.435C19.313 3.253 19.03 3.239 18.828 3.396L17.078 4.756C16.919 4.879 16.702 4.896 16.527 4.798C15.978 4.49 15.381 4.243 14.753 4.062C14.561 4.007 14.42 3.843 14.395 3.645L14.115 1.445C14.084 1.193 13.867 1 13.62 1H11.38C11.133 1 10.916 1.193 10.887 1.439L10.606 3.643C10.581 3.841 10.44 4.005 10.248 4.061C9.62 4.241 9.023 4.489 8.474 4.796C8.299 4.895 8.082 4.877 7.923 4.755L6.173 3.395C5.971 3.238 5.69 3.252 5.519 3.428L3.934 5.014C3.753 5.19 3.739 5.472 3.895 5.674L5.255 7.424C5.378 7.582 5.395 7.799 5.297 7.974C4.988 8.525 4.741 9.122 4.561 9.748C4.506 9.94 4.342 10.081 4.144 10.106L1.944 10.386C1.693 10.416 1.5 10.633 1.5 10.88V13.12C1.5 13.367 1.693 13.584 1.939 13.613L4.143 13.894C4.341 13.919 4.505 14.06 4.56 14.252C4.74 14.878 4.988 15.475 5.296 16.026C5.394 16.201 5.378 16.418 5.254 16.576L3.894 18.326C3.737 18.528 3.751 18.81 3.927 18.98L5.512 20.565C5.687 20.746 5.968 20.76 6.172 20.604L7.922 19.244C8.013 19.176 8.121 19.14 8.23 19.14Z" fill="white"/>
<path d="M8.23 19.14C8.313 19.14 8.398 19.161 8.474 19.203C9.025 19.511 9.622 19.759 10.248 19.939C10.44 19.994 10.581 20.158 10.606 20.356L10.886 22.556C10.916 22.807 11.133 23 11.38 23H13.62C13.867 23 14.084 22.807 14.113 22.561L14.394 20.357C14.419 20.159 14.56 19.995 14.752 19.94C15.378 19.76 15.975 19.512 16.526 19.204C16.701 19.106 16.919 19.123 17.076 19.246L18.826 20.606C19.027 20.762 19.309 20.749 19.481 20.572L21.066 18.987C21.247 18.811 21.261 18.529 21.105 18.327L19.745 16.577C19.622 16.419 19.605 16.202 19.703 16.027C20.011 15.476 20.259 14.879 20.439 14.253C20.494 14.061 20.658 13.92 20.856 13.895L23.056 13.615C23.307 13.584 23.5 13.367 23.5 13.12V10.88C23.5 10.633 23.307 10.416 23.061 10.387L20.857 10.106C20.659 10.081 20.495 9.94 20.44 9.748C20.26 9.122 20.012 8.525 19.704 7.974C19.606 7.799 19.622 7.582 19.746 7.424L21.106 5.674C21.263 5.472 21.249 5.19 21.073 5.02L19.488 3.435C19.313 3.253 19.03 3.239 18.828 3.396L17.078 4.756C16.919 4.879 16.702 4.896 16.527 4.798C15.978 4.49 15.381 4.243 14.753 4.062C14.561 4.007 14.42 3.843 14.395 3.645L14.115 1.445C14.084 1.193 13.867 1 13.62 1H11.38C11.133 1 10.916 1.193 10.887 1.439L10.606 3.643C10.581 3.841 10.44 4.005 10.248 4.061C9.62 4.241 9.023 4.489 8.474 4.796C8.299 4.895 8.082 4.877 7.923 4.755L6.173 3.395C5.971 3.238 5.69 3.252 5.519 3.428L3.934 5.014C3.753 5.19 3.739 5.472 3.895 5.674L5.255 7.424C5.378 7.582 5.395 7.799 5.297 7.974C4.988 8.525 4.741 9.122 4.561 9.748C4.506 9.94 4.342 10.081 4.144 10.106L1.944 10.386C1.693 10.416 1.5 10.633 1.5 10.88V13.12C1.5 13.367 1.693 13.584 1.939 13.613L4.143 13.894C4.341 13.919 4.505 14.06 4.56 14.252C4.74 14.878 4.988 15.475 5.296 16.026C5.394 16.201 5.378 16.418 5.254 16.576L3.894 18.326C3.737 18.528 3.751 18.81 3.927 18.98L5.512 20.565C5.687 20.746 5.968 20.76 6.172 20.604L7.922 19.244C8.013 19.176 8.121 19.14 8.23 19.14Z" fill="white"/>
<path d="M12.5 17C9.743 17 7.5 14.757 7.5 12C7.5 9.243 9.743 7 12.5 7C15.257 7 17.5 9.243 17.5 12C17.5 14.757 15.257 17 12.5 17ZM12.5 8C10.294 8 8.5 9.794 8.5 12C8.5 14.206 10.294 16 12.5 16C14.706 16 16.5 14.206 16.5 12C16.5 9.794 14.706 8 12.5 8Z" fill="#FE9C0F"/>
</svg>
