<svg width="23" height="22" viewBox="0 0 23 22" fill="none" xmlns="http://www.w3.org/2000/svg">
<path d="M12.4815 22H10.5187C9.85539 22 9.29546 21.5031 9.2166 20.8433L9.00718 19.1995C8.5892 19.0637 8.18613 18.8963 7.80321 18.7009L6.49409 19.7182C5.96308 20.1292 5.21564 20.0819 4.75474 19.6078L3.37464 18.2277C2.90409 17.7712 2.85678 17.0237 3.26774 16.4936L4.28507 15.1836C4.08879 14.8007 3.92142 14.3976 3.78648 13.9797L2.13913 13.7702C1.48194 13.6896 0.985107 13.1297 0.985107 12.4664V10.5036C0.985107 9.84025 1.48194 9.28033 2.14176 9.20146L3.7856 8.99204C3.92142 8.57407 4.08879 8.17099 4.28419 7.78807L3.26774 6.47895C2.8559 5.94795 2.9041 5.19963 3.37902 4.73872L4.75912 3.35863C5.21564 2.88808 5.96396 2.84164 6.49321 3.25173L7.80233 4.26993C8.18525 4.07452 8.58833 3.90716 9.00718 3.77134L9.2166 2.12399C9.29546 1.4668 9.85539 0.969971 10.5187 0.969971H12.4815C13.1448 0.969971 13.7048 1.4668 13.7836 2.12662L13.993 3.77047C14.4119 3.90628 14.815 4.07365 15.1979 4.26905L16.507 3.25173C17.0389 2.84076 17.7854 2.88808 18.2464 3.36301L19.6265 4.7431C20.097 5.19963 20.1443 5.94707 19.7334 6.4772L18.716 7.7872C18.9123 8.17012 19.0797 8.57319 19.2146 8.99116L20.862 9.20059C21.5183 9.28033 22.0151 9.84025 22.0151 10.5036V12.4664C22.0151 13.1297 21.5183 13.6896 20.8585 13.7685L19.2146 13.9779C19.0788 14.3959 18.9114 14.7989 18.716 15.1819L19.7334 16.491C20.1452 17.022 20.097 17.7694 19.6221 18.2303L18.242 19.6104C17.7854 20.081 17.0371 20.1292 16.5079 19.7173L15.1979 18.7C14.815 18.8963 14.4119 19.0637 13.9939 19.1986L13.7845 20.846C13.7048 21.5031 13.1448 22 12.4815 22ZM7.75852 17.7414C7.83125 17.7414 7.90573 17.7598 7.97233 17.7966C8.45514 18.0665 8.97826 18.2838 9.52679 18.4415C9.69503 18.4897 9.81858 18.6334 9.84049 18.8069L10.0858 20.7347C10.1121 20.9546 10.3023 21.1237 10.5187 21.1237H12.4815C12.6979 21.1237 12.8881 20.9546 12.9135 20.739L13.1597 18.8078C13.1816 18.6343 13.3052 18.4906 13.4734 18.4424C14.022 18.2847 14.5451 18.0674 15.0279 17.7975C15.1812 17.7116 15.3723 17.7265 15.5098 17.8343L17.0433 19.026C17.2194 19.1627 17.4665 19.1513 17.6172 18.9962L19.0061 17.6073C19.1647 17.4531 19.1769 17.206 19.0402 17.029L17.8485 15.4956C17.7408 15.3571 17.7259 15.167 17.8117 15.0136C18.0816 14.5308 18.2989 14.0077 18.4567 13.4592C18.5048 13.2909 18.6486 13.1674 18.8221 13.1455L20.7498 12.9001C20.9697 12.873 21.1389 12.6828 21.1389 12.4664V10.5036C21.1389 10.2871 20.9697 10.097 20.7542 10.0716L18.8229 9.82535C18.6494 9.80345 18.5057 9.6799 18.4575 9.51166C18.2998 8.96312 18.0825 8.44 17.8126 7.95719C17.7267 7.80384 17.7408 7.6137 17.8494 7.47525L19.0411 5.94181C19.1787 5.76481 19.1664 5.51771 19.0122 5.36875L17.6233 3.97989C17.47 3.82041 17.222 3.80814 17.045 3.94572L15.5116 5.13742C15.3723 5.24519 15.1821 5.26009 15.0288 5.17422C14.5477 4.90433 14.0246 4.6879 13.4743 4.5293C13.3061 4.4811 13.1825 4.3374 13.1606 4.1639L12.9153 2.23615C12.8881 2.01534 12.6979 1.84622 12.4815 1.84622H10.5187C10.3023 1.84622 10.1121 2.01534 10.0867 2.23089L9.84049 4.16215C9.81858 4.33565 9.69503 4.47935 9.52679 4.52842C8.97651 4.68615 8.45339 4.90346 7.97233 5.17247C7.81898 5.25921 7.62884 5.24344 7.48951 5.13654L5.95607 3.94484C5.77907 3.80727 5.53285 3.81954 5.38301 3.97376L3.99415 5.36349C3.83555 5.51771 3.82328 5.76481 3.95998 5.94181L5.15168 7.47525C5.25946 7.6137 5.27435 7.80384 5.18848 7.95719C4.91772 8.44 4.70128 8.96312 4.54356 9.51166C4.49536 9.6799 4.35166 9.80345 4.17816 9.82535L2.25041 10.0707C2.03047 10.097 1.86136 10.2871 1.86136 10.5036V12.4664C1.86136 12.6828 2.03047 12.873 2.24603 12.8984L4.17729 13.1446C4.35078 13.1665 4.49449 13.29 4.54268 13.4583C4.70041 14.0068 4.91772 14.5299 5.1876 15.0128C5.27348 15.1661 5.25946 15.3562 5.1508 15.4947L3.9591 17.0281C3.82153 17.2051 3.8338 17.4522 3.98802 17.6012L5.37687 18.9901C5.53022 19.1487 5.77644 19.1609 5.9552 19.0242L7.48864 17.8325C7.56837 17.7729 7.66301 17.7414 7.75852 17.7414Z" fill="#9DB2CE"/>
<path d="M11.5001 15.8663C9.08433 15.8663 7.1189 13.9008 7.1189 11.485C7.1189 9.06919 9.08433 7.10376 11.5001 7.10376C13.916 7.10376 15.8814 9.06919 15.8814 11.485C15.8814 13.9008 13.916 15.8663 11.5001 15.8663ZM11.5001 7.98001C9.56714 7.98001 7.99515 9.552 7.99515 11.485C7.99515 13.418 9.56714 14.99 11.5001 14.99C13.4332 14.99 15.0051 13.418 15.0051 11.485C15.0051 9.552 13.4332 7.98001 11.5001 7.98001Z" fill="#9DB2CE"/>
</svg>
