<svg width="33" height="32" viewBox="0 0 33 32" fill="none" xmlns="http://www.w3.org/2000/svg">
<g clip-path="url(#clip0_98_787)">
<path d="M16.5 0C7.66375 0 0.5 7.16375 0.5 16C0.5 24.8363 7.66375 32 16.5 32C25.3363 32 32.5 24.8363 32.5 16C32.5 7.16375 25.3363 0 16.5 0Z" fill="black"/>
<path d="M18.2506 14.5517L25.1 6.58984H23.4769L17.5296 13.503L12.7795 6.58984H7.30078L14.4839 17.0438L7.30078 25.3931H8.92397L15.2045 18.0925L20.221 25.3931H25.6997L18.2502 14.5517H18.2506ZM9.50881 7.81176H12.0019L23.4777 24.2267H20.9846L9.50881 7.81176Z" fill="white"/>
</g>
<defs>
<clipPath id="clip0_98_787">
<rect width="32" height="32" fill="white" transform="translate(0.5)"/>
</clipPath>
</defs>
</svg>
