<svg xmlns="http://www.w3.org/2000/svg" width="47" height="47" viewBox="0 0 47 47">
  <g id="Group_1795" data-name="Group 1795" transform="translate(0.32)">
    <circle id="Ellipse_7" data-name="Ellipse 7" cx="23.5" cy="23.5" r="23.5" transform="translate(-0.32)" fill="#006bc6"/>
    <g id="_2305615_address_globe_internet_network_site_icon" data-name="2305615_address_globe_internet_network_site_icon" transform="translate(8.36 9.381)">
      <path id="Path_3049" data-name="Path 3049" d="M34.783,40.107A13.491,13.491,0,0,1,9.38,40" transform="translate(-6.356 -21.969)" fill="none" stroke="#fff" stroke-linecap="round" stroke-linejoin="round" stroke-width="2"/>
      <path id="Path_3050" data-name="Path 3050" d="M9.43,16.837a13.491,13.491,0,0,1,25.426.124" transform="translate(-6.378 -7.924)" fill="none" stroke="#fff" stroke-linecap="round" stroke-linejoin="round" stroke-width="2"/>
      <path id="Path_3051" data-name="Path 3051" d="M33.27,40.247c-.871,5.144-3.142,8.809-5.8,8.809S22.51,45.34,21.65,40.14" transform="translate(-11.728 -22.03)" fill="none" stroke="#fff" stroke-linecap="round" stroke-linejoin="round" stroke-width="2"/>
      <path id="Path_3052" data-name="Path 3052" d="M21.6,16.994C22.438,11.71,24.737,8,27.446,8s4.975,3.744,5.829,8.994" transform="translate(-11.706 -7.957)" fill="none" stroke="#fff" stroke-linecap="round" stroke-linejoin="round" stroke-width="2"/>
      <rect id="Rectangle_783" data-name="Rectangle 783" width="31.48" height="8.994" rx="2" transform="translate(0 9.037)" fill="none" stroke="#fff" stroke-linecap="round" stroke-linejoin="round" stroke-width="2"/>
      <path id="Path_3053" data-name="Path 3053" d="M27.07,29.64l1.383,3.12,1.388-2.468L31.23,32.76l1.383-3.12" transform="translate(-14.101 -17.433)" fill="none" stroke="#fff" stroke-linecap="round" stroke-linejoin="round" stroke-width="2"/>
      <path id="Path_3054" data-name="Path 3054" d="M13.07,29.64l1.383,3.12,1.388-2.468L17.23,32.76l1.383-3.12" transform="translate(-7.971 -17.433)" fill="none" stroke="#fff" stroke-linecap="round" stroke-linejoin="round" stroke-width="2"/>
      <path id="Path_3055" data-name="Path 3055" d="M41.07,29.64l1.383,3.12,1.389-2.468L45.23,32.76l1.383-3.12" transform="translate(-20.231 -17.433)" fill="none" stroke="#fff" stroke-linecap="round" stroke-linejoin="round" stroke-width="2"/>
    </g>
  </g>
</svg>
